<svg width="19" height="20" viewBox="0 0 19 20" fill="none" xmlns="http://www.w3.org/2000/svg">
<g clip-path="url(#clip0_1_537)">
<path d="M0.339355 5.63834C0.339355 5.07619 0.795064 4.62048 1.35721 4.62048H16.2858C16.8479 4.62048 17.3036 5.07619 17.3036 5.63834V15.1383C17.3036 15.7005 16.8479 16.1562 16.2858 16.1562H1.35721C0.795064 16.1562 0.339355 15.7005 0.339355 15.1383V5.63834Z" fill="#E9E9E9" stroke="#7B7B7B"/>
<path d="M17.6429 6.3197H0V9.03399H17.6429V6.3197Z" fill="#7B7B7B"/>
<path d="M16.2857 10.39H2.03571V11.7472H16.2857V10.39Z" fill="#C4C4C4"/>
<path d="M13.2321 14.1222C16.2302 14.1222 18.6607 11.6917 18.6607 8.69359C18.6607 5.69547 16.2302 3.26501 13.2321 3.26501C10.234 3.26501 7.80356 5.69547 7.80356 8.69359C7.80356 11.6917 10.234 14.1222 13.2321 14.1222Z" fill="white" stroke="#7B7B7B"/>
<path fill-rule="evenodd" clip-rule="evenodd" d="M17.3039 11.7472C17.9428 10.8966 18.3214 9.83929 18.3214 8.69359C18.3214 7.54788 17.9428 6.4906 17.3039 5.64001H9.16037C8.52143 6.4906 8.14285 7.54788 8.14285 8.69359C8.14285 9.83929 8.52143 10.8966 9.16037 11.7472H17.3039Z" fill="#E9E9E9"/>
<path d="M11.3001 9.59668V10.0527H9.6105V9.59668H10.1805V8.10043C10.1805 8.06243 10.1812 8.02443 10.1825 7.98643C10.1839 7.94708 10.1859 7.90772 10.1886 7.86836L9.85071 8.14929C9.82085 8.17236 9.791 8.18661 9.76114 8.19204C9.73264 8.19611 9.7055 8.19611 9.67971 8.19204C9.65393 8.18661 9.63085 8.17779 9.6105 8.16558C9.59014 8.15201 9.57521 8.13843 9.56571 8.12486L9.36621 7.86022L10.2904 7.08461H10.8116V9.59668H11.3001ZM13.9164 9.48268C13.9842 9.48268 14.0378 9.50168 14.0772 9.53968C14.1165 9.57633 14.1362 9.62518 14.1362 9.68626V10.0527H12.0517V9.84911C12.0517 9.80976 12.0598 9.76768 12.0761 9.7229C12.0924 9.67811 12.1209 9.6374 12.1616 9.60076L13.0166 8.73965C13.0899 8.66636 13.1537 8.59647 13.2079 8.52997C13.2622 8.46347 13.307 8.39833 13.3423 8.33454C13.3776 8.2694 13.404 8.20493 13.4217 8.14115C13.4393 8.07601 13.4482 8.00747 13.4482 7.93554C13.4482 7.81747 13.4197 7.72722 13.3627 7.66479C13.307 7.60101 13.2215 7.56911 13.1062 7.56911C13.0125 7.56911 12.9331 7.59422 12.868 7.64443C12.8042 7.69329 12.7601 7.75436 12.7357 7.82765C12.7072 7.90229 12.6698 7.95183 12.6237 7.97626C12.5775 8.00068 12.5117 8.00611 12.4262 7.99254L12.0924 7.93351C12.1141 7.78558 12.1555 7.65665 12.2165 7.54672C12.279 7.43679 12.3557 7.34518 12.4466 7.2719C12.5389 7.19861 12.6441 7.14433 12.7621 7.10904C12.8802 7.0724 13.0071 7.05408 13.1428 7.05408C13.2894 7.05408 13.421 7.07579 13.5377 7.11922C13.6558 7.16129 13.7562 7.22033 13.839 7.29633C13.9218 7.37233 13.9849 7.46326 14.0283 7.56911C14.0731 7.67361 14.0955 7.78897 14.0955 7.91518C14.0955 8.02376 14.0799 8.12418 14.0487 8.21647C14.0188 8.30876 13.9774 8.39697 13.9245 8.48111C13.8716 8.5639 13.8098 8.64465 13.7393 8.72336C13.67 8.80072 13.5961 8.87943 13.5174 8.95951L12.9372 9.55393C13.0118 9.53086 13.0858 9.51322 13.1591 9.50101C13.2324 9.48879 13.3002 9.48268 13.3627 9.48268H13.9164ZM14.8775 7.93351C14.8992 7.78558 14.9406 7.65665 15.0017 7.54672C15.0641 7.43679 15.1408 7.34518 15.2317 7.2719C15.324 7.19861 15.4292 7.14433 15.5472 7.10904C15.6653 7.0724 15.7922 7.05408 15.9279 7.05408C16.0745 7.05408 16.2048 7.07511 16.3188 7.11718C16.4328 7.1579 16.5291 7.21354 16.6079 7.28411C16.6866 7.35468 16.7463 7.43679 16.787 7.53043C16.8277 7.62272 16.8481 7.72043 16.8481 7.82358C16.8481 7.91722 16.8386 8.00001 16.8196 8.07193C16.8006 8.14251 16.7721 8.20426 16.7341 8.25718C16.6974 8.30876 16.6513 8.35286 16.5956 8.38951C16.5414 8.42479 16.4789 8.45465 16.4084 8.47908C16.7368 8.59443 16.901 8.81836 16.901 9.15086C16.901 9.30829 16.8725 9.44536 16.8155 9.56208C16.7585 9.67879 16.6818 9.77583 16.5855 9.85318C16.4905 9.93054 16.3799 9.9889 16.2536 10.0283C16.1274 10.0663 15.9958 10.0853 15.8587 10.0853C15.7176 10.0853 15.592 10.0703 15.4821 10.0405C15.3722 10.0093 15.2745 9.96176 15.189 9.89797C15.1035 9.83283 15.0281 9.75004 14.963 9.64961C14.8992 9.54918 14.8436 9.42976 14.7961 9.29133L15.077 9.17733C15.1503 9.14883 15.2181 9.14136 15.2806 9.15493C15.343 9.16851 15.3878 9.19972 15.4149 9.24858C15.476 9.36122 15.5405 9.44333 15.6083 9.4949C15.6775 9.54511 15.7583 9.57022 15.8506 9.57022C15.9211 9.57022 15.9822 9.55868 16.0338 9.53561C16.0867 9.51118 16.1301 9.48065 16.1641 9.44401C16.1994 9.40601 16.2258 9.36326 16.2435 9.31576C16.2611 9.26825 16.2699 9.22008 16.2699 9.17122C16.2699 9.10743 16.2652 9.05043 16.2557 9.00022C16.2475 8.94865 16.2231 8.90454 16.1824 8.8679C16.1417 8.83126 16.0799 8.80343 15.9971 8.78443C15.9157 8.76408 15.8017 8.7539 15.6551 8.7539V8.31826C15.7786 8.31826 15.8784 8.30876 15.9544 8.28976C16.0304 8.27076 16.0887 8.24497 16.1295 8.2124C16.1715 8.17847 16.1994 8.13776 16.2129 8.09026C16.2265 8.04276 16.2333 7.99051 16.2333 7.93351C16.2333 7.81679 16.2048 7.72722 16.1478 7.66479C16.0921 7.60101 16.0066 7.56911 15.8913 7.56911C15.7976 7.56911 15.7182 7.59422 15.6531 7.64443C15.5893 7.69329 15.5452 7.75436 15.5208 7.82765C15.4923 7.90229 15.455 7.95183 15.4088 7.97626C15.3627 8.00068 15.2969 8.00611 15.2114 7.99254L14.8775 7.93351Z" fill="#7B7B7B"/>
</g>
<defs>
<clipPath id="clip0_1_537">
<rect width="19" height="19" fill="white" transform="translate(0 0.890015)"/>
</clipPath>
</defs>
</svg>
