<svg width="51" height="60" viewBox="0 0 51 60" fill="none" xmlns="http://www.w3.org/2000/svg">
<path fill-rule="evenodd" clip-rule="evenodd" d="M46.0028 2.33886C23.725 7.0644 13.6827 31.6593 12.0898 57.0246C12.0618 57.4602 11.7453 57.7837 11.383 57.7443C11.0206 57.7049 10.7476 57.3199 10.7757 56.8843C12.412 30.8084 22.8566 5.63471 45.7586 0.777238C46.1153 0.700685 46.4597 0.989068 46.528 1.4213C46.5963 1.85157 46.3611 2.26225 46.0028 2.33886Z" fill="black"/>
<path fill-rule="evenodd" clip-rule="evenodd" d="M11.4568 56.4712C12.1005 55.3232 12.8949 53.8714 12.989 53.7099C15.5411 49.3327 18.5258 45.6755 22.0638 42.4235C22.3506 42.1591 22.7656 42.2288 22.9891 42.5775C23.2125 42.9262 23.16 43.4247 22.8731 43.689C19.4415 46.8412 16.5461 50.3871 14.071 54.6334C13.9265 54.8808 12.1425 58.1457 11.7401 58.7726C11.5762 59.0307 11.4161 59.1143 11.3767 59.1297C11.1703 59.2211 11.004 59.1768 10.882 59.113C10.7447 59.0397 10.5418 58.8525 10.429 58.4799C10.3123 58.0894 10.2351 57.2149 10.2008 56.9957C9.67625 53.6914 9.32941 49.9522 8.42608 46.5689C7.56479 43.3424 6.19569 40.4361 3.59252 38.6323C3.27544 38.413 3.1636 37.9263 3.34167 37.5475C3.51975 37.1688 3.92283 37.0405 4.23992 37.2597C7.15001 39.2771 8.71804 42.495 9.68069 46.1006C10.5783 49.464 10.9439 53.1685 11.4568 56.4712Z" fill="black"/>
</svg>
