<svg width="52" height="52" viewBox="0 0 52 52" fill="none" xmlns="http://www.w3.org/2000/svg">
<g filter="url(#filter0_d_2440_7447)">
<rect x="10" y="8" width="32" height="32" rx="8" fill="white" fill-opacity="0.01" shape-rendering="crispEdges"/>
<g filter="url(#filter1_dii_2440_7447)">
<rect x="10" y="8" width="32" height="32" rx="8" fill="#09090B"/>
</g>
<path fill-rule="evenodd" clip-rule="evenodd" d="M26.6574 16.8183C26.6268 16.7397 26.5583 16.682 26.4757 16.6652C26.393 16.6483 26.3075 16.6746 26.2485 16.7349L21.8144 21.2709C21.7319 21.3552 21.7202 21.4859 21.7863 21.5836C21.8523 21.6813 21.978 21.719 22.087 21.6738L25.9024 20.0926L29.8926 26.4752C29.9606 26.5839 30.1 26.623 30.2146 26.5655C30.3291 26.508 30.3811 26.3729 30.3345 26.2535L26.6574 16.8183ZM24.2397 22.9921C24.3038 22.8817 24.2737 22.7406 24.1701 22.666C24.0664 22.5913 23.9231 22.6075 23.8387 22.7033L17.812 29.5425C17.7542 29.6081 17.7351 29.6994 17.7619 29.7827C17.7887 29.866 17.8574 29.929 17.9427 29.9486L23.9693 31.3338C24.084 31.3602 24.2013 31.3025 24.2505 31.1956C24.2997 31.0888 24.2671 30.9621 24.1726 30.8922L21.0104 28.5543L24.2397 22.9921ZM32.2431 24.6181C32.204 24.5031 32.0874 24.4334 31.9675 24.4532C31.8477 24.4731 31.7598 24.5767 31.7598 24.6982V28.5954L24.4044 28.7394C24.276 28.7419 24.1707 28.8419 24.1616 28.97C24.1524 29.0981 24.2425 29.212 24.3693 29.2327L33.9617 30.7968C34.0478 30.8109 34.135 30.7787 34.1913 30.7121C34.2476 30.6455 34.2649 30.5543 34.2367 30.4717L32.2431 24.6181Z" fill="white" stroke="white" stroke-width="0.2" stroke-linecap="round" stroke-linejoin="round"/>
</g>
<defs>
<filter id="filter0_d_2440_7447" x="0" y="0" width="52" height="52" filterUnits="userSpaceOnUse" color-interpolation-filters="sRGB">
<feFlood flood-opacity="0" result="BackgroundImageFix"/>
<feColorMatrix in="SourceAlpha" type="matrix" values="0 0 0 0 0 0 0 0 0 0 0 0 0 0 0 0 0 0 127 0" result="hardAlpha"/>
<feOffset dy="2"/>
<feGaussianBlur stdDeviation="5"/>
<feComposite in2="hardAlpha" operator="out"/>
<feColorMatrix type="matrix" values="0 0 0 0 0 0 0 0 0 0 0 0 0 0 0 0 0 0 0.1 0"/>
<feBlend mode="normal" in2="BackgroundImageFix" result="effect1_dropShadow_2440_7447"/>
<feBlend mode="normal" in="SourceGraphic" in2="effect1_dropShadow_2440_7447" result="shape"/>
</filter>
<filter id="filter1_dii_2440_7447" x="9" y="7" width="34" height="39" filterUnits="userSpaceOnUse" color-interpolation-filters="sRGB">
<feFlood flood-opacity="0" result="BackgroundImageFix"/>
<feColorMatrix in="SourceAlpha" type="matrix" values="0 0 0 0 0 0 0 0 0 0 0 0 0 0 0 0 0 0 127 0" result="hardAlpha"/>
<feMorphology radius="1" operator="dilate" in="SourceAlpha" result="effect1_dropShadow_2440_7447"/>
<feOffset/>
<feComposite in2="hardAlpha" operator="out"/>
<feColorMatrix type="matrix" values="0 0 0 0 0 0 0 0 0 0 0 0 0 0 0 0 0 0 0.1 0"/>
<feBlend mode="normal" in2="BackgroundImageFix" result="effect1_dropShadow_2440_7447"/>
<feBlend mode="normal" in="SourceGraphic" in2="effect1_dropShadow_2440_7447" result="shape"/>
<feColorMatrix in="SourceAlpha" type="matrix" values="0 0 0 0 0 0 0 0 0 0 0 0 0 0 0 0 0 0 127 0" result="hardAlpha"/>
<feOffset dy="6"/>
<feGaussianBlur stdDeviation="3.5"/>
<feComposite in2="hardAlpha" operator="arithmetic" k2="-1" k3="1"/>
<feColorMatrix type="matrix" values="0 0 0 0 1 0 0 0 0 1 0 0 0 0 1 0 0 0 0.1 0"/>
<feBlend mode="normal" in2="shape" result="effect2_innerShadow_2440_7447"/>
<feColorMatrix in="SourceAlpha" type="matrix" values="0 0 0 0 0 0 0 0 0 0 0 0 0 0 0 0 0 0 127 0" result="hardAlpha"/>
<feOffset dy="1"/>
<feGaussianBlur stdDeviation="1"/>
<feComposite in2="hardAlpha" operator="arithmetic" k2="-1" k3="1"/>
<feColorMatrix type="matrix" values="0 0 0 0 1 0 0 0 0 1 0 0 0 0 1 0 0 0 0.2 0"/>
<feBlend mode="normal" in2="effect2_innerShadow_2440_7447" result="effect3_innerShadow_2440_7447"/>
</filter>
</defs>
</svg>
