<svg width="280" height="52" viewBox="0 0 280 52" fill="none" xmlns="http://www.w3.org/2000/svg">
<g clip-path="url(#clip0_2440_8013)">
<g clip-path="url(#clip1_2440_8013)">
<g clip-path="url(#clip2_2440_8013)">
<path d="M1.07161 12.922C37.1005 11.9181 73.1197 10.8027 109.129 9.57571L217.188 5.99236C237.567 5.32311 257.948 4.5144 278.328 3.97062V0.777684C246.974 4.44469 215.62 8.51604 184.38 12.434L91.1579 24.0764L38.2549 30.6714C36.0886 30.9363 35.9318 34.1432 38.2549 34.0874L143.334 31.7032L173.163 31.034L172.693 27.6319C149.89 31.5545 127.13 35.4678 104.412 39.3718C102.346 39.7344 102.987 42.7181 104.883 42.8158L159.211 45.2698L158.726 41.7003C150.004 43.9173 141.182 45.8832 132.56 48.4348C130.65 49.0064 130.921 52.046 133.044 51.9484C134.47 51.9484 136.008 51.7672 137.477 51.7532C137.915 51.7532 138.336 51.5829 138.646 51.2795C138.956 50.9761 139.13 50.5648 139.13 50.1359C139.13 49.7069 138.956 49.2954 138.646 48.9922C138.336 48.6888 137.915 48.5185 137.477 48.5185C136.051 48.5185 134.526 48.4209 133.044 48.379L133.543 51.8926C142.336 49.9825 151.001 47.4587 159.71 45.214C160.141 45.0937 160.516 44.8248 160.762 44.4569C161.008 44.0888 161.109 43.6463 161.049 43.2106C160.989 42.775 160.769 42.3753 160.431 42.085C160.094 41.7947 159.66 41.6334 159.211 41.6306L104.883 39.3161L105.353 42.746C128.156 38.7956 150.916 34.8682 173.633 30.9642C175.6 30.6296 175.059 27.5203 173.163 27.5621L68.0698 29.9882L38.2549 30.6714V34.0874L132.118 22.3056L226.053 10.5517C243.624 8.34872 261.212 6.2015 278.785 3.85908C280.609 3.62205 280.209 0.652196 278.357 0.721911C242.342 2.24169 206.313 3.27348 170.299 4.52835C134.284 5.78322 98.2556 7.03809 62.2408 8.36266C41.8606 9.13418 21.4803 9.9196 1.10014 10.7191C-0.325048 10.7191 -0.325048 12.908 1.10014 12.8662L1.07161 12.922Z" fill="#FF4200" fill-opacity="0.3"/>
</g>
</g>
</g>
<defs>
<clipPath id="clip0_2440_8013">
<rect width="280" height="51.23" fill="white" transform="translate(0 0.720703)"/>
</clipPath>
<clipPath id="clip1_2440_8013">
<rect width="280" height="51.23" fill="white" transform="translate(0 0.720703)"/>
</clipPath>
<clipPath id="clip2_2440_8013">
<rect width="279.935" height="51.23" fill="white" transform="translate(0.03125 0.720703)"/>
</clipPath>
</defs>
</svg>
