<svg width="42" height="36" viewBox="0 0 42 36" fill="none" xmlns="http://www.w3.org/2000/svg">
<path fill-rule="evenodd" clip-rule="evenodd" d="M38.4207 1.27436C20.0814 4.22888 11.63 18.7361 10.1131 33.6258C10.0865 33.8815 9.8239 34.0739 9.52655 34.0537C9.22921 34.0336 9.00812 33.81 9.03475 33.5543C10.5931 18.2476 19.3799 3.39751 38.233 0.360483C38.5266 0.312655 38.8071 0.478963 38.8597 0.731898C38.9123 0.983689 38.7157 1.22649 38.4207 1.27436Z" fill="white"/>
<path fill-rule="evenodd" clip-rule="evenodd" d="M9.59452 33.3111C10.1327 32.6325 10.7972 31.7745 10.8758 31.679C13.0082 29.0909 15.4901 26.9214 18.4231 24.9851C18.661 24.8277 19.0013 24.8651 19.182 25.0678C19.3627 25.2705 19.3155 25.5633 19.0776 25.7207C16.2328 27.5976 13.8251 29.701 11.757 32.2118C11.6364 32.3581 10.144 34.2876 9.80834 34.6585C9.67152 34.8113 9.53931 34.8616 9.50683 34.871C9.33652 34.9262 9.20031 34.9017 9.10063 34.8652C8.98844 34.8234 8.82332 34.7153 8.7337 34.4977C8.64099 34.2696 8.58482 33.7573 8.55845 33.6291C8.15467 31.6954 7.90047 29.5052 7.18621 27.5284C6.50519 25.6431 5.40441 23.9498 3.28081 22.9133C3.02214 22.7873 2.93426 22.5028 3.08366 22.2792C3.23305 22.0556 3.56523 21.977 3.8239 22.103C6.19787 23.2623 7.45951 25.1367 8.22067 27.2434C8.93043 29.2087 9.20029 31.3783 9.59452 33.3111Z" fill="white"/>
</svg>
