<svg width="18" height="16" viewBox="0 0 18 16" fill="none" xmlns="http://www.w3.org/2000/svg">
<path fill-rule="evenodd" clip-rule="evenodd" d="M9.9074 0.818297C9.8768 0.739697 9.8083 0.682027 9.7257 0.665167C9.643 0.648317 9.5575 0.674567 9.4985 0.734887L5.06436 5.27091C4.98192 5.35525 4.97018 5.48593 5.03626 5.58361C5.10235 5.68129 5.22803 5.71901 5.33697 5.67385L9.15239 4.09262L13.1426 10.4752C13.2106 10.5839 13.35 10.623 13.4646 10.5655C13.5791 10.508 13.6311 10.3729 13.5845 10.2535L9.9074 0.818297ZM7.48968 6.99213C7.5538 6.88169 7.52369 6.74062 7.42006 6.66599C7.31644 6.59135 7.17309 6.6075 7.08866 6.70331L1.06201 13.5425C1.00416 13.6081 0.985137 13.6994 1.01194 13.7827C1.03874 13.866 1.1074 13.929 1.19268 13.9486L7.21933 15.3338C7.33396 15.3602 7.45134 15.3025 7.50051 15.1956C7.54968 15.0888 7.51713 14.9621 7.42256 14.8922L4.26038 12.5543L7.48968 6.99213ZM15.4931 8.61806C15.454 8.50306 15.3374 8.43336 15.2175 8.45316C15.0977 8.47306 15.0098 8.57666 15.0098 8.69816V12.5954L7.65437 12.7394C7.52597 12.7419 7.42068 12.8419 7.41156 12.97C7.40245 13.0981 7.49252 13.212 7.61927 13.2327L17.2117 14.7968C17.2978 14.8109 17.385 14.7787 17.4413 14.7121C17.4976 14.6455 17.5149 14.5543 17.4867 14.4717L15.4931 8.61806Z" fill="black" stroke="black" stroke-width="0.2" stroke-linecap="round" stroke-linejoin="round"/>
</svg>
