<svg width="19" height="19" viewBox="0 0 19 19" fill="none" xmlns="http://www.w3.org/2000/svg">
<path d="M9.75 10.4512C10.1642 10.4512 10.5 10.1154 10.5 9.70117C10.5 9.28696 10.1642 8.95117 9.75 8.95117C9.33579 8.95117 9 9.28696 9 9.70117C9 10.1154 9.33579 10.4512 9.75 10.4512Z" fill="#171717" stroke="#171717" stroke-width="1.125" stroke-linecap="round" stroke-linejoin="round"/>
<path d="M15 10.4512C15.4142 10.4512 15.75 10.1154 15.75 9.70117C15.75 9.28696 15.4142 8.95117 15 8.95117C14.5858 8.95117 14.25 9.28696 14.25 9.70117C14.25 10.1154 14.5858 10.4512 15 10.4512Z" fill="#171717" stroke="#171717" stroke-width="1.125" stroke-linecap="round" stroke-linejoin="round"/>
<path d="M4.5 10.4512C4.91421 10.4512 5.25 10.1154 5.25 9.70117C5.25 9.28696 4.91421 8.95117 4.5 8.95117C4.08579 8.95117 3.75 9.28696 3.75 9.70117C3.75 10.1154 4.08579 10.4512 4.5 10.4512Z" fill="#171717" stroke="#171717" stroke-width="1.125" stroke-linecap="round" stroke-linejoin="round"/>
</svg>
