<svg width="16" height="17" viewBox="0 0 16 17" fill="none" xmlns="http://www.w3.org/2000/svg">
<g clip-path="url(#clip0_224_247)">
<path fill-rule="evenodd" clip-rule="evenodd" d="M2.75 0.950195C1.7835 0.950195 1 1.7337 1 2.7002V10.2002C1 11.1667 1.7835 11.9502 2.75 11.9502H3.75H4.5V10.4502H3.75H2.75C2.61193 10.4502 2.5 10.3383 2.5 10.2002V2.7002C2.5 2.56213 2.61193 2.4502 2.75 2.4502H8.25C8.38807 2.4502 8.5 2.56213 8.5 2.7002V3.4502H10V2.7002C10 1.7337 9.2165 0.950195 8.25 0.950195H2.75ZM7.75 4.9502C6.7835 4.9502 6 5.7337 6 6.7002V14.2002C6 15.1667 6.7835 15.9502 7.75 15.9502H13.25C14.2165 15.9502 15 15.1667 15 14.2002V6.7002C15 5.7337 14.2165 4.9502 13.25 4.9502H7.75ZM7.5 6.7002C7.5 6.56213 7.61193 6.4502 7.75 6.4502H13.25C13.3881 6.4502 13.5 6.56213 13.5 6.7002V14.2002C13.5 14.3383 13.3881 14.4502 13.25 14.4502H7.75C7.61193 14.4502 7.5 14.3383 7.5 14.2002V6.7002Z" fill="#171717"/>
</g>
<defs>
<clipPath id="clip0_224_247">
<rect width="16" height="16" fill="white" transform="translate(0 0.450195)"/>
</clipPath>
</defs>
</svg>
