<svg width="10" height="11" viewBox="0 0 10 11" fill="none" xmlns="http://www.w3.org/2000/svg">
<path d="M5.12966 1.36284C7.27341 1.36284 9.01855 3.10798 9.01855 5.25173C9.01855 7.39548 7.27341 9.14062 5.12966 9.14062C2.98591 9.14062 1.24077 7.39548 1.24078 5.25173C1.24078 3.10798 2.98591 1.36284 5.12966 1.36284ZM5.12966 0.390625C2.44633 0.390625 0.268555 2.5684 0.268555 5.25173C0.268555 7.93507 2.44633 10.1129 5.12966 10.1129C7.813 10.1129 9.9908 7.93507 9.9908 5.25173C9.9908 2.5684 7.813 0.390625 5.12966 0.390625ZM5.61578 5.25173V3.3073H4.64355V5.25173H3.18522L5.12966 7.19619L7.07411 5.25173H5.61578Z" fill="#40C4AA"/>
</svg>
