<svg width="16" height="17" viewBox="0 0 16 17" fill="none" xmlns="http://www.w3.org/2000/svg">
<path d="M8 0.775391C3.57486 0.775391 0 4.35025 0 8.77539C0 12.3 2.30057 15.3011 5.47429 16.3754C5.87429 16.4508 6.02514 16.2005 6.02514 16.0005V14.6508C3.8 15.1251 3.32457 13.5754 3.32457 13.5754C2.94971 12.6497 2.42514 12.4005 2.42514 12.4005C1.70057 11.9 2.47543 11.9251 2.47543 11.9251C3.27543 11.9754 3.69943 12.7502 3.69943 12.7502C4.42514 13.9754 5.57486 13.6257 6.02514 13.4245C6.10057 12.9 6.29943 12.5502 6.52457 12.3502C4.74971 12.1502 2.87543 11.4508 2.87543 8.40053C2.87543 7.5251 3.17486 6.82568 3.69943 6.25082C3.62514 6.05082 3.34971 5.22568 3.77486 4.12511C3.77486 4.12511 4.44914 3.89996 5.97486 4.95025C6.62664 4.77166 7.29906 4.67944 7.97486 4.67596C8.64914 4.67596 9.34971 4.77539 9.97486 4.95025C11.5006 3.92511 12.1749 4.12511 12.1749 4.12511C12.6 5.22568 12.3246 6.05082 12.2503 6.25082C12.776 6.79939 13.0754 7.5251 13.0754 8.39939C13.0754 11.4748 11.2 12.1502 9.42514 12.3502C9.69943 12.6005 9.97486 13.0748 9.97486 13.8245V16.0257C9.97486 16.2508 10.1246 16.5 10.5246 16.4005C13.7006 15.3 16 12.3 16 8.77539C16 4.35025 12.4251 0.775391 8 0.775391Z" fill="#666666"/>
</svg>
