<svg width="18" height="16" viewBox="0 0 18 16" fill="none" xmlns="http://www.w3.org/2000/svg">
<path fill-rule="evenodd" clip-rule="evenodd" d="M9.9074 1.0683C9.8768 0.989697 9.8083 0.932027 9.7257 0.915167C9.643 0.898317 9.5575 0.924567 9.4985 0.984887L5.06436 5.52091C4.98192 5.60525 4.97018 5.73593 5.03626 5.83361C5.10235 5.93129 5.22803 5.96901 5.33697 5.92385L9.15239 4.34262L13.1426 10.7252C13.2106 10.8339 13.35 10.873 13.4646 10.8155C13.5791 10.758 13.6311 10.6229 13.5845 10.5035L9.9074 1.0683ZM7.48968 7.24213C7.5538 7.13169 7.52369 6.99062 7.42006 6.91599C7.31644 6.84135 7.17309 6.8575 7.08866 6.95331L1.06201 13.7925C1.00416 13.8581 0.985137 13.9494 1.01194 14.0327C1.03874 14.116 1.1074 14.179 1.19268 14.1986L7.21933 15.5838C7.33396 15.6102 7.45134 15.5525 7.50051 15.4456C7.54968 15.3388 7.51713 15.2121 7.42256 15.1422L4.26038 12.8043L7.48968 7.24213ZM15.4931 8.86806C15.454 8.75306 15.3374 8.68336 15.2175 8.70316C15.0977 8.72306 15.0098 8.82666 15.0098 8.94816V12.8454L7.65437 12.9894C7.52597 12.9919 7.42068 13.0919 7.41156 13.22C7.40245 13.3481 7.49252 13.462 7.61927 13.4827L17.2117 15.0468C17.2978 15.0609 17.385 15.0287 17.4413 14.9621C17.4976 14.8955 17.5149 14.8043 17.4867 14.7217L15.4931 8.86806Z" fill="black" stroke="black" stroke-width="0.2" stroke-linecap="round" stroke-linejoin="round"/>
</svg>
