<svg width="32" height="33" viewBox="0 0 32 33" fill="none" xmlns="http://www.w3.org/2000/svg">
<rect y="0.450195" width="32" height="32" rx="16" fill="#F2F2F2"/>
<g clip-path="url(#clip0_224_404)">
<path fill-rule="evenodd" clip-rule="evenodd" d="M16.75 9.2002V8.4502H15.25V9.2002V10.4502V11.2002H16.75V10.4502V9.2002ZM19.182 12.2075L19.7123 11.6772L20.0659 11.3236L20.5962 10.7933L21.6569 11.854L21.1265 12.3843L20.773 12.7378L20.2426 13.2682L19.182 12.2075ZM16 18.9502C17.3807 18.9502 18.5 17.8309 18.5 16.4502C18.5 15.0695 17.3807 13.9502 16 13.9502C14.6193 13.9502 13.5 15.0695 13.5 16.4502C13.5 17.8309 14.6193 18.9502 16 18.9502ZM16 20.4502C18.2091 20.4502 20 18.6593 20 16.4502C20 14.2411 18.2091 12.4502 16 12.4502C13.7909 12.4502 12 14.2411 12 16.4502C12 18.6593 13.7909 20.4502 16 20.4502ZM21.25 15.7002H22H23.25H24V17.2002H23.25H22H21.25V15.7002ZM8.75 15.7002H8V17.2002H8.75H10H10.75V15.7002H10H8.75ZM10.8735 20.5161L10.3431 21.0464L11.4038 22.1071L11.9341 21.5767L12.2877 21.2232L12.818 20.6928L11.7574 19.6322L11.227 20.1625L10.8735 20.5161ZM11.7573 13.2682L11.227 12.7378L10.8735 12.3843L10.3431 11.854L11.4038 10.7933L11.9341 11.3236L12.2877 11.6772L12.818 12.2075L11.7573 13.2682ZM20.0659 21.5767L20.5962 22.1071L21.6569 21.0464L21.1265 20.5161L20.773 20.1625L20.2426 19.6322L19.182 20.6928L19.7123 21.2232L20.0659 21.5767ZM16.75 21.7002V22.4502V23.7002V24.4502H15.25V23.7002V22.4502V21.7002H16.75Z" fill="#171717"/>
</g>
<defs>
<clipPath id="clip0_224_404">
<rect width="16" height="16" fill="white" transform="translate(8 8.4502)"/>
</clipPath>
</defs>
</svg>
