<svg width="298" height="53" viewBox="0 0 298 53" fill="none" xmlns="http://www.w3.org/2000/svg">
<g filter="url(#filter0_d_264_565)">
<rect x="10" y="8.5" width="32" height="32" rx="8" fill="white" fill-opacity="0.01" shape-rendering="crispEdges"/>
<g filter="url(#filter1_dii_264_565)">
<rect x="10" y="8.5" width="32" height="32" rx="8" fill="#09090B"/>
</g>
<path fill-rule="evenodd" clip-rule="evenodd" d="M26.6574 17.3183C26.6268 17.2397 26.5583 17.182 26.4757 17.1652C26.393 17.1483 26.3075 17.1746 26.2485 17.2349L21.8144 21.7709C21.7319 21.8552 21.7202 21.9859 21.7863 22.0836C21.8523 22.1813 21.978 22.219 22.087 22.1738L25.9024 20.5926L29.8926 26.9752C29.9606 27.0839 30.1 27.123 30.2146 27.0655C30.3291 27.008 30.3811 26.8729 30.3345 26.7535L26.6574 17.3183ZM24.2397 23.4921C24.3038 23.3817 24.2737 23.2406 24.1701 23.166C24.0664 23.0913 23.9231 23.1075 23.8387 23.2033L17.812 30.0425C17.7542 30.1081 17.7351 30.1994 17.7619 30.2827C17.7887 30.366 17.8574 30.429 17.9427 30.4486L23.9693 31.8338C24.084 31.8602 24.2013 31.8025 24.2505 31.6956C24.2997 31.5888 24.2671 31.4621 24.1726 31.3922L21.0104 29.0543L24.2397 23.4921ZM32.2431 25.1181C32.204 25.0031 32.0874 24.9334 31.9675 24.9532C31.8477 24.9731 31.7598 25.0767 31.7598 25.1982V29.0954L24.4044 29.2394C24.276 29.2419 24.1707 29.3419 24.1616 29.47C24.1524 29.5981 24.2425 29.712 24.3693 29.7327L33.9617 31.2968C34.0478 31.3109 34.135 31.2787 34.1913 31.2121C34.2476 31.1455 34.2649 31.0543 34.2367 30.9717L32.2431 25.1181Z" fill="white" stroke="white" stroke-width="0.2" stroke-linecap="round" stroke-linejoin="round"/>
</g>
<path d="M63.68 13.188H60.288V22.5H57.84V13.188H54.432V11.14H63.68V13.188ZM67.1409 14.02L67.2049 16.516L67.0289 16.436C67.1569 15.6253 67.3969 15.0227 67.7489 14.628C68.1009 14.2227 68.5915 14.02 69.2209 14.02H70.0049V15.812H69.2049C68.7462 15.812 68.3729 15.8867 68.0849 16.036C67.7969 16.1747 67.5835 16.3933 67.4449 16.692C67.3169 16.98 67.2529 17.348 67.2529 17.796V22.5H64.8529V14.02H67.1409ZM71.143 16.644C71.303 15.7373 71.719 15.044 72.391 14.564C73.063 14.0733 73.959 13.828 75.079 13.828C76.3697 13.828 77.3403 14.1427 77.991 14.772C78.6523 15.3907 78.983 16.3027 78.983 17.508V20.18C78.983 20.436 79.0257 20.6173 79.111 20.724C79.207 20.82 79.3403 20.868 79.511 20.868H79.815V22.5L79.399 22.516L79.255 22.532C78.7217 22.564 78.2257 22.5053 77.767 22.356C77.319 22.196 77.0523 21.812 76.967 21.204C76.743 21.6627 76.3857 22.0253 75.895 22.292C75.4043 22.5587 74.7857 22.692 74.039 22.692C73.1537 22.692 72.423 22.4733 71.847 22.036C71.2817 21.588 70.999 20.996 70.999 20.26C70.999 19.7587 71.1217 19.3427 71.367 19.012C71.6123 18.6813 71.9643 18.4147 72.423 18.212C72.8817 18.0093 73.479 17.8387 74.215 17.7L76.551 17.22C76.5403 16.6013 76.4123 16.1427 76.167 15.844C75.9323 15.5453 75.5643 15.396 75.063 15.396C74.6577 15.396 74.327 15.5133 74.071 15.748C73.815 15.972 73.639 16.308 73.543 16.756L71.143 16.644ZM73.463 20.18C73.463 20.4573 73.575 20.6867 73.799 20.868C74.0337 21.0493 74.3643 21.14 74.791 21.14C75.143 21.1293 75.4523 21.0387 75.719 20.868C75.9857 20.6973 76.1937 20.4413 76.343 20.1C76.503 19.748 76.583 19.3213 76.583 18.82V18.708L75.191 18.964C75.1163 18.9747 75.0417 18.9907 74.967 19.012C74.615 19.076 74.3377 19.1507 74.135 19.236C73.9323 19.3107 73.767 19.4227 73.639 19.572C73.5217 19.7213 73.463 19.924 73.463 20.18ZM86.8763 11.14H89.2763V22.5H86.9883L86.9403 21.268C86.6949 21.716 86.3429 22.068 85.8843 22.324C85.4363 22.5693 84.9296 22.692 84.3643 22.692C83.6389 22.692 83.0043 22.5107 82.4603 22.148C81.9163 21.7853 81.5003 21.2733 81.2122 20.612C80.9243 19.94 80.7803 19.156 80.7803 18.26C80.7803 17.364 80.9243 16.5853 81.2122 15.924C81.5003 15.252 81.9163 14.7347 82.4603 14.372C83.0043 14.0093 83.6389 13.828 84.3643 13.828C84.8976 13.828 85.3883 13.9507 85.8363 14.196C86.2843 14.4307 86.6309 14.7667 86.8763 15.204V11.14ZM86.7803 19.636C86.9403 19.2413 87.0203 18.7827 87.0203 18.26C87.0203 17.7267 86.9403 17.2627 86.7803 16.868C86.6309 16.4733 86.4123 16.1693 86.1243 15.956C85.8469 15.732 85.5109 15.62 85.1163 15.62C84.5509 15.62 84.0976 15.86 83.7563 16.34C83.4149 16.82 83.2443 17.46 83.2443 18.26C83.2443 19.0493 83.4149 19.684 83.7563 20.164C84.1083 20.6333 84.5616 20.868 85.1163 20.868C85.5109 20.868 85.8469 20.7613 86.1243 20.548C86.4123 20.3347 86.6309 20.0307 86.7803 19.636ZM93.3623 14.02V22.5H90.9622V14.02H93.3623ZM93.3943 11.14V12.916H90.9143V11.14H93.3943ZM97.4191 14.02L97.5151 16.5L97.2111 16.404C97.3285 15.4973 97.6325 14.8413 98.1231 14.436C98.6245 14.0307 99.2538 13.828 100.011 13.828C100.928 13.828 101.643 14.116 102.155 14.692C102.667 15.268 102.923 16.052 102.923 17.044V22.5H100.523V17.844C100.523 17.1187 100.427 16.5853 100.235 16.244C100.043 15.9027 99.7018 15.732 99.2111 15.732C98.7098 15.732 98.3258 15.9133 98.0591 16.276C97.7925 16.6387 97.6591 17.1613 97.6591 17.844V22.5H95.2591V14.02H97.4191ZM108.085 22.116C107.36 22.116 106.72 21.9507 106.165 21.62C105.61 21.2787 105.178 20.804 104.869 20.196C104.57 19.5773 104.421 18.868 104.421 18.068C104.421 17.236 104.57 16.5 104.869 15.86C105.178 15.2093 105.61 14.708 106.165 14.356C106.72 14.004 107.36 13.828 108.085 13.828C108.629 13.828 109.12 13.9613 109.557 14.228C109.994 14.4947 110.325 14.8627 110.549 15.332V14.02H112.917V21.476C112.917 22.2227 112.736 22.8627 112.373 23.396C112.021 23.94 111.525 24.356 110.885 24.644C110.245 24.932 109.509 25.076 108.677 25.076C108.026 25.076 107.424 24.98 106.869 24.788C106.325 24.596 105.861 24.3187 105.477 23.956C105.104 23.5933 104.837 23.172 104.677 22.692L107.125 22.516C107.232 22.7933 107.424 23.012 107.701 23.172C107.989 23.3427 108.325 23.428 108.709 23.428C109.285 23.428 109.728 23.284 110.037 22.996C110.346 22.708 110.501 22.2813 110.501 21.716V20.804C110.288 21.1987 109.962 21.5187 109.525 21.764C109.088 21.9987 108.608 22.116 108.085 22.116ZM106.885 18.052C106.885 18.7773 107.056 19.364 107.397 19.812C107.738 20.2493 108.186 20.468 108.741 20.468C109.114 20.468 109.44 20.372 109.717 20.18C109.994 19.9773 110.208 19.6947 110.357 19.332C110.506 18.9693 110.581 18.5427 110.581 18.052C110.592 17.5613 110.522 17.1347 110.373 16.772C110.224 16.4093 110.01 16.132 109.733 15.94C109.456 15.7373 109.125 15.636 108.741 15.636C108.176 15.636 107.722 15.8547 107.381 16.292C107.05 16.7293 106.885 17.316 106.885 18.052ZM120.873 18.644C120.937 19.0493 121.076 19.4067 121.289 19.716C121.503 20.0147 121.785 20.2493 122.137 20.42C122.5 20.58 122.911 20.66 123.369 20.66C123.732 20.66 124.047 20.612 124.313 20.516C124.591 20.42 124.804 20.276 124.953 20.084C125.103 19.892 125.177 19.6627 125.177 19.396C125.177 18.98 124.985 18.644 124.601 18.388C124.217 18.1213 123.577 17.876 122.681 17.652C121.38 17.3427 120.377 16.916 119.673 16.372C118.98 15.828 118.633 15.1187 118.633 14.244C118.633 13.5613 118.815 12.9693 119.177 12.468C119.54 11.9667 120.047 11.5773 120.697 11.3C121.348 11.0227 122.1 10.884 122.953 10.884C123.785 10.884 124.527 11.044 125.177 11.364C125.828 11.684 126.351 12.1373 126.745 12.724C127.151 13.3 127.396 13.9667 127.481 14.724L125.049 14.852C125.007 14.4573 124.889 14.116 124.697 13.828C124.505 13.5293 124.255 13.3 123.945 13.14C123.636 12.98 123.284 12.9 122.889 12.9C122.356 12.9 121.919 13.028 121.577 13.284C121.247 13.54 121.097 13.8707 121.129 14.276C121.129 14.564 121.225 14.804 121.417 14.996C121.62 15.188 121.871 15.3427 122.169 15.46C122.468 15.5773 122.852 15.6947 123.321 15.812C123.364 15.8227 123.423 15.8387 123.497 15.86C124.82 16.148 125.844 16.58 126.569 17.156C127.295 17.7213 127.657 18.4413 127.657 19.316C127.657 20.0093 127.465 20.612 127.081 21.124C126.708 21.636 126.191 22.0253 125.529 22.292C124.868 22.5587 124.127 22.692 123.305 22.692C122.388 22.692 121.567 22.532 120.841 22.212C120.127 21.892 119.556 21.4333 119.129 20.836C118.713 20.2387 118.479 19.5453 118.425 18.756L120.873 18.644ZM129.093 18.26C129.093 17.3747 129.269 16.6013 129.621 15.94C129.983 15.268 130.495 14.7507 131.157 14.388C131.818 14.0147 132.581 13.828 133.445 13.828C134.234 13.828 134.943 14.0093 135.573 14.372C136.213 14.724 136.709 15.252 137.061 15.956C137.413 16.6493 137.589 17.476 137.589 18.436V18.884H131.605C131.647 19.5133 131.829 20.0093 132.149 20.372C132.469 20.7347 132.901 20.916 133.445 20.916C133.797 20.916 134.117 20.82 134.405 20.628C134.703 20.436 134.917 20.18 135.045 19.86L137.477 20.02C137.221 20.8413 136.725 21.492 135.989 21.972C135.263 22.452 134.415 22.692 133.445 22.692C132.581 22.692 131.818 22.5107 131.157 22.148C130.495 21.7747 129.983 21.2573 129.621 20.596C129.269 19.924 129.093 19.1453 129.093 18.26ZM135.157 17.428C135.093 16.82 134.906 16.3667 134.597 16.068C134.287 15.7587 133.903 15.604 133.445 15.604C132.933 15.604 132.517 15.7693 132.197 16.1C131.877 16.42 131.685 16.8627 131.621 17.428H135.157ZM141.422 14.02L141.486 16.516L141.31 16.436C141.438 15.6253 141.678 15.0227 142.03 14.628C142.382 14.2227 142.873 14.02 143.502 14.02H144.286V15.812H143.486C143.027 15.812 142.654 15.8867 142.366 16.036C142.078 16.1747 141.865 16.3933 141.726 16.692C141.598 16.98 141.534 17.348 141.534 17.796V22.5H139.134V14.02H141.422ZM151.178 22.5H148.378L145.242 14.02H147.722L149.786 20.1L151.85 14.02H154.314L151.178 22.5ZM154.843 18.26C154.843 17.3747 155.019 16.6013 155.371 15.94C155.733 15.268 156.245 14.7507 156.907 14.388C157.568 14.0147 158.331 13.828 159.195 13.828C159.984 13.828 160.693 14.0093 161.323 14.372C161.963 14.724 162.459 15.252 162.811 15.956C163.163 16.6493 163.339 17.476 163.339 18.436V18.884H157.355C157.397 19.5133 157.579 20.0093 157.899 20.372C158.219 20.7347 158.651 20.916 159.195 20.916C159.547 20.916 159.867 20.82 160.155 20.628C160.453 20.436 160.667 20.18 160.795 19.86L163.227 20.02C162.971 20.8413 162.475 21.492 161.739 21.972C161.013 22.452 160.165 22.692 159.195 22.692C158.331 22.692 157.568 22.5107 156.907 22.148C156.245 21.7747 155.733 21.2573 155.371 20.596C155.019 19.924 154.843 19.1453 154.843 18.26ZM160.907 17.428C160.843 16.82 160.656 16.3667 160.347 16.068C160.037 15.7587 159.653 15.604 159.195 15.604C158.683 15.604 158.267 15.7693 157.947 16.1C157.627 16.42 157.435 16.8627 157.371 17.428H160.907ZM167.172 14.02L167.236 16.516L167.06 16.436C167.188 15.6253 167.428 15.0227 167.78 14.628C168.132 14.2227 168.623 14.02 169.252 14.02H170.036V15.812H169.236C168.777 15.812 168.404 15.8867 168.116 16.036C167.828 16.1747 167.615 16.3933 167.476 16.692C167.348 16.98 167.284 17.348 167.284 17.796V22.5H164.884V14.02H167.172ZM176.19 16.772C176.126 16.388 175.945 16.0787 175.646 15.844C175.358 15.6093 175.027 15.492 174.654 15.492C174.27 15.492 173.955 15.5827 173.71 15.764C173.475 15.9453 173.363 16.1907 173.374 16.5C173.385 16.788 173.529 17.012 173.806 17.172C174.094 17.3213 174.473 17.444 174.942 17.54C175.817 17.6787 176.521 17.8547 177.054 18.068C177.587 18.2707 177.987 18.5427 178.254 18.884C178.521 19.2147 178.654 19.6467 178.654 20.18C178.654 20.724 178.494 21.188 178.174 21.572C177.865 21.9453 177.422 22.228 176.846 22.42C176.281 22.6013 175.63 22.692 174.894 22.692C174.073 22.692 173.353 22.58 172.734 22.356C172.115 22.1213 171.63 21.7907 171.278 21.364C170.937 20.9267 170.745 20.4093 170.702 19.812L173.118 19.7C173.171 19.9773 173.273 20.212 173.422 20.404C173.571 20.596 173.763 20.7453 173.998 20.852C174.243 20.9587 174.521 21.012 174.83 21.012C175.193 21.012 175.507 20.9373 175.774 20.788C176.051 20.6387 176.19 20.42 176.19 20.132C176.19 19.9293 176.131 19.7693 176.014 19.652C175.897 19.5347 175.742 19.4387 175.55 19.364C175.369 19.2893 175.139 19.2253 174.862 19.172C174.777 19.14 174.67 19.1133 174.542 19.092C173.689 18.932 173.006 18.7507 172.494 18.548C171.982 18.3453 171.587 18.084 171.31 17.764C171.043 17.4333 170.91 17.012 170.91 16.5C170.91 15.9453 171.059 15.4653 171.358 15.06C171.657 14.6547 172.094 14.3453 172.67 14.132C173.246 13.9187 173.939 13.812 174.75 13.812C175.806 13.812 176.675 14.068 177.358 14.58C178.041 15.092 178.451 15.7907 178.59 16.676L176.19 16.772Z" fill="#09090B"/>
<path d="M55.032 39.25V30.73H58.02C60.132 30.73 61.188 31.498 61.188 33.094C61.188 34.066 60.6 34.714 59.604 34.846C60.84 34.978 61.548 35.71 61.548 36.838C61.548 38.398 60.468 39.25 58.5 39.25H55.032ZM56.328 38.086H58.512C59.58 38.086 60.216 37.63 60.216 36.79C60.216 35.938 59.58 35.47 58.512 35.47H56.328V38.086ZM56.328 34.366H58.068C59.208 34.366 59.856 33.934 59.856 33.142C59.856 32.314 59.244 31.894 58.068 31.894H56.328V34.366ZM62.5023 32.89H63.7863L65.5863 37.906L67.3383 32.89H68.6223L66.0663 39.994C65.8143 40.714 65.3223 41.05 64.5303 41.05H63.6063V40.018H64.3623C64.6983 40.018 64.8783 39.898 64.9983 39.586L65.2023 39.058H64.8183L62.5023 32.89ZM76.3851 39.442C73.8651 39.442 72.2811 37.534 72.2811 35.002C72.2811 32.47 73.8651 30.538 76.3851 30.538C78.9051 30.538 80.5011 32.47 80.5011 35.002C80.5011 36.502 79.9371 37.798 78.9531 38.59L80.0691 39.994H78.6531L77.9811 39.154C77.5131 39.334 76.9731 39.442 76.3851 39.442ZM74.1531 35.002C74.1531 36.55 74.8491 37.906 76.3851 37.906C76.5771 37.906 76.7571 37.882 76.9251 37.834L75.7611 36.37H77.1651L77.8491 37.234C78.3651 36.718 78.6171 35.902 78.6171 35.002C78.6171 33.442 77.9331 32.074 76.3851 32.074C74.8371 32.074 74.1531 33.442 74.1531 35.002ZM87.4806 39.25H85.8366L85.8006 38.254C85.4526 39.082 84.7566 39.394 83.9286 39.394C82.5726 39.394 81.7686 38.458 81.7686 36.982V32.89H83.5686V36.382C83.5686 37.402 83.7846 37.966 84.5286 37.966C85.2726 37.966 85.6806 37.402 85.6806 36.382V32.89H87.4806V39.25ZM88.8533 34.858C89.0933 33.502 90.1373 32.746 91.8053 32.746C93.7373 32.746 94.7333 33.694 94.7333 35.506V37.51C94.7333 37.93 94.9013 38.026 95.1293 38.026H95.3573V39.25L95.0453 39.262C94.6253 39.274 93.3893 39.394 93.2213 38.278C92.8973 38.938 92.1893 39.394 91.0253 39.394C89.7293 39.394 88.7453 38.698 88.7453 37.57C88.7453 36.394 89.6213 35.95 91.1573 35.65L92.9093 35.29C92.8973 34.366 92.5493 33.922 91.7933 33.922C91.1813 33.922 90.7973 34.27 90.6533 34.942L88.8533 34.858ZM90.5933 37.51C90.5933 37.918 90.9293 38.23 91.5893 38.23C92.3693 38.218 92.9333 37.642 92.9333 36.49V36.406L91.8893 36.598C91.1333 36.742 90.5933 36.862 90.5933 37.51ZM96.4522 32.89H98.0722L98.1082 33.898C98.4562 33.058 99.1642 32.746 100.016 32.746C101.396 32.746 102.2 33.682 102.2 35.158V39.25H100.4V35.758C100.4 34.738 100.172 34.174 99.4162 34.174C98.6602 34.174 98.2522 34.738 98.2522 35.758V39.25H96.4522V32.89ZM104.321 31.438H106.133V32.89H107.789V34.222H106.133V37.174C106.133 37.642 106.373 37.906 106.829 37.906H107.801V39.25H106.445C105.041 39.25 104.321 38.554 104.321 37.174V34.222H103.289V32.89H104.321V31.438ZM108.464 30.73H110.348L112.616 37.186L114.86 30.73H116.756L113.672 39.25H111.548L108.464 30.73ZM121.179 30.73C123.219 30.73 124.455 31.786 124.455 33.514C124.455 35.242 123.219 36.31 121.179 36.31H119.595V39.25H117.771V30.73H121.179ZM119.595 34.774H121.071C122.031 34.774 122.583 34.342 122.583 33.514C122.583 32.686 122.031 32.266 121.071 32.266H119.595V34.774ZM127.382 36.358C127.538 37.27 128.186 37.87 129.254 37.87C130.07 37.87 130.622 37.546 130.61 36.922C130.598 36.298 130.07 35.938 128.738 35.614C126.89 35.17 125.702 34.426 125.702 33.058C125.702 31.51 126.998 30.538 128.942 30.538C130.838 30.538 132.134 31.702 132.338 33.418L130.514 33.514C130.418 32.614 129.794 32.05 128.894 32.05C128.102 32.05 127.538 32.458 127.574 33.082C127.598 33.802 128.438 34.042 129.35 34.27C131.258 34.69 132.47 35.506 132.47 36.862C132.47 38.482 131.042 39.394 129.206 39.394C127.13 39.394 125.666 38.242 125.546 36.442L127.382 36.358ZM133.312 37.474H135.232V39.25H133.312V37.474ZM140.683 35.326C140.575 34.558 140.071 34.126 139.435 34.126C138.535 34.126 138.019 34.834 138.019 36.07C138.019 37.306 138.535 38.014 139.435 38.014C140.107 38.014 140.611 37.582 140.719 36.754L142.579 36.826C142.411 38.41 141.127 39.394 139.435 39.394C137.455 39.394 136.171 38.074 136.171 36.07C136.171 34.066 137.455 32.746 139.435 32.746C141.079 32.746 142.363 33.694 142.531 35.242L140.683 35.326ZM146.642 39.394C144.674 39.394 143.378 38.086 143.378 36.07C143.378 34.054 144.674 32.746 146.642 32.746C148.61 32.746 149.906 34.054 149.906 36.07C149.906 38.086 148.61 39.394 146.642 39.394ZM145.226 36.07C145.226 37.306 145.742 38.014 146.642 38.014C147.542 38.014 148.046 37.306 148.046 36.07C148.046 34.834 147.542 34.126 146.642 34.126C145.742 34.126 145.226 34.834 145.226 36.07ZM151.062 32.89H152.682L152.718 33.898C153.042 33.166 153.678 32.746 154.494 32.746C155.382 32.746 156.018 33.226 156.306 34.054C156.63 33.19 157.29 32.746 158.166 32.746C159.45 32.746 160.278 33.574 160.278 35.158V39.25H158.478V35.758C158.478 34.702 158.178 34.174 157.578 34.174C156.834 34.174 156.462 34.726 156.462 35.758V39.25H154.866V35.758C154.866 34.702 154.578 34.174 153.966 34.174C153.234 34.174 152.862 34.726 152.862 35.758V39.25H151.062V32.89Z" fill="#262626" fill-opacity="0.4"/>
<defs>
<filter id="filter0_d_264_565" x="0" y="0.5" width="52" height="52" filterUnits="userSpaceOnUse" color-interpolation-filters="sRGB">
<feFlood flood-opacity="0" result="BackgroundImageFix"/>
<feColorMatrix in="SourceAlpha" type="matrix" values="0 0 0 0 0 0 0 0 0 0 0 0 0 0 0 0 0 0 127 0" result="hardAlpha"/>
<feOffset dy="2"/>
<feGaussianBlur stdDeviation="5"/>
<feComposite in2="hardAlpha" operator="out"/>
<feColorMatrix type="matrix" values="0 0 0 0 0 0 0 0 0 0 0 0 0 0 0 0 0 0 0.1 0"/>
<feBlend mode="normal" in2="BackgroundImageFix" result="effect1_dropShadow_264_565"/>
<feBlend mode="normal" in="SourceGraphic" in2="effect1_dropShadow_264_565" result="shape"/>
</filter>
<filter id="filter1_dii_264_565" x="9" y="7.5" width="34" height="39" filterUnits="userSpaceOnUse" color-interpolation-filters="sRGB">
<feFlood flood-opacity="0" result="BackgroundImageFix"/>
<feColorMatrix in="SourceAlpha" type="matrix" values="0 0 0 0 0 0 0 0 0 0 0 0 0 0 0 0 0 0 127 0" result="hardAlpha"/>
<feMorphology radius="1" operator="dilate" in="SourceAlpha" result="effect1_dropShadow_264_565"/>
<feOffset/>
<feComposite in2="hardAlpha" operator="out"/>
<feColorMatrix type="matrix" values="0 0 0 0 0 0 0 0 0 0 0 0 0 0 0 0 0 0 0.1 0"/>
<feBlend mode="normal" in2="BackgroundImageFix" result="effect1_dropShadow_264_565"/>
<feBlend mode="normal" in="SourceGraphic" in2="effect1_dropShadow_264_565" result="shape"/>
<feColorMatrix in="SourceAlpha" type="matrix" values="0 0 0 0 0 0 0 0 0 0 0 0 0 0 0 0 0 0 127 0" result="hardAlpha"/>
<feOffset dy="6"/>
<feGaussianBlur stdDeviation="3.5"/>
<feComposite in2="hardAlpha" operator="arithmetic" k2="-1" k3="1"/>
<feColorMatrix type="matrix" values="0 0 0 0 1 0 0 0 0 1 0 0 0 0 1 0 0 0 0.1 0"/>
<feBlend mode="normal" in2="shape" result="effect2_innerShadow_264_565"/>
<feColorMatrix in="SourceAlpha" type="matrix" values="0 0 0 0 0 0 0 0 0 0 0 0 0 0 0 0 0 0 127 0" result="hardAlpha"/>
<feOffset dy="1"/>
<feGaussianBlur stdDeviation="1"/>
<feComposite in2="hardAlpha" operator="arithmetic" k2="-1" k3="1"/>
<feColorMatrix type="matrix" values="0 0 0 0 1 0 0 0 0 1 0 0 0 0 1 0 0 0 0.2 0"/>
<feBlend mode="normal" in2="effect2_innerShadow_264_565" result="effect3_innerShadow_264_565"/>
</filter>
</defs>
</svg>
