<svg width="16" height="17" viewBox="0 0 16 17" fill="none" xmlns="http://www.w3.org/2000/svg">
<path fill-rule="evenodd" clip-rule="evenodd" d="M5.82804 2.32226C3.30641 3.21598 1.5 5.6226 1.5 8.45066C1.5 12.0405 4.41015 14.9507 8 14.9507C10.8282 14.9507 13.2348 13.1442 14.1285 10.6224C13.3293 10.9933 12.4386 11.2005 11.5 11.2005C8.04822 11.2005 5.25 8.40228 5.25 4.9505C5.25 4.012 5.45718 3.12134 5.82804 2.32226ZM0 8.45066C0 4.23324 3.26298 0.778635 7.40265 0.472656L8.009 1.72937C7.22684 2.57657 6.75 3.707 6.75 4.9505C6.75 7.57385 8.87665 9.7005 11.5 9.7005C12.7436 9.7005 13.8741 9.2236 14.7213 8.44135L15.978 9.04764C15.6722 13.1875 12.2175 16.4507 8 16.4507C3.58172 16.4507 0 12.869 0 8.45066Z" fill="#666666"/>
</svg>
