<svg width="14" height="16" viewBox="0 0 14 16" fill="none" xmlns="http://www.w3.org/2000/svg">
<g clip-path="url(#clip0_491_2177)">
<path d="M7.02062 1.20765C8.85499 1.81515 10.7378 2.53046 12.3478 3.15484C12.4596 3.88765 12.6131 5.14453 12.6425 6.6639C12.6684 8.39454 12.5253 9.34921 12.4618 9.68203C12.329 10.1405 12.0503 10.6386 11.6334 11.1624C11.139 11.783 10.4659 12.4283 9.6328 13.0799C9.63218 13.0802 9.63155 13.0808 9.63124 13.0811C8.44718 14.0105 7.35093 14.6096 7.02062 14.7821C6.6903 14.6099 5.5953 14.0121 4.41187 13.0833L4.4103 13.0821C3.57749 12.4308 2.90468 11.7858 2.41124 11.1655C2.0153 10.6677 1.74405 10.1927 1.60405 9.75359C1.6003 9.7389 1.59624 9.72422 1.59155 9.70922C1.52905 9.49765 1.32811 8.64546 1.35843 6.54797C1.39155 5.21172 1.51405 4.01796 1.7053 3.14671C3.3103 2.52516 5.18749 1.81327 7.02062 1.20765ZM7.02062 0.00390625C6.92655 0.00390625 6.83218 0.0189062 6.74061 0.0492187C4.94343 0.639844 3.09999 1.33265 1.2253 2.0589C0.973117 2.15671 0.761554 2.33765 0.624054 2.55765C0.634679 2.5589 0.238742 3.79484 0.171242 6.52453C0.131242 9.25453 0.471242 10.0724 0.459992 10.0733C0.644054 10.6733 0.988429 11.2836 1.48186 11.9043C2.03343 12.5974 2.77874 13.3133 3.67905 14.0171C5.16936 15.1868 6.56405 15.8858 6.62249 15.9105C6.74874 15.9724 6.8828 16.0036 7.02093 16.0036C7.15937 16.0036 7.29374 15.9721 7.41999 15.9099C7.47874 15.8852 8.87499 15.1839 10.3646 14.0146C11.2653 13.3102 12.0106 12.5943 12.5625 11.9014C13.0912 11.2368 13.4487 10.5846 13.6215 9.9439C13.6146 9.94296 13.8646 8.94046 13.83 6.64328C13.7859 4.34641 13.4659 2.65234 13.4703 2.65078C13.3371 2.39109 13.1037 2.1739 12.8181 2.06296C10.9431 1.3364 9.09937 0.642344 7.30187 0.0498437C7.20968 0.0195312 7.11499 0.00390625 7.02062 0.00390625Z" fill="#334155"/>
</g>
<defs>
<clipPath id="clip0_491_2177">
<rect width="14" height="16" fill="white"/>
</clipPath>
</defs>
</svg>
