<svg width="20" height="20" viewBox="0 0 20 20" fill="none" xmlns="http://www.w3.org/2000/svg">
<path d="M2.85547 9.65039C2.85547 11.0596 3.27334 12.4371 4.05625 13.6088C4.83915 14.7805 5.95193 15.6938 7.25385 16.233C8.55577 16.7723 9.98837 16.9134 11.3705 16.6385C12.7526 16.3636 14.0222 15.685 15.0186 14.6885C16.0151 13.6921 16.6936 12.4225 16.9686 11.0404C17.2435 9.65829 17.1024 8.22569 16.5631 6.92377C16.0238 5.62185 15.1106 4.50907 13.9389 3.72617C12.7672 2.94326 11.3897 2.52539 9.98047 2.52539C7.9886 2.53288 6.07674 3.31011 4.64464 4.69456L2.85547 6.48372" stroke="#F5F5F5" stroke-width="1.75" stroke-linecap="round" stroke-linejoin="round"/>
<path d="M2.85547 2.52539V6.48372H6.8138" stroke="#F5F5F5" stroke-width="1.75" stroke-linecap="round" stroke-linejoin="round"/>
</svg>
