<svg width="16" height="16" viewBox="0 0 16 16" fill="none" xmlns="http://www.w3.org/2000/svg">
<mask id="mask0_32_5122" style="mask-type:luminance" maskUnits="userSpaceOnUse" x="0" y="1" width="16" height="13">
<path d="M16 1.26172H0V13.9304H16V1.26172Z" fill="white"/>
</mask>
<g mask="url(#mask0_32_5122)">
<path d="M14.2491 11.0487V9.29688H13.0956V11.0487H11.3438V12.0909H13.0956V13.8427H14.2491V12.0909H16.0003V11.0487H14.2491Z" fill="white"/>
<path d="M4.36626 9.90112C4.33392 9.87182 3.90732 9.43842 3.90732 9.43842C3.83954 9.41478 3.76989 9.40234 3.69962 9.40234C3.68967 9.40234 3.68034 9.40234 3.67102 9.40297C3.42414 9.41292 3.07402 9.4608 2.80351 9.63492C1.66736 10.3706 1.21029 11.6734 0.849609 12.957C2.26497 12.5925 3.19839 12.118 3.86877 11.4234C4.21763 11.0621 4.44524 10.712 4.42409 10.1766C4.42036 10.0802 4.40046 9.98752 4.36626 9.90112Z" fill="white"/>
<path d="M12.6438 2.95506L10.9511 1.26172L7.67632 1.50611L4.5757 4.60611L4.56512 4.61669L4.5502 4.61918L0 5.35111L2.42279 7.77328L2.92402 7.27144L2.95698 7.23848L2.98994 7.27144L6.63407 10.9156L6.66703 10.9485L6.63407 10.9815L6.12041 11.4946L8.55629 13.9304L9.27453 9.36837L9.27697 9.35282L12.3994 6.23043L12.6438 2.95506ZM11.729 3.31636L11.5418 5.81938L11.5406 5.83679L11.5288 5.84923L7.20867 10.1699L7.17571 10.2029L7.14275 10.1699L3.73741 6.76462L3.70445 6.73166L3.73741 6.6987L8.05752 2.37797L8.06996 2.36616L8.08675 2.36429L10.5904 2.17773L10.6115 2.17587L10.6264 2.19079L11.716 3.27967L11.7309 3.29522L11.729 3.31636Z" fill="white"/>
<path d="M8.58726 4.17969C7.95977 4.17969 7.44922 4.69024 7.44922 5.3177C7.44922 5.94517 7.95977 6.45572 8.58726 6.45572C9.21471 6.45572 9.72528 5.94517 9.72528 5.3177C9.72528 4.69024 9.21471 4.17969 8.58726 4.17969Z" fill="white"/>
</g>
</svg>
