<svg width="16" height="17" viewBox="0 0 16 17" fill="none" xmlns="http://www.w3.org/2000/svg">
<path d="M7.9987 9.16634C8.36689 9.16634 8.66536 8.86786 8.66536 8.49967C8.66536 8.13148 8.36689 7.83301 7.9987 7.83301C7.63051 7.83301 7.33203 8.13148 7.33203 8.49967C7.33203 8.86786 7.63051 9.16634 7.9987 9.16634Z" fill="#171717" stroke="#171717" stroke-linecap="round" stroke-linejoin="round"/>
<path d="M12.6667 9.16634C13.0349 9.16634 13.3333 8.86786 13.3333 8.49967C13.3333 8.13148 13.0349 7.83301 12.6667 7.83301C12.2985 7.83301 12 8.13148 12 8.49967C12 8.86786 12.2985 9.16634 12.6667 9.16634Z" fill="#171717" stroke="#171717" stroke-linecap="round" stroke-linejoin="round"/>
<path d="M3.33464 9.16634C3.70283 9.16634 4.0013 8.86786 4.0013 8.49967C4.0013 8.13148 3.70283 7.83301 3.33464 7.83301C2.96645 7.83301 2.66797 8.13148 2.66797 8.49967C2.66797 8.86786 2.96645 9.16634 3.33464 9.16634Z" fill="#171717" stroke="#171717" stroke-linecap="round" stroke-linejoin="round"/>
</svg>
