<svg width="12" height="14" viewBox="0 0 12 14" fill="none" xmlns="http://www.w3.org/2000/svg">
<path d="M10 13.6653H2C1.46957 13.6653 0.96086 13.4546 0.58579 13.0795C0.21071 12.7045 0 12.1958 0 11.6653V2.33203C0 1.80159 0.21071 1.29289 0.58579 0.917811C0.96086 0.542741 1.46957 0.332031 2 0.332031H10C10.5304 0.332031 11.0391 0.542741 11.4142 0.917811C11.7893 1.29289 12 1.80159 12 2.33203V11.6653C12 12.1958 11.7893 12.7045 11.4142 13.0795C11.0391 13.4546 10.5304 13.6653 10 13.6653ZM2 1.66536C1.82319 1.66536 1.65362 1.7356 1.5286 1.86062C1.40357 1.98565 1.33333 2.15522 1.33333 2.33203V11.6653C1.33333 11.8421 1.40357 12.0117 1.5286 12.1367C1.65362 12.2618 1.82319 12.332 2 12.332H10C10.1768 12.332 10.3464 12.2618 10.4714 12.1367C10.5964 12.0117 10.6667 11.8421 10.6667 11.6653V2.33203C10.6667 2.15522 10.5964 1.98565 10.4714 1.86062C10.3464 1.7356 10.1768 1.66536 10 1.66536H2Z" fill="#334155"/>
<path d="M5.99739 3.9974H3.33072C3.15391 3.9974 2.98434 3.92716 2.85932 3.80213C2.7343 3.67711 2.66406 3.50754 2.66406 3.33073C2.66406 3.15392 2.7343 2.98435 2.85932 2.85932C2.98434 2.7343 3.15391 2.66406 3.33072 2.66406H5.99739C6.1742 2.66406 6.34377 2.7343 6.46879 2.85932C6.59382 2.98435 6.66406 3.15392 6.66406 3.33073C6.66406 3.50754 6.59382 3.67711 6.46879 3.80213C6.34377 3.92716 6.1742 3.9974 5.99739 3.9974Z" fill="#334155"/>
<path d="M8.66407 6.44661H3.33072C3.15391 6.44661 2.98434 6.37638 2.85932 6.25135C2.7343 6.12633 2.66406 5.95676 2.66406 5.77995C2.66406 5.60314 2.7343 5.43357 2.85932 5.30854C2.98434 5.18352 3.15391 5.11328 3.33072 5.11328H8.66407C8.84087 5.11328 9.01047 5.18352 9.13547 5.30854C9.26047 5.43357 9.33077 5.60314 9.33077 5.77995C9.33077 5.95676 9.26047 6.12633 9.13547 6.25135C9.01047 6.37638 8.84087 6.44661 8.66407 6.44661Z" fill="#334155"/>
<path d="M8.66407 8.88411H3.33072C3.15391 8.88411 2.98434 8.81388 2.85932 8.68885C2.7343 8.56383 2.66406 8.39426 2.66406 8.21745C2.66406 8.04064 2.7343 7.87107 2.85932 7.74604C2.98434 7.62102 3.15391 7.55078 3.33072 7.55078H8.66407C8.84087 7.55078 9.01047 7.62102 9.13547 7.74604C9.26047 7.87107 9.33077 8.04064 9.33077 8.21745C9.33077 8.39426 9.26047 8.56383 9.13547 8.68885C9.01047 8.81388 8.84087 8.88411 8.66407 8.88411Z" fill="#334155"/>
<path d="M8.66407 11.3333H3.33072C3.15391 11.3333 2.98434 11.2631 2.85932 11.1381C2.7343 11.013 2.66406 10.8435 2.66406 10.6667C2.66406 10.4899 2.7343 10.3203 2.85932 10.1953C2.98434 10.0702 3.15391 10 3.33072 10H8.66407C8.84087 10 9.01047 10.0702 9.13547 10.1953C9.26047 10.3203 9.33077 10.4899 9.33077 10.6667C9.33077 10.8435 9.26047 11.013 9.13547 11.1381C9.01047 11.2631 8.84087 11.3333 8.66407 11.3333Z" fill="#334155"/>
</svg>
