<svg width="11" height="11" viewBox="0 0 11 11" fill="none" xmlns="http://www.w3.org/2000/svg">
<path d="M5.46365 9.14062C3.3199 9.14062 1.57476 7.39549 1.57476 5.25174C1.57476 3.10799 3.3199 1.36285 5.46365 1.36285C7.6074 1.36285 9.35257 3.10799 9.35257 5.25174C9.35257 7.39549 7.6074 9.14062 5.46365 9.14062ZM5.46365 10.1128C8.14698 10.1128 10.3248 7.93507 10.3248 5.25174C10.3248 2.5684 8.14698 0.390625 5.46365 0.390625C2.78032 0.390625 0.602539 2.5684 0.602539 5.25174C0.602539 7.93507 2.78032 10.1128 5.46365 10.1128ZM4.97754 5.25174V7.19618H5.94976V5.25174H7.40809L5.46365 3.30729L3.5192 5.25174H4.97754Z" fill="#1C77FF"/>
</svg>
