<svg width="11" height="9" viewBox="0 0 11 9" fill="none" xmlns="http://www.w3.org/2000/svg">
<path fill-rule="evenodd" clip-rule="evenodd" d="M2.76503 2.27859C4.205 0.606353 6.79519 0.606353 8.23516 2.27859L10.1478 4.49967L9.39573 5.37302L10.1018 6.13345L11.219 4.83613V4.16322L9.01664 1.60568C7.16521 -0.544341 3.83498 -0.544339 1.98358 1.60568L-0.21875 4.16322V4.83613L1.98358 7.39364C3.25484 8.86998 5.22335 9.3326 6.93159 8.7815L6.13141 7.91979C4.92785 8.13188 3.63603 7.73223 2.76503 6.72078L0.852429 4.49967L2.76503 2.27859ZM5.50008 3.12468C4.74069 3.12468 4.12508 3.74029 4.12508 4.49968C4.12508 5.25907 4.74069 5.87468 5.50008 5.87468C6.25947 5.87468 6.87508 5.25907 6.87508 4.49968C6.87508 3.74029 6.25947 3.12468 5.50008 3.12468ZM3.09383 4.49968C3.09383 3.17074 4.17114 2.09343 5.50008 2.09343C6.82902 2.09343 7.90633 3.17074 7.90633 4.49968C7.90633 4.93616 7.79014 5.3455 7.58692 5.69843L9.65918 7.9301L10.01 8.30795L9.25431 9.00961L8.90348 8.63176L6.89041 6.46387C6.49778 6.7423 6.01804 6.90593 5.50008 6.90593C4.17114 6.90593 3.09383 5.82862 3.09383 4.49968Z" fill="#666666"/>
</svg>
