<svg width="51" height="129" viewBox="0 0 51 129" fill="none" xmlns="http://www.w3.org/2000/svg">
<mask id="path-1-outside-1_3247_23962" maskUnits="userSpaceOnUse" x="-1" y="-0.231934" width="53" height="130" fill="black">
<rect fill="white" x="-1" y="-0.231934" width="53" height="130"/>
<path d="M27.4585 128.768V41.1081H0.0984691V23.2881H11.0785C26.3785 23.2881 32.3185 17.8881 32.3185 0.96806H50.8585V128.768H27.4585Z"/>
</mask>
<path d="M27.4585 128.768H26.4585V129.768H27.4585V128.768ZM27.4585 41.1081H28.4585V40.1081H27.4585V41.1081ZM0.098465 41.1081H-0.901535V42.1081H0.098465V41.1081ZM0.098465 23.2881V22.2881H-0.901535V23.2881H0.098465ZM32.3185 0.96806V-0.0319405H31.3185V0.96806H32.3185ZM50.8585 0.96806H51.8585V-0.0319405H50.8585V0.96806ZM50.8585 128.768V129.768H51.8585V128.768H50.8585ZM28.4585 128.768V41.1081H26.4585V128.768H28.4585ZM27.4585 40.1081H0.098465V42.1081H27.4585V40.1081ZM1.09846 41.1081V23.2881H-0.901535V41.1081H1.09846ZM0.098465 24.2881H11.0785V22.2881H0.098465V24.2881ZM11.0785 24.2881C18.7984 24.2881 24.4603 22.9362 28.15 19.1732C31.8328 15.4172 33.3185 9.4946 33.3185 0.96806H31.3185C31.3185 9.36152 29.8341 14.5989 26.7219 17.7729C23.6167 20.9399 18.6585 22.2881 11.0785 22.2881V24.2881ZM32.3185 1.96806H50.8585V-0.0319405H32.3185V1.96806ZM49.8585 0.96806V128.768H51.8585V0.96806H49.8585ZM50.8585 127.768H27.4585V129.768H50.8585V127.768Z" fill="url(#paint0_linear_3247_23962)" fill-opacity="0.7" mask="url(#path-1-outside-1_3247_23962)"/>
<defs>
<linearGradient id="paint0_linear_3247_23962" x1="31.6666" y1="-273.034" x2="31.6666" y2="95.892" gradientUnits="userSpaceOnUse">
<stop stop-color="white"/>
<stop offset="1" stop-color="white" stop-opacity="0"/>
</linearGradient>
</defs>
</svg>
