<svg width="50" height="25" viewBox="0 0 50 25" fill="none" xmlns="http://www.w3.org/2000/svg">
<path opacity="0.71" d="M2.30575 5.024C4.86575 5.024 6.01775 3.872 6.01775 1.28H8.73775V24H5.28175V7.808H0.481749V5.024H2.30575ZM22.4418 24.512C16.7458 24.512 13.2258 19.904 13.2258 12.672C13.2258 5.408 16.7458 0.768 22.4418 0.768C28.2018 0.768 31.6898 5.408 31.6898 12.672C31.6898 19.904 28.2018 24.512 22.4418 24.512ZM16.8098 12.672C16.8098 18.24 18.8578 21.344 22.4418 21.344C26.0898 21.344 28.1058 18.24 28.1058 12.672C28.1058 7.072 26.0898 3.936 22.4418 3.936C18.8578 3.936 16.8098 7.072 16.8098 12.672ZM34.0805 13.184H40.2245V7.04H43.2005V13.184H49.3125V16.128H43.2005V22.272H40.2245V16.128H34.0805V13.184Z" fill="white"/>
</svg>
