<svg width="89" height="25" viewBox="0 0 89 25" fill="none" xmlns="http://www.w3.org/2000/svg">
<path opacity="0.71" d="M2.63325 5.024C5.19325 5.024 6.34525 3.872 6.34525 1.28H9.06525V24H5.60925V7.808H0.809249V5.024H2.63325ZM22.7692 24.512C17.0732 24.512 13.5532 19.904 13.5532 12.672C13.5532 5.408 17.0732 0.768 22.7692 0.768C28.5293 0.768 32.0173 5.408 32.0173 12.672C32.0173 19.904 28.5293 24.512 22.7692 24.512ZM17.1372 12.672C17.1372 18.24 19.1852 21.344 22.7692 21.344C26.4172 21.344 28.4333 18.24 28.4333 12.672C28.4333 7.072 26.4172 3.936 22.7692 3.936C19.1852 3.936 17.1372 7.072 17.1372 12.672ZM43.848 24.512C38.152 24.512 34.632 19.904 34.632 12.672C34.632 5.408 38.152 0.768 43.848 0.768C49.608 0.768 53.096 5.408 53.096 12.672C53.096 19.904 49.608 24.512 43.848 24.512ZM38.216 12.672C38.216 18.24 40.264 21.344 43.848 21.344C47.496 21.344 49.512 18.24 49.512 12.672C49.512 7.072 47.496 3.936 43.848 3.936C40.264 3.936 38.216 7.072 38.216 12.672ZM55.885 1.28H59.277V15.424L66.797 7.04H71.181L64.525 14.144L71.469 24H67.533L62.253 16.288L59.277 19.52V24H55.885V1.28ZM73.753 13.184H79.897V7.04H82.873V13.184H88.985V16.128H82.873V22.272H79.897V16.128H73.753V13.184Z" fill="url(#paint0_linear_3247_18751)"/>
<defs>
<linearGradient id="paint0_linear_3247_18751" x1="48.0847" y1="-5.2" x2="55.6296" y2="69.6005" gradientUnits="userSpaceOnUse">
<stop stop-color="white"/>
<stop offset="1" stop-color="white" stop-opacity="0"/>
</linearGradient>
</defs>
</svg>
