<svg width="96" height="25" viewBox="0 0 96 25" fill="none" xmlns="http://www.w3.org/2000/svg">
<path opacity="0.71" d="M2.4145 5.024C4.9745 5.024 6.1265 3.872 6.1265 1.28H8.8465V24H5.3905V7.808H0.590499V5.024H2.4145ZM22.5505 24.512C16.8545 24.512 13.3345 19.904 13.3345 12.672C13.3345 5.408 16.8545 0.768 22.5505 0.768C28.3105 0.768 31.7985 5.408 31.7985 12.672C31.7985 19.904 28.3105 24.512 22.5505 24.512ZM16.9185 12.672C16.9185 18.24 18.9665 21.344 22.5505 21.344C26.1985 21.344 28.2145 18.24 28.2145 12.672C28.2145 7.072 26.1985 3.936 22.5505 3.936C18.9665 3.936 16.9185 7.072 16.9185 12.672ZM43.6293 24.512C37.9333 24.512 34.4133 19.904 34.4133 12.672C34.4133 5.408 37.9333 0.768 43.6293 0.768C49.3893 0.768 52.8773 5.408 52.8773 12.672C52.8773 19.904 49.3893 24.512 43.6293 24.512ZM37.9973 12.672C37.9973 18.24 40.0453 21.344 43.6293 21.344C47.2773 21.344 49.2933 18.24 49.2933 12.672C49.2933 7.072 47.2773 3.936 43.6293 3.936C40.0453 3.936 37.9973 7.072 37.9973 12.672ZM73.06 0.768H76.708L60.132 24.384H56.484L73.06 0.768ZM55.268 6.784C55.268 3.648 57.412 1.248 60.068 1.248C62.724 1.248 64.868 3.648 64.868 6.784C64.868 9.888 62.724 12.288 60.068 12.288C57.412 12.288 55.268 9.888 55.268 6.784ZM57.988 6.784C57.988 8.64 58.788 9.792 60.068 9.792C61.348 9.792 62.18 8.64 62.18 6.784C62.18 4.928 61.348 3.744 60.068 3.744C58.788 3.744 57.988 4.928 57.988 6.784ZM68.196 18.464C68.196 15.36 70.34 12.96 72.996 12.96C75.652 12.96 77.796 15.36 77.796 18.464C77.796 21.6 75.652 24 72.996 24C70.34 24 68.196 21.6 68.196 18.464ZM70.916 18.464C70.916 20.32 71.716 21.504 72.996 21.504C74.276 21.504 75.076 20.32 75.076 18.464C75.076 16.608 74.276 15.456 72.996 15.456C71.716 15.456 70.916 16.608 70.916 18.464ZM79.9718 13.184H86.1158V7.04H89.0918V13.184H95.2038V16.128H89.0918V22.272H86.1158V16.128H79.9718V13.184Z" fill="url(#paint0_linear_3247_18754)"/>
<defs>
<linearGradient id="paint0_linear_3247_18754" x1="51.0847" y1="-5.2" x2="58.6296" y2="69.6005" gradientUnits="userSpaceOnUse">
<stop stop-color="white"/>
<stop offset="1" stop-color="white" stop-opacity="0"/>
</linearGradient>
</defs>
</svg>
