<svg width="97" height="133" viewBox="0 0 97 133" fill="none" xmlns="http://www.w3.org/2000/svg">
<path fill-rule="evenodd" clip-rule="evenodd" d="M2.16255 44.7332L2.28609 43.6832C3.26224 35.3858 5.82863 27.9786 9.99754 21.48L10.0001 21.4761C14.2949 14.8499 20.0047 9.69321 27.114 6.01481C34.2329 2.21123 42.2557 0.32 51.1592 0.32C59.6915 0.32 67.3472 2.02657 74.1032 5.46388C80.9651 8.77423 86.3265 13.387 90.1527 19.3073C94.1075 25.1202 96.0792 31.7352 96.0792 39.12C96.0792 45.4087 94.5362 51.1083 91.4377 56.193C88.4947 61.2184 84.5781 65.7424 79.7007 69.7672C74.97 73.7695 69.1064 77.8175 62.1205 81.9136C60.798 82.7549 59.4169 83.5955 57.9771 84.4356C50.9454 88.8463 44.6358 93.5501 39.0456 98.5457C33.9627 103.088 31.2133 107.246 30.5196 111.02H96.7992V133H0.839233V132C0.839233 120.85 2.7175 111.218 6.5141 103.135C10.2809 95.1152 15.0318 88.4074 20.7758 83.03L20.7835 83.0228C26.6046 77.6869 34.1601 72.19 43.4339 66.5291C43.4353 66.5282 43.4368 66.5273 43.4382 66.5264L43.4405 66.525L43.5867 66.4336L43.598 66.4265L43.6655 66.3843L43.6767 66.3773L43.868 66.2578L43.8792 66.2507L43.9467 66.2086L43.958 66.2015L44.1942 66.0539L44.2055 66.0468L44.228 66.0328L44.2392 66.0257L44.3067 65.9836L44.318 65.9765L44.4755 65.8781L44.4867 65.8711L44.5092 65.857L44.5205 65.85L44.588 65.8078L44.5992 65.8008L44.7567 65.7023L44.768 65.6953L44.7905 65.6812L44.8017 65.6742L44.8692 65.632L44.8805 65.625L45.038 65.5265L45.0492 65.5195L45.0717 65.5054L45.083 65.4984L45.1505 65.4562L45.1617 65.4492L45.3192 65.3507L45.3305 65.3437L45.353 65.3297L45.3642 65.3226L45.4317 65.2804L45.443 65.2734L45.6005 65.175L45.6117 65.1679L45.6342 65.1539L45.6455 65.1468L45.713 65.1047L45.7242 65.0976L45.8817 64.9992L45.893 64.9922L45.9155 64.9781L45.9267 64.9711L45.9942 64.9289L46.0055 64.9218L46.1967 64.8023L46.208 64.7953L46.2755 64.7531L46.2867 64.7461L46.478 64.6265L46.4892 64.6195L46.5567 64.5773L46.568 64.5703L46.6355 64.5281L46.6467 64.5211L46.8042 64.4226L46.8155 64.4156L46.838 64.4015L46.8492 64.3945L46.9167 64.3523L46.928 64.3453L47.0855 64.2468L47.0967 64.2398L47.1192 64.2257L47.1305 64.2187L47.198 64.1765L47.2092 64.1695L47.3667 64.0711L47.378 64.064L47.4005 64.05L47.4117 64.0429L47.4792 64.0007L47.4905 63.9937L47.648 63.8953L47.6592 63.8883L47.6817 63.8742L47.693 63.8672L47.7605 63.825L47.7717 63.8179L47.9292 63.7195L47.9405 63.7125L47.963 63.6984L47.9742 63.6914L48.0417 63.6492L48.053 63.6422L48.2105 63.5437L48.2217 63.5367L48.2442 63.5226L48.2555 63.5156L48.323 63.4734L48.3342 63.4664L48.4917 63.3679L48.503 63.3609L48.5255 63.3468L48.5367 63.3398L48.6042 63.2976L48.6155 63.2906L48.773 63.1922L48.7842 63.1851L48.8067 63.1711L48.818 63.164L48.8855 63.1218L48.8967 63.1148L49.0542 63.0164L49.0655 63.0093L49.088 62.9953L49.0992 62.9883L49.1667 62.9461L49.178 62.939L49.2022 62.9239L49.2154 62.9162C50.6375 62.0867 52.0605 61.1973 53.4845 60.2479C59.1988 56.4384 63.4944 52.7798 66.411 49.2798C69.3012 45.8116 70.6792 42.3705 70.6792 38.94C70.6792 35.6422 69.8297 32.7824 68.153 30.3233L68.1441 30.3102L68.1356 30.2969C66.5686 27.8345 64.3237 25.9157 61.3602 24.5479L61.346 24.5414L61.332 24.5344C58.3686 23.0527 54.9851 22.3 51.1592 22.3C44.9179 22.3 39.7747 24.313 35.6563 28.317C31.6513 32.2076 28.9607 37.8696 27.6648 45.4094L27.5129 46.2932L2.16255 44.7332ZM43.9592 67.38C34.7192 73.02 27.2192 78.48 21.4592 83.76C15.8192 89.04 11.1392 95.64 7.41924 103.56C3.81204 111.24 1.95374 120.387 1.84436 131C1.84094 131.332 1.83923 131.665 1.83923 132H95.7992V112.02H29.3792C29.4061 111.688 29.4478 111.355 29.5041 111.02C30.2022 106.87 33.1605 102.464 38.3792 97.8C44.0192 92.76 50.3792 88.02 57.4592 83.58C58.8992 82.74 60.2792 81.9 61.5992 81.06C68.5592 76.98 74.3792 72.96 79.0592 69C83.8592 65.04 87.6992 60.6 90.5792 55.68C93.5792 50.76 95.0792 45.24 95.0792 39.12C95.0792 31.92 93.1592 25.5 89.3192 19.86C85.5992 14.1 80.3792 9.6 73.6592 6.36C67.0592 3 59.5592 1.32 51.1592 1.32C42.3992 1.32 34.5392 3.18 27.5792 6.89999C20.6192 10.5 15.0392 15.54 10.8392 22.02C6.92567 28.1205 4.44745 35.0491 3.40451 42.8058C3.36015 43.1357 3.31841 43.4671 3.27924 43.8L26.6792 45.24C27.9992 37.56 30.7592 31.68 34.9592 27.6C39.2792 23.4 44.6792 21.3 51.1592 21.3C55.1192 21.3 58.6592 22.08 61.7792 23.64C64.8992 25.08 67.2992 27.12 68.9792 29.76C70.7792 32.4 71.6792 35.46 71.6792 38.94C71.6792 42.66 70.1792 46.32 67.1792 49.92C64.1792 53.52 59.7992 57.24 54.0392 61.08C52.5992 62.04 51.1592 62.94 49.7192 63.78L43.9592 67.38Z" fill="url(#paint0_linear_1_6)" fill-opacity="0.7"/>
<defs>
<linearGradient id="paint0_linear_1_6" x1="48.6666" y1="-269.802" x2="48.6666" y2="99.124" gradientUnits="userSpaceOnUse">
<stop stop-color="white"/>
<stop offset="1" stop-color="white" stop-opacity="0"/>
</linearGradient>
</defs>
</svg>
