<svg width="96" height="131" viewBox="0 0 96 131" fill="none" xmlns="http://www.w3.org/2000/svg">
<mask id="path-1-outside-1_3247_23967" maskUnits="userSpaceOnUse" x="-0.666992" y="-1.23193" width="98" height="133" fill="black">
<rect fill="white" x="-0.666992" y="-1.23193" width="98" height="133"/>
<path d="M0.875524 130.768C0.875524 99.8081 12.3955 81.9881 47.4955 63.6281C64.9555 54.4481 71.2555 49.4081 71.2555 38.6081C71.2555 27.9881 64.2355 20.4281 50.5555 20.4281C35.9755 20.4281 27.3355 28.8881 25.3555 44.3681L1.23552 42.9281C3.75552 16.2881 21.3955 0.0880644 50.5555 0.0880644C78.8155 0.0880644 95.3755 15.5681 95.3755 38.2481C95.3755 57.8681 86.1955 67.0481 61.1755 80.3681C39.9355 91.7081 29.6755 102.508 28.9555 110.428H95.3755V130.768H0.875524Z"/>
</mask>
<path d="M0.875519 130.768H-0.124481V131.768H0.875519V130.768ZM47.4955 63.6281L47.959 64.5142L47.9609 64.5132L47.4955 63.6281ZM25.3555 44.3681L25.2959 45.3663L26.2289 45.422L26.3474 44.4949L25.3555 44.3681ZM1.23552 42.9281L0.239975 42.8339L0.142471 43.8646L1.17593 43.9263L1.23552 42.9281ZM61.1755 80.3681L60.7056 79.4854L60.7046 79.4859L61.1755 80.3681ZM28.9555 110.428L27.9596 110.338L27.8605 111.428H28.9555V110.428ZM95.3755 110.428H96.3755V109.428H95.3755V110.428ZM95.3755 130.768V131.768H96.3755V130.768H95.3755ZM1.87552 130.768C1.87552 115.418 4.7292 103.441 11.8483 93.0378C18.9828 82.6122 30.4733 73.6606 47.959 64.5142L47.032 62.742C29.4178 71.9556 17.5983 81.0939 10.1978 91.9083C2.78185 102.745 -0.124481 115.158 -0.124481 130.768H1.87552ZM47.9609 64.5132C56.6782 59.9298 62.7504 56.3124 66.6301 52.4327C70.5836 48.4792 72.2555 44.2611 72.2555 38.6081H70.2555C70.2555 43.755 68.7775 47.4569 65.2159 51.0185C61.5806 54.6538 55.7728 58.1463 47.0302 62.7429L47.9609 64.5132ZM72.2555 38.6081C72.2555 33.0717 70.4198 28.242 66.716 24.8028C63.0191 21.37 57.5757 19.4281 50.5555 19.4281V21.4281C57.2153 21.4281 62.1219 23.2661 65.3551 26.2684C68.5813 29.2641 70.2555 33.5244 70.2555 38.6081H72.2555ZM50.5555 19.4281C43.0651 19.4281 36.9927 21.6065 32.539 25.8708C28.0962 30.1244 25.373 36.3493 24.3636 44.2412L26.3474 44.4949C27.318 36.9069 29.9048 31.1617 33.9221 27.3154C37.9283 23.4796 43.4659 21.4281 50.5555 21.4281V19.4281ZM25.4151 43.3698L1.29512 41.9298L1.17593 43.9263L25.2959 45.3663L25.4151 43.3698ZM2.23108 43.0222C3.47185 29.9055 8.4222 19.4495 16.5669 12.2681C24.7147 5.08404 36.1606 1.08806 50.5555 1.08806V-0.911936C35.7904 -0.911936 23.8363 3.19209 15.2442 10.768C6.64886 18.3466 1.5192 29.3106 0.239975 42.8339L2.23108 43.0222ZM50.5555 1.08806C64.5087 1.08806 75.4585 4.90854 82.905 11.416C90.3382 17.9119 94.3755 27.166 94.3755 38.2481H96.3755C96.3755 26.6501 92.1329 16.8242 84.2211 9.91008C76.3226 3.00758 64.8623 -0.911936 50.5555 -0.911936V1.08806ZM94.3755 38.2481C94.3755 47.8737 92.1338 54.829 86.8944 61.0249C81.6052 67.2797 73.2062 72.8304 60.7056 79.4854L61.6455 81.2508C74.1649 74.5858 82.8658 68.8864 88.4216 62.3163C94.0273 55.6872 96.3755 48.2425 96.3755 38.2481H94.3755ZM60.7046 79.4859C50.035 85.1824 42.0752 90.7678 36.6773 95.9598C31.3059 101.126 28.3522 106.019 27.9596 110.338L29.9514 110.519C30.2788 106.917 32.8152 102.45 38.0638 97.4013C43.2858 92.3784 51.0761 86.8937 61.6465 81.2502L60.7046 79.4859ZM28.9555 111.428H95.3755V109.428H28.9555V111.428ZM94.3755 110.428V130.768H96.3755V110.428H94.3755ZM95.3755 129.768H0.875519V131.768H95.3755V129.768Z" fill="url(#paint0_linear_3247_23967)" fill-opacity="0.7" mask="url(#path-1-outside-1_3247_23967)"/>
<defs>
<linearGradient id="paint0_linear_3247_23967" x1="47.9996" y1="-271.034" x2="47.9996" y2="97.892" gradientUnits="userSpaceOnUse">
<stop stop-color="white"/>
<stop offset="1" stop-color="white" stop-opacity="0"/>
</linearGradient>
</defs>
</svg>
