<svg width="101" height="136" viewBox="0 0 101 136" fill="none" xmlns="http://www.w3.org/2000/svg">
<path fill-rule="evenodd" clip-rule="evenodd" d="M0.593811 95.0465L26.4944 93.878L26.582 94.8283C27.1904 101.434 29.7772 106.06 33.7898 109.059C37.8325 112.08 43.4435 113.54 50.2462 113.54C57.1464 113.54 63.2656 112.077 67.6299 109.039C71.9462 106.035 74.6262 101.439 74.6262 94.92C74.6262 88.3536 72.2227 83.5335 68.0217 80.3247C63.7804 77.0852 57.5901 75.4 49.8862 75.4H37.9062V54.86H49.8862C55.9047 54.86 61.0702 53.7051 64.704 51.1699C68.2802 48.6749 70.4862 44.7659 70.4862 38.94C70.4862 33.7606 68.8549 29.7489 65.6403 27.0113C62.3994 24.2513 57.4021 22.66 50.4262 22.66C43.3618 22.66 38.334 24.2061 34.9178 26.7788C31.5195 29.338 29.6029 32.9981 28.9146 37.4721L28.777 38.3662L2.86519 37.0024L2.99339 35.9402C4.28319 25.2533 9.17825 16.3184 17.2804 10.0682C25.3705 3.82726 36.5819 0.32 50.4262 0.32C64.9706 0.32 76.5128 3.77307 84.44 10.101C92.3953 16.4512 96.6062 25.6159 96.6062 36.78C96.6062 43.6451 94.6069 49.5455 90.7103 54.3105C87.3661 58.4001 82.6663 61.603 76.7492 63.8778C83.8758 66.2146 89.6338 69.9878 93.7455 74.9792C98.4298 80.6655 100.926 87.8714 100.926 96.18C100.926 108.633 95.8376 118.605 86.8984 125.437C77.989 132.246 65.3331 135.88 50.2462 135.88C34.7876 135.88 22.7023 132.015 14.3054 125.052C5.89279 118.077 1.29025 108.08 0.647614 96.0534L0.593811 95.0465ZM75.2022 64.4419C74.6322 64.2722 74.0535 64.1116 73.4662 63.96C74.047 63.7785 74.6169 63.5891 75.176 63.3918C88.478 58.6985 95.6062 49.5628 95.6062 36.78C95.6062 15 79.2262 1.32 50.4262 1.32C23.5029 1.32 7.03761 14.7411 4.11758 35.0655C4.07022 35.3952 4.02641 35.7267 3.98619 36.06L27.9262 37.32C29.3662 27.96 36.0262 21.66 50.4262 21.66C64.6462 21.66 71.4862 28.14 71.4862 38.94C71.4862 51.18 62.1262 55.86 49.8862 55.86H38.9062V74.4H49.8862C65.5462 74.4 75.6262 81.24 75.6262 94.92C75.6262 108.6 64.2862 114.54 50.2462 114.54C36.3862 114.54 26.8462 108.6 25.5862 94.92L1.64619 96C1.66406 96.3344 1.68504 96.6671 1.70914 96.9982C3.38377 120.011 20.0801 134.88 50.2462 134.88C80.1262 134.88 99.9262 120.48 99.9262 96.18C99.9262 80.5484 90.8763 69.1066 75.2022 64.4419Z" fill="url(#paint0_linear_1_5)" fill-opacity="0.7"/>
<defs>
<linearGradient id="paint0_linear_1_5" x1="50.6666" y1="-269.802" x2="50.6666" y2="99.124" gradientUnits="userSpaceOnUse">
<stop stop-color="white"/>
<stop offset="1" stop-color="white" stop-opacity="0"/>
</linearGradient>
</defs>
</svg>
