<svg width="99" height="134" viewBox="0 0 99 134" fill="none" xmlns="http://www.w3.org/2000/svg">
<mask id="path-1-outside-1_3247_23972" maskUnits="userSpaceOnUse" x="-1.33301" y="-1.23193" width="101" height="136" fill="black">
<rect fill="white" x="-1.33301" y="-1.23193" width="101" height="136"/>
<path d="M48.9132 133.648C18.3132 133.648 1.57318 118.348 0.31318 94.7681L24.2532 93.6881C25.5132 107.368 35.0532 113.308 48.9132 113.308C62.9532 113.308 74.2932 107.368 74.2932 93.6881C74.2932 80.0081 64.2132 73.1681 48.5532 73.1681H37.5732V54.6281H48.5532C60.7932 54.6281 70.1532 49.9481 70.1532 37.7081C70.1532 26.9081 63.3132 20.4281 49.0932 20.4281C34.6932 20.4281 28.0332 26.7281 26.5932 36.0881L2.65318 34.8281C5.17318 13.9481 21.7332 0.0880644 49.0932 0.0880644C77.8932 0.0880644 94.2732 13.7681 94.2732 35.5481C94.2732 48.8681 86.5332 58.2281 72.1332 62.7281C88.8732 67.0481 98.5932 78.7481 98.5932 94.9481C98.5932 119.248 78.7932 133.648 48.9132 133.648Z"/>
</mask>
<path d="M0.313187 94.7681L0.268112 93.7691L-0.739197 93.8145L-0.685394 94.8214L0.313187 94.7681ZM24.2532 93.6881L25.249 93.5963L25.1614 92.6461L24.2081 92.6891L24.2532 93.6881ZM37.5732 73.1681H36.5732V74.1681H37.5732V73.1681ZM37.5732 54.6281V53.6281H36.5732V54.6281H37.5732ZM26.5932 36.0881L26.5406 37.0867L27.444 37.1342L27.5816 36.2401L26.5932 36.0881ZM2.65318 34.8281L1.66039 34.7082L1.53218 35.7704L2.60062 35.8267L2.65318 34.8281ZM72.1332 62.7281L71.8349 61.7736L68.4869 62.8198L71.8833 63.6963L72.1332 62.7281ZM48.9132 132.648C33.7718 132.648 22.187 128.863 14.249 122.281C6.32658 115.712 1.92911 106.268 1.31175 94.7147L-0.685394 94.8214C-0.0427551 106.848 4.55978 116.845 12.9724 123.82C21.3693 130.783 33.4546 134.648 48.9132 134.648V132.648ZM0.358246 95.7671L24.2982 94.687L24.2081 92.6891L0.268112 93.7691L0.358246 95.7671ZM23.2574 93.7798C23.909 100.854 26.7222 106.038 31.2595 109.429C35.7669 112.798 41.8559 114.308 48.9132 114.308V112.308C42.1104 112.308 36.4995 110.848 32.4568 107.827C28.4442 104.828 25.8573 100.202 25.249 93.5963L23.2574 93.7798ZM48.9132 114.308C56.0529 114.308 62.6237 112.801 67.4395 109.449C72.3032 106.063 75.2932 100.849 75.2932 93.6881H73.2932C73.2932 100.207 70.6131 104.803 66.2969 107.807C61.9326 110.845 55.8134 112.308 48.9132 112.308V114.308ZM75.2932 93.6881C75.2932 86.5745 72.6566 81.1345 67.9027 77.5034C63.1889 73.9029 56.5092 72.1681 48.5532 72.1681V74.1681C56.2571 74.1681 62.4474 75.8532 66.6887 79.0928C70.8897 82.3016 73.2932 87.1217 73.2932 93.6881H75.2932ZM48.5532 72.1681H37.5732V74.1681H48.5532V72.1681ZM38.5732 73.1681V54.6281H36.5732V73.1681H38.5732ZM37.5732 55.6281H48.5532V53.6281H37.5732V55.6281ZM48.5532 55.6281C54.7747 55.6281 60.4092 54.443 64.5154 51.5782C68.6792 48.6732 71.1532 44.1222 71.1532 37.7081H69.1532C69.1532 43.534 66.9471 47.4429 63.371 49.9379C59.7372 52.4732 54.5717 53.6281 48.5532 53.6281V55.6281ZM71.1532 37.7081C71.1532 32.0874 69.3645 27.4591 65.604 24.2567C61.87 21.0767 56.3373 19.4281 49.0932 19.4281V21.4281C56.0691 21.4281 61.0664 23.0194 64.3073 25.7794C67.5219 28.517 69.1532 32.5287 69.1532 37.7081H71.1532ZM49.0932 19.4281C41.7576 19.4281 36.2554 21.032 32.3816 23.9492C28.4899 26.8801 26.3565 31.05 25.6048 35.936L27.5816 36.2401C28.2699 31.7661 30.1865 28.1061 33.5848 25.5469C37.001 22.9742 42.0288 21.4281 49.0932 21.4281V19.4281ZM26.6457 35.0894L2.70573 33.8294L2.60062 35.8267L26.5406 37.0867L26.6457 35.0894ZM3.64598 34.9479C4.87617 24.7548 9.5211 16.3196 17.169 10.4198C24.8289 4.5108 35.5775 1.08806 49.0932 1.08806V-0.911936C35.2489 -0.911936 24.0375 2.59532 15.9474 8.83628C7.84525 15.0865 2.95018 24.0214 1.66039 34.7082L3.64598 34.9479ZM49.0932 1.08806C63.3488 1.08806 74.3966 4.475 81.8593 10.4321C89.294 16.3668 93.2732 24.9321 93.2732 35.5481H95.2732C95.2732 24.384 91.0623 15.2193 83.107 8.86902C75.1798 2.54113 63.6376 -0.911936 49.0932 -0.911936V1.08806ZM93.2732 35.5481C93.2732 42.003 91.4025 47.4426 87.8291 51.8125C84.2474 56.1925 78.8985 59.5662 71.8349 61.7736L72.4315 63.6825C79.7679 61.3899 85.489 57.8336 89.3773 53.0786C93.2738 48.3136 95.2732 42.4131 95.2732 35.5481H93.2732ZM71.8833 63.6963C80.0869 65.8134 86.504 69.7202 90.8689 75.0189C95.2296 80.3125 97.5932 87.0566 97.5932 94.9481H99.5932C99.5932 86.6395 97.0968 79.4336 92.4125 73.7472C87.7324 68.0659 80.9195 63.9627 72.3831 61.7598L71.8833 63.6963ZM97.5932 94.9481C97.5932 106.795 92.7818 116.173 84.351 122.616C75.8904 129.082 63.7063 132.648 48.9132 132.648V134.648C64.0001 134.648 76.656 131.014 85.5654 124.205C94.5046 117.373 99.5932 107.401 99.5932 94.9481H97.5932Z" fill="url(#paint0_linear_3247_23972)" fill-opacity="0.7" mask="url(#path-1-outside-1_3247_23972)"/>
<defs>
<linearGradient id="paint0_linear_3247_23972" x1="49.3336" y1="-271.034" x2="49.3336" y2="97.892" gradientUnits="userSpaceOnUse">
<stop stop-color="white"/>
<stop offset="1" stop-color="white" stop-opacity="0"/>
</linearGradient>
</defs>
</svg>
