<svg width="66" height="66" viewBox="0 0 66 66" fill="none" xmlns="http://www.w3.org/2000/svg">
<path d="M16.3672 31.8865H15.0815V34.4579H16.3672V31.8865ZM49.7961 34.4579C50.5062 34.4579 51.0818 33.8823 51.0818 33.1722C51.0818 32.4621 50.5062 31.8865 49.7961 31.8865V34.4579ZM38.2246 20.3149V19.0292H35.6531V20.3149H38.2246ZM49.0512 34.1717C49.6746 34.5118 50.4556 34.282 50.7956 33.6586C51.1356 33.0353 50.9059 32.2543 50.2825 31.9142L49.0512 34.1717ZM35.653 45.9003V47.186L38.2244 47.186L38.2245 45.9003H35.653ZM16.3672 34.4579H49.6668V31.8865H16.3672V34.4579ZM49.6668 34.4579H49.7961V31.8865H49.6668V34.4579ZM35.6531 20.3149C35.6531 22.2081 36.6756 24.0162 37.9308 25.5567C39.2117 27.1287 40.8881 28.6076 42.5167 29.866C44.1529 31.1303 45.7826 32.204 46.9997 32.96C47.6094 33.3388 48.1184 33.6396 48.4766 33.8466C48.6558 33.9501 48.7974 34.0303 48.8952 34.0851C48.9441 34.1126 48.9821 34.1336 49.0084 34.1482C49.0215 34.1554 49.0317 34.161 49.0389 34.165C49.0425 34.1669 49.0453 34.1685 49.0474 34.1696C49.0484 34.1702 49.0492 34.1706 49.0499 34.171C49.0502 34.1712 49.0505 34.1714 49.0507 34.1714C49.051 34.1716 49.0512 34.1717 49.6669 33.043C50.2825 31.9142 50.2827 31.9143 50.2828 31.9144C50.2827 31.9144 50.2828 31.9144 50.2827 31.9144C50.2826 31.9143 50.2823 31.9141 50.2818 31.9138C50.2807 31.9133 50.279 31.9123 50.2764 31.9109C50.2714 31.9081 50.2633 31.9037 50.2524 31.8976C50.2305 31.8855 50.197 31.8669 50.1526 31.8421C50.064 31.7924 49.9322 31.7178 49.7633 31.6202C49.4254 31.4249 48.9401 31.1382 48.3566 30.7757C47.1871 30.0492 45.6349 29.0258 44.089 27.8313C42.5356 26.6309 41.03 25.2893 39.9243 23.9324C38.7931 22.544 38.2246 21.3147 38.2246 20.3149H35.6531ZM49.6668 33.1722C49.1851 31.9801 49.1848 31.9803 49.1844 31.9804C49.1842 31.9805 49.1837 31.9807 49.1833 31.9808C49.1825 31.9812 49.1816 31.9816 49.1804 31.982C49.178 31.983 49.1749 31.9843 49.171 31.9858C49.1633 31.989 49.1525 31.9934 49.1388 31.9991C49.1113 32.0105 49.0722 32.0268 49.022 32.0481C48.9217 32.0906 48.7775 32.1528 48.5955 32.2341C48.2319 32.3965 47.7165 32.6355 47.0999 32.9459C45.8699 33.565 44.2211 34.4762 42.564 35.6395C40.9136 36.7982 39.2101 38.238 37.909 39.9268C36.6064 41.6175 35.653 43.6306 35.653 45.9003H38.2245C38.2245 44.3774 38.862 42.9032 39.946 41.4962C41.0314 40.0874 42.5099 38.8193 44.0415 37.7441C45.5664 36.6736 47.0996 35.8249 48.2561 35.2427C48.8328 34.9525 49.3118 34.7304 49.6442 34.582C49.8103 34.5078 49.9395 34.4521 50.0257 34.4156C50.0687 34.3973 50.101 34.3839 50.1217 34.3753C50.1321 34.371 50.1396 34.3679 50.1441 34.3661C50.1463 34.3652 50.1478 34.3646 50.1485 34.3643C50.1489 34.3641 50.1491 34.3641 50.1491 34.3641C50.1491 34.3641 50.1489 34.3641 50.1489 34.3641C50.1487 34.3642 50.1485 34.3643 49.6668 33.1722Z" fill="white" fill-opacity="0.3"/>
</svg>
