<svg width="448" height="312" viewBox="0 0 448 312" fill="none" xmlns="http://www.w3.org/2000/svg">
<mask id="mask0_3221_10935" style="mask-type:alpha" maskUnits="userSpaceOnUse" x="0" y="0" width="448" height="312">
<ellipse cx="224" cy="156" rx="224" ry="156" fill="url(#paint0_radial_3221_10935)"/>
</mask>
<g mask="url(#mask0_3221_10935)">
<g filter="url(#filter0_f_3221_10935)">
<rect x="56" y="-21" width="336" height="354" fill="url(#paint1_angular_3221_10935)"/>
</g>
<g clip-path="url(#clip0_3221_10935)">
<rect x="112" y="196" width="224" height="64" rx="16" fill="#F8F8F8" fill-opacity="0.01"/>
<g filter="url(#filter1_bdi_3221_10935)">
<rect x="120" y="204" width="48" height="48" rx="24" fill="#F8F8F8" fill-opacity="0.03" shape-rendering="crispEdges"/>
<rect x="120.643" y="204.643" width="46.7143" height="46.7143" rx="23.3571" stroke="url(#paint2_linear_3221_10935)" stroke-opacity="0.15" stroke-width="1.28571" shape-rendering="crispEdges"/>
<g filter="url(#filter2_dd_3221_10935)">
<path fill-rule="evenodd" clip-rule="evenodd" d="M144.824 217.933C144.786 217.822 144.701 217.742 144.598 217.718C144.494 217.694 144.388 217.731 144.314 217.816L138.786 224.172C138.683 224.29 138.669 224.473 138.751 224.61C138.833 224.747 138.99 224.8 139.126 224.737L143.883 222.521L148.858 231.465C148.942 231.617 149.116 231.672 149.259 231.592C149.402 231.511 149.467 231.322 149.409 231.154L144.824 217.933ZM141.81 226.584C141.89 226.429 141.852 226.232 141.723 226.127C141.594 226.022 141.415 226.045 141.31 226.179L133.796 235.763C133.724 235.855 133.7 235.983 133.734 236.1C133.767 236.217 133.853 236.305 133.959 236.332L141.473 238.273C141.616 238.31 141.762 238.23 141.823 238.08C141.885 237.93 141.844 237.753 141.726 237.655L137.784 234.378L141.81 226.584ZM151.788 228.863C151.739 228.701 151.594 228.604 151.444 228.631C151.295 228.659 151.186 228.805 151.186 228.975V234.436L142.015 234.638C141.855 234.641 141.724 234.781 141.712 234.961C141.701 235.141 141.813 235.3 141.971 235.329L153.931 237.521C154.038 237.541 154.147 237.496 154.217 237.402C154.287 237.309 154.309 237.181 154.274 237.065L151.788 228.863Z" fill="url(#paint3_linear_3221_10935)" shape-rendering="crispEdges"/>
</g>
<circle cx="154.649" cy="242.508" r="0.366794" transform="rotate(180 154.649 242.508)" fill="url(#paint4_linear_3221_10935)"/>
</g>
<circle opacity="0.07" cx="143.999" cy="227.999" r="51.1071" stroke="white" stroke-opacity="0.2" stroke-width="0.642857"/>
<circle opacity="0.2" cx="143.998" cy="227.998" r="78.5357" stroke="url(#paint5_linear_3221_10935)" stroke-opacity="0.2" stroke-width="0.642857"/>
<circle opacity="0.2" cx="143.785" cy="227.785" r="101.893" stroke="url(#paint6_linear_3221_10935)" stroke-opacity="0.2" stroke-width="0.642857"/>
<circle opacity="0.5" cx="125.368" cy="219.392" r="0.183397" transform="rotate(-143.487 125.368 219.392)" fill="url(#paint7_linear_3221_10935)"/>
<circle opacity="0.5" cx="130.134" cy="209.126" r="0.183397" transform="rotate(-143.487 130.134 209.126)" fill="url(#paint8_linear_3221_10935)"/>
<circle opacity="0.5" cx="120.227" cy="237.736" r="0.183397" transform="rotate(-143.487 120.227 237.736)" fill="url(#paint9_linear_3221_10935)"/>
<circle opacity="0.5" cx="138.352" cy="223.173" r="0.183397" transform="rotate(-143.487 138.352 223.173)" fill="url(#paint10_linear_3221_10935)"/>
<circle opacity="0.5" cx="124.634" cy="206.189" r="0.183397" transform="rotate(-143.487 124.634 206.189)" fill="url(#paint11_linear_3221_10935)"/>
<g filter="url(#filter3_d_3221_10935)">
<circle cx="116.634" cy="196.767" r="0.428571" transform="rotate(180 116.634 196.767)" fill="white" fill-opacity="0.6" shape-rendering="crispEdges"/>
</g>
<g filter="url(#filter4_d_3221_10935)">
<circle cx="189.002" cy="251.994" r="0.857143" transform="rotate(180 189.002 251.994)" fill="white" fill-opacity="0.6" shape-rendering="crispEdges"/>
</g>
<circle opacity="0.5" cx="126.209" cy="231.236" r="0.366794" transform="rotate(130.534 126.209 231.236)" fill="url(#paint12_linear_3221_10935)"/>
<circle opacity="0.5" cx="114.952" cy="227.626" r="0.366794" transform="rotate(130.534 114.952 227.626)" fill="url(#paint13_linear_3221_10935)"/>
<rect opacity="0.5" x="191.947" y="222" width="56" height="4" rx="0.598684" fill="#F8F8F8"/>
<rect opacity="0.1" x="191.947" y="230" width="104" height="4" rx="0.598684" fill="#F8F8F8"/>
</g>
<rect x="112.75" y="196.75" width="222.5" height="62.5" rx="15.25" stroke="white" stroke-opacity="0.05" stroke-width="1.5"/>
<g clip-path="url(#clip1_3221_10935)">
<rect x="112" y="52" width="224" height="64" rx="16" fill="#F8F8F8" fill-opacity="0.01"/>
<g filter="url(#filter5_bdi_3221_10935)">
<rect x="120" y="60" width="48" height="48" rx="24" fill="#F8F8F8" fill-opacity="0.03" shape-rendering="crispEdges"/>
<rect x="120.643" y="60.6429" width="46.7143" height="46.7143" rx="23.3571" stroke="url(#paint14_linear_3221_10935)" stroke-opacity="0.15" stroke-width="1.28571" shape-rendering="crispEdges"/>
<g filter="url(#filter6_dd_3221_10935)">
<path fill-rule="evenodd" clip-rule="evenodd" d="M144.824 73.9325C144.786 73.8224 144.701 73.7416 144.598 73.718C144.494 73.6943 144.388 73.7311 144.314 73.8157L138.786 80.1721C138.683 80.2903 138.669 80.4734 138.751 80.6103C138.833 80.7472 138.99 80.8 139.126 80.7368L143.883 78.5209L148.858 87.465C148.942 87.6173 149.116 87.6721 149.259 87.5915C149.402 87.5109 149.467 87.3216 149.409 87.1543L144.824 73.9325ZM141.81 82.5841C141.89 82.4293 141.852 82.2317 141.723 82.1271C141.594 82.0225 141.415 82.0451 141.31 82.1794L133.796 91.7633C133.724 91.8552 133.7 91.9831 133.734 92.0999C133.767 92.2166 133.853 92.3049 133.959 92.3323L141.473 94.2735C141.616 94.3105 141.762 94.2296 141.823 94.0798C141.885 93.9301 141.844 93.7526 141.726 93.6546L137.784 90.3785L141.81 82.5841ZM151.788 84.8626C151.739 84.7014 151.594 84.6037 151.444 84.6315C151.295 84.6594 151.186 84.8045 151.186 84.9748V90.4361L142.015 90.6379C141.855 90.6414 141.724 90.7815 141.712 90.961C141.701 91.1405 141.813 91.3001 141.971 91.3291L153.931 93.5209C154.038 93.5407 154.147 93.4956 154.217 93.4023C154.287 93.3089 154.309 93.1811 154.274 93.0654L151.788 84.8626Z" fill="url(#paint15_linear_3221_10935)" shape-rendering="crispEdges"/>
</g>
<circle cx="154.649" cy="98.5082" r="0.366794" transform="rotate(180 154.649 98.5082)" fill="url(#paint16_linear_3221_10935)"/>
</g>
<circle opacity="0.07" cx="143.999" cy="83.9989" r="51.1071" stroke="white" stroke-opacity="0.2" stroke-width="0.642857"/>
<circle opacity="0.2" cx="143.998" cy="83.9978" r="78.5357" stroke="url(#paint17_linear_3221_10935)" stroke-opacity="0.2" stroke-width="0.642857"/>
<circle opacity="0.2" cx="143.785" cy="83.7846" r="101.893" stroke="url(#paint18_linear_3221_10935)" stroke-opacity="0.2" stroke-width="0.642857"/>
<circle opacity="0.5" cx="125.368" cy="75.3919" r="0.183397" transform="rotate(-143.487 125.368 75.3919)" fill="url(#paint19_linear_3221_10935)"/>
<circle opacity="0.5" cx="130.134" cy="65.1263" r="0.183397" transform="rotate(-143.487 130.134 65.1263)" fill="url(#paint20_linear_3221_10935)"/>
<circle opacity="0.5" cx="120.227" cy="93.7357" r="0.183397" transform="rotate(-143.487 120.227 93.7357)" fill="url(#paint21_linear_3221_10935)"/>
<circle opacity="0.5" cx="138.352" cy="79.1732" r="0.183397" transform="rotate(-143.487 138.352 79.1732)" fill="url(#paint22_linear_3221_10935)"/>
<circle opacity="0.5" cx="124.634" cy="62.1888" r="0.183397" transform="rotate(-143.487 124.634 62.1888)" fill="url(#paint23_linear_3221_10935)"/>
<g filter="url(#filter7_d_3221_10935)">
<circle cx="116.634" cy="52.7667" r="0.428571" transform="rotate(180 116.634 52.7667)" fill="white" fill-opacity="0.6" shape-rendering="crispEdges"/>
</g>
<g filter="url(#filter8_d_3221_10935)">
<circle cx="189.002" cy="107.994" r="0.857143" transform="rotate(180 189.002 107.994)" fill="white" fill-opacity="0.6" shape-rendering="crispEdges"/>
</g>
<circle opacity="0.5" cx="126.209" cy="87.2357" r="0.366794" transform="rotate(130.534 126.209 87.2357)" fill="url(#paint24_linear_3221_10935)"/>
<circle opacity="0.5" cx="114.952" cy="83.6263" r="0.366794" transform="rotate(130.534 114.952 83.6263)" fill="url(#paint25_linear_3221_10935)"/>
<rect opacity="0.5" x="191.947" y="78" width="56" height="4" rx="0.598684" fill="#F8F8F8"/>
<rect opacity="0.1" x="191.947" y="86" width="104" height="4" rx="0.598684" fill="#F8F8F8"/>
</g>
<rect x="112.75" y="52.75" width="222.5" height="62.5" rx="15.25" stroke="white" stroke-opacity="0.05" stroke-width="1.5"/>
<rect opacity="0.5" x="88.75" y="53.75" width="270.5" height="204.5" stroke="url(#paint26_linear_3221_10935)" stroke-width="1.5"/>
<rect opacity="0.5" x="88.75" y="291.25" width="270.5" height="270.5" transform="rotate(-90 88.75 291.25)" stroke="url(#paint27_linear_3221_10935)" stroke-width="1.5"/>
</g>
<g filter="url(#filter9_d_3221_10935)">
<g clip-path="url(#clip2_3221_10935)">
<rect x="112" y="124" width="224" height="64" rx="16" fill="#F8F8F8" fill-opacity="0.01" shape-rendering="crispEdges"/>
<g filter="url(#filter10_bdi_3221_10935)">
<rect x="120" y="132" width="48" height="48" rx="24" fill="#F8F8F8" fill-opacity="0.03" shape-rendering="crispEdges"/>
<rect x="120.643" y="132.643" width="46.7143" height="46.7143" rx="23.3571" stroke="url(#paint28_linear_3221_10935)" stroke-opacity="0.15" stroke-width="1.28571" shape-rendering="crispEdges"/>
<g filter="url(#filter11_dd_3221_10935)">
<path fill-rule="evenodd" clip-rule="evenodd" d="M144.824 145.933C144.786 145.822 144.701 145.742 144.598 145.718C144.494 145.694 144.388 145.731 144.314 145.816L138.786 152.172C138.683 152.29 138.669 152.473 138.751 152.61C138.833 152.747 138.99 152.8 139.126 152.737L143.883 150.521L148.858 159.465C148.942 159.617 149.116 159.672 149.259 159.592C149.402 159.511 149.467 159.322 149.409 159.154L144.824 145.933ZM141.81 154.584C141.89 154.429 141.852 154.232 141.723 154.127C141.594 154.022 141.415 154.045 141.31 154.179L133.796 163.763C133.724 163.855 133.7 163.983 133.734 164.1C133.767 164.217 133.853 164.305 133.959 164.332L141.473 166.273C141.616 166.31 141.762 166.23 141.823 166.08C141.885 165.93 141.844 165.753 141.726 165.655L137.784 162.378L141.81 154.584ZM151.788 156.863C151.739 156.701 151.594 156.604 151.444 156.631C151.295 156.659 151.186 156.805 151.186 156.975V162.436L142.015 162.638C141.855 162.641 141.724 162.781 141.712 162.961C141.701 163.141 141.813 163.3 141.971 163.329L153.931 165.521C154.038 165.541 154.147 165.496 154.217 165.402C154.287 165.309 154.309 165.181 154.274 165.065L151.788 156.863Z" fill="url(#paint29_linear_3221_10935)" shape-rendering="crispEdges"/>
</g>
<circle cx="154.649" cy="170.508" r="0.366794" transform="rotate(180 154.649 170.508)" fill="url(#paint30_linear_3221_10935)"/>
</g>
<circle opacity="0.07" cx="143.999" cy="155.999" r="51.1071" stroke="white" stroke-opacity="0.2" stroke-width="0.642857"/>
<circle opacity="0.2" cx="143.998" cy="155.998" r="78.5357" stroke="url(#paint31_linear_3221_10935)" stroke-opacity="0.2" stroke-width="0.642857"/>
<circle opacity="0.2" cx="143.785" cy="155.785" r="101.893" stroke="url(#paint32_linear_3221_10935)" stroke-opacity="0.2" stroke-width="0.642857"/>
<circle opacity="0.5" cx="125.368" cy="147.392" r="0.183397" transform="rotate(-143.487 125.368 147.392)" fill="url(#paint33_linear_3221_10935)"/>
<circle opacity="0.5" cx="130.134" cy="137.126" r="0.183397" transform="rotate(-143.487 130.134 137.126)" fill="url(#paint34_linear_3221_10935)"/>
<circle opacity="0.5" cx="120.227" cy="165.736" r="0.183397" transform="rotate(-143.487 120.227 165.736)" fill="url(#paint35_linear_3221_10935)"/>
<circle opacity="0.5" cx="138.352" cy="151.173" r="0.183397" transform="rotate(-143.487 138.352 151.173)" fill="url(#paint36_linear_3221_10935)"/>
<circle opacity="0.5" cx="124.634" cy="134.189" r="0.183397" transform="rotate(-143.487 124.634 134.189)" fill="url(#paint37_linear_3221_10935)"/>
<g filter="url(#filter12_d_3221_10935)">
<circle cx="116.634" cy="124.767" r="0.428571" transform="rotate(180 116.634 124.767)" fill="white" fill-opacity="0.6" shape-rendering="crispEdges"/>
</g>
<g filter="url(#filter13_d_3221_10935)">
<circle cx="189.002" cy="179.994" r="0.857143" transform="rotate(180 189.002 179.994)" fill="white" fill-opacity="0.6" shape-rendering="crispEdges"/>
</g>
<circle opacity="0.5" cx="126.209" cy="159.236" r="0.366794" transform="rotate(130.534 126.209 159.236)" fill="url(#paint38_linear_3221_10935)"/>
<circle opacity="0.5" cx="114.952" cy="155.626" r="0.366794" transform="rotate(130.534 114.952 155.626)" fill="url(#paint39_linear_3221_10935)"/>
<rect opacity="0.5" x="192" y="150" width="56" height="4" rx="0.598684" fill="#2997FF"/>
<rect opacity="0.1" x="192" y="158" width="104" height="4" rx="0.598684" fill="#F8F8F8"/>
</g>
<rect x="112.75" y="124.75" width="222.5" height="62.5" rx="15.25" stroke="url(#paint40_linear_3221_10935)" stroke-opacity="0.25" stroke-width="1.5" shape-rendering="crispEdges"/>
</g>
<defs>
<filter id="filter0_f_3221_10935" x="-68" y="-145" width="584" height="602" filterUnits="userSpaceOnUse" color-interpolation-filters="sRGB">
<feFlood flood-opacity="0" result="BackgroundImageFix"/>
<feBlend mode="normal" in="SourceGraphic" in2="BackgroundImageFix" result="shape"/>
<feGaussianBlur stdDeviation="62" result="effect1_foregroundBlur_3221_10935"/>
</filter>
<filter id="filter1_bdi_3221_10935" x="34.2857" y="118.286" width="219.429" height="219.429" filterUnits="userSpaceOnUse" color-interpolation-filters="sRGB">
<feFlood flood-opacity="0" result="BackgroundImageFix"/>
<feGaussianBlur in="BackgroundImageFix" stdDeviation="42.8571"/>
<feComposite in2="SourceAlpha" operator="in" result="effect1_backgroundBlur_3221_10935"/>
<feColorMatrix in="SourceAlpha" type="matrix" values="0 0 0 0 0 0 0 0 0 0 0 0 0 0 0 0 0 0 127 0" result="hardAlpha"/>
<feMorphology radius="1.28571" operator="dilate" in="SourceAlpha" result="effect2_dropShadow_3221_10935"/>
<feOffset/>
<feComposite in2="hardAlpha" operator="out"/>
<feColorMatrix type="matrix" values="0 0 0 0 0.0705882 0 0 0 0 0.0705882 0 0 0 0 0.0705882 0 0 0 0.2 0"/>
<feBlend mode="normal" in2="effect1_backgroundBlur_3221_10935" result="effect2_dropShadow_3221_10935"/>
<feBlend mode="normal" in="SourceGraphic" in2="effect2_dropShadow_3221_10935" result="shape"/>
<feColorMatrix in="SourceAlpha" type="matrix" values="0 0 0 0 0 0 0 0 0 0 0 0 0 0 0 0 0 0 127 0" result="hardAlpha"/>
<feOffset dx="1.71429" dy="3.42857"/>
<feGaussianBlur stdDeviation="6.85714"/>
<feComposite in2="hardAlpha" operator="arithmetic" k2="-1" k3="1"/>
<feColorMatrix type="matrix" values="0 0 0 0 0.972549 0 0 0 0 0.972549 0 0 0 0 0.972549 0 0 0 0.06 0"/>
<feBlend mode="normal" in2="shape" result="effect3_innerShadow_3221_10935"/>
</filter>
<filter id="filter2_dd_3221_10935" x="122.828" y="216.501" width="35.0925" height="35.0925" filterUnits="userSpaceOnUse" color-interpolation-filters="sRGB">
<feFlood flood-opacity="0" result="BackgroundImageFix"/>
<feColorMatrix in="SourceAlpha" type="matrix" values="0 0 0 0 0 0 0 0 0 0 0 0 0 0 0 0 0 0 127 0" result="hardAlpha"/>
<feOffset dx="-3.63025" dy="6.05042"/>
<feGaussianBlur stdDeviation="3.63025"/>
<feColorMatrix type="matrix" values="0 0 0 0 0 0 0 0 0 0 0 0 0 0 0 0 0 0 0.2 0"/>
<feBlend mode="normal" in2="BackgroundImageFix" result="effect1_dropShadow_3221_10935"/>
<feColorMatrix in="SourceAlpha" type="matrix" values="0 0 0 0 0 0 0 0 0 0 0 0 0 0 0 0 0 0 127 0" result="hardAlpha"/>
<feOffset dx="-1.21008" dy="2.42017"/>
<feGaussianBlur stdDeviation="1.81513"/>
<feComposite in2="hardAlpha" operator="out"/>
<feColorMatrix type="matrix" values="0 0 0 0 0 0 0 0 0 0 0 0 0 0 0 0 0 0 0.1 0"/>
<feBlend mode="normal" in2="effect1_dropShadow_3221_10935" result="effect2_dropShadow_3221_10935"/>
<feBlend mode="normal" in="SourceGraphic" in2="effect2_dropShadow_3221_10935" result="shape"/>
</filter>
<filter id="filter3_d_3221_10935" x="106.348" y="186.481" width="20.5714" height="20.5715" filterUnits="userSpaceOnUse" color-interpolation-filters="sRGB">
<feFlood flood-opacity="0" result="BackgroundImageFix"/>
<feColorMatrix in="SourceAlpha" type="matrix" values="0 0 0 0 0 0 0 0 0 0 0 0 0 0 0 0 0 0 127 0" result="hardAlpha"/>
<feMorphology radius="1.28571" operator="dilate" in="SourceAlpha" result="effect1_dropShadow_3221_10935"/>
<feOffset/>
<feGaussianBlur stdDeviation="4.28571"/>
<feComposite in2="hardAlpha" operator="out"/>
<feColorMatrix type="matrix" values="0 0 0 0 1 0 0 0 0 1 0 0 0 0 1 0 0 0 0.15 0"/>
<feBlend mode="normal" in2="BackgroundImageFix" result="effect1_dropShadow_3221_10935"/>
<feBlend mode="normal" in="SourceGraphic" in2="effect1_dropShadow_3221_10935" result="shape"/>
</filter>
<filter id="filter4_d_3221_10935" x="181.717" y="244.709" width="14.5714" height="14.5715" filterUnits="userSpaceOnUse" color-interpolation-filters="sRGB">
<feFlood flood-opacity="0" result="BackgroundImageFix"/>
<feColorMatrix in="SourceAlpha" type="matrix" values="0 0 0 0 0 0 0 0 0 0 0 0 0 0 0 0 0 0 127 0" result="hardAlpha"/>
<feMorphology radius="1.28571" operator="dilate" in="SourceAlpha" result="effect1_dropShadow_3221_10935"/>
<feOffset/>
<feGaussianBlur stdDeviation="2.57143"/>
<feComposite in2="hardAlpha" operator="out"/>
<feColorMatrix type="matrix" values="0 0 0 0 1 0 0 0 0 1 0 0 0 0 1 0 0 0 0.3 0"/>
<feBlend mode="normal" in2="BackgroundImageFix" result="effect1_dropShadow_3221_10935"/>
<feBlend mode="normal" in="SourceGraphic" in2="effect1_dropShadow_3221_10935" result="shape"/>
</filter>
<filter id="filter5_bdi_3221_10935" x="34.2857" y="-25.7143" width="219.429" height="219.429" filterUnits="userSpaceOnUse" color-interpolation-filters="sRGB">
<feFlood flood-opacity="0" result="BackgroundImageFix"/>
<feGaussianBlur in="BackgroundImageFix" stdDeviation="42.8571"/>
<feComposite in2="SourceAlpha" operator="in" result="effect1_backgroundBlur_3221_10935"/>
<feColorMatrix in="SourceAlpha" type="matrix" values="0 0 0 0 0 0 0 0 0 0 0 0 0 0 0 0 0 0 127 0" result="hardAlpha"/>
<feMorphology radius="1.28571" operator="dilate" in="SourceAlpha" result="effect2_dropShadow_3221_10935"/>
<feOffset/>
<feComposite in2="hardAlpha" operator="out"/>
<feColorMatrix type="matrix" values="0 0 0 0 0.0705882 0 0 0 0 0.0705882 0 0 0 0 0.0705882 0 0 0 0.2 0"/>
<feBlend mode="normal" in2="effect1_backgroundBlur_3221_10935" result="effect2_dropShadow_3221_10935"/>
<feBlend mode="normal" in="SourceGraphic" in2="effect2_dropShadow_3221_10935" result="shape"/>
<feColorMatrix in="SourceAlpha" type="matrix" values="0 0 0 0 0 0 0 0 0 0 0 0 0 0 0 0 0 0 127 0" result="hardAlpha"/>
<feOffset dx="1.71429" dy="3.42857"/>
<feGaussianBlur stdDeviation="6.85714"/>
<feComposite in2="hardAlpha" operator="arithmetic" k2="-1" k3="1"/>
<feColorMatrix type="matrix" values="0 0 0 0 0.972549 0 0 0 0 0.972549 0 0 0 0 0.972549 0 0 0 0.06 0"/>
<feBlend mode="normal" in2="shape" result="effect3_innerShadow_3221_10935"/>
</filter>
<filter id="filter6_dd_3221_10935" x="122.828" y="72.5009" width="35.0925" height="35.0925" filterUnits="userSpaceOnUse" color-interpolation-filters="sRGB">
<feFlood flood-opacity="0" result="BackgroundImageFix"/>
<feColorMatrix in="SourceAlpha" type="matrix" values="0 0 0 0 0 0 0 0 0 0 0 0 0 0 0 0 0 0 127 0" result="hardAlpha"/>
<feOffset dx="-3.63025" dy="6.05042"/>
<feGaussianBlur stdDeviation="3.63025"/>
<feColorMatrix type="matrix" values="0 0 0 0 0 0 0 0 0 0 0 0 0 0 0 0 0 0 0.2 0"/>
<feBlend mode="normal" in2="BackgroundImageFix" result="effect1_dropShadow_3221_10935"/>
<feColorMatrix in="SourceAlpha" type="matrix" values="0 0 0 0 0 0 0 0 0 0 0 0 0 0 0 0 0 0 127 0" result="hardAlpha"/>
<feOffset dx="-1.21008" dy="2.42017"/>
<feGaussianBlur stdDeviation="1.81513"/>
<feComposite in2="hardAlpha" operator="out"/>
<feColorMatrix type="matrix" values="0 0 0 0 0 0 0 0 0 0 0 0 0 0 0 0 0 0 0.1 0"/>
<feBlend mode="normal" in2="effect1_dropShadow_3221_10935" result="effect2_dropShadow_3221_10935"/>
<feBlend mode="normal" in="SourceGraphic" in2="effect2_dropShadow_3221_10935" result="shape"/>
</filter>
<filter id="filter7_d_3221_10935" x="106.348" y="42.481" width="20.5714" height="20.5715" filterUnits="userSpaceOnUse" color-interpolation-filters="sRGB">
<feFlood flood-opacity="0" result="BackgroundImageFix"/>
<feColorMatrix in="SourceAlpha" type="matrix" values="0 0 0 0 0 0 0 0 0 0 0 0 0 0 0 0 0 0 127 0" result="hardAlpha"/>
<feMorphology radius="1.28571" operator="dilate" in="SourceAlpha" result="effect1_dropShadow_3221_10935"/>
<feOffset/>
<feGaussianBlur stdDeviation="4.28571"/>
<feComposite in2="hardAlpha" operator="out"/>
<feColorMatrix type="matrix" values="0 0 0 0 1 0 0 0 0 1 0 0 0 0 1 0 0 0 0.15 0"/>
<feBlend mode="normal" in2="BackgroundImageFix" result="effect1_dropShadow_3221_10935"/>
<feBlend mode="normal" in="SourceGraphic" in2="effect1_dropShadow_3221_10935" result="shape"/>
</filter>
<filter id="filter8_d_3221_10935" x="181.717" y="100.709" width="14.5714" height="14.5715" filterUnits="userSpaceOnUse" color-interpolation-filters="sRGB">
<feFlood flood-opacity="0" result="BackgroundImageFix"/>
<feColorMatrix in="SourceAlpha" type="matrix" values="0 0 0 0 0 0 0 0 0 0 0 0 0 0 0 0 0 0 127 0" result="hardAlpha"/>
<feMorphology radius="1.28571" operator="dilate" in="SourceAlpha" result="effect1_dropShadow_3221_10935"/>
<feOffset/>
<feGaussianBlur stdDeviation="2.57143"/>
<feComposite in2="hardAlpha" operator="out"/>
<feColorMatrix type="matrix" values="0 0 0 0 1 0 0 0 0 1 0 0 0 0 1 0 0 0 0.3 0"/>
<feBlend mode="normal" in2="BackgroundImageFix" result="effect1_dropShadow_3221_10935"/>
<feBlend mode="normal" in="SourceGraphic" in2="effect1_dropShadow_3221_10935" result="shape"/>
</filter>
<filter id="filter9_d_3221_10935" x="88" y="124" width="272" height="112" filterUnits="userSpaceOnUse" color-interpolation-filters="sRGB">
<feFlood flood-opacity="0" result="BackgroundImageFix"/>
<feColorMatrix in="SourceAlpha" type="matrix" values="0 0 0 0 0 0 0 0 0 0 0 0 0 0 0 0 0 0 127 0" result="hardAlpha"/>
<feOffset dy="24"/>
<feGaussianBlur stdDeviation="12"/>
<feComposite in2="hardAlpha" operator="out"/>
<feColorMatrix type="matrix" values="0 0 0 0 0 0 0 0 0 0 0 0 0 0 0 0 0 0 0.3 0"/>
<feBlend mode="multiply" in2="BackgroundImageFix" result="effect1_dropShadow_3221_10935"/>
<feBlend mode="normal" in="SourceGraphic" in2="effect1_dropShadow_3221_10935" result="shape"/>
</filter>
<filter id="filter10_bdi_3221_10935" x="34.2857" y="46.2857" width="219.429" height="219.429" filterUnits="userSpaceOnUse" color-interpolation-filters="sRGB">
<feFlood flood-opacity="0" result="BackgroundImageFix"/>
<feGaussianBlur in="BackgroundImageFix" stdDeviation="42.8571"/>
<feComposite in2="SourceAlpha" operator="in" result="effect1_backgroundBlur_3221_10935"/>
<feColorMatrix in="SourceAlpha" type="matrix" values="0 0 0 0 0 0 0 0 0 0 0 0 0 0 0 0 0 0 127 0" result="hardAlpha"/>
<feMorphology radius="1.28571" operator="dilate" in="SourceAlpha" result="effect2_dropShadow_3221_10935"/>
<feOffset/>
<feComposite in2="hardAlpha" operator="out"/>
<feColorMatrix type="matrix" values="0 0 0 0 0.0705882 0 0 0 0 0.0705882 0 0 0 0 0.0705882 0 0 0 0.2 0"/>
<feBlend mode="normal" in2="effect1_backgroundBlur_3221_10935" result="effect2_dropShadow_3221_10935"/>
<feBlend mode="normal" in="SourceGraphic" in2="effect2_dropShadow_3221_10935" result="shape"/>
<feColorMatrix in="SourceAlpha" type="matrix" values="0 0 0 0 0 0 0 0 0 0 0 0 0 0 0 0 0 0 127 0" result="hardAlpha"/>
<feOffset dx="1.71429" dy="3.42857"/>
<feGaussianBlur stdDeviation="6.85714"/>
<feComposite in2="hardAlpha" operator="arithmetic" k2="-1" k3="1"/>
<feColorMatrix type="matrix" values="0 0 0 0 0.972549 0 0 0 0 0.972549 0 0 0 0 0.972549 0 0 0 0.06 0"/>
<feBlend mode="normal" in2="shape" result="effect3_innerShadow_3221_10935"/>
</filter>
<filter id="filter11_dd_3221_10935" x="122.828" y="144.501" width="35.0925" height="35.0925" filterUnits="userSpaceOnUse" color-interpolation-filters="sRGB">
<feFlood flood-opacity="0" result="BackgroundImageFix"/>
<feColorMatrix in="SourceAlpha" type="matrix" values="0 0 0 0 0 0 0 0 0 0 0 0 0 0 0 0 0 0 127 0" result="hardAlpha"/>
<feOffset dx="-3.63025" dy="6.05042"/>
<feGaussianBlur stdDeviation="3.63025"/>
<feColorMatrix type="matrix" values="0 0 0 0 0 0 0 0 0 0 0 0 0 0 0 0 0 0 0.2 0"/>
<feBlend mode="normal" in2="BackgroundImageFix" result="effect1_dropShadow_3221_10935"/>
<feColorMatrix in="SourceAlpha" type="matrix" values="0 0 0 0 0 0 0 0 0 0 0 0 0 0 0 0 0 0 127 0" result="hardAlpha"/>
<feOffset dx="-1.21008" dy="2.42017"/>
<feGaussianBlur stdDeviation="1.81513"/>
<feComposite in2="hardAlpha" operator="out"/>
<feColorMatrix type="matrix" values="0 0 0 0 0 0 0 0 0 0 0 0 0 0 0 0 0 0 0.1 0"/>
<feBlend mode="normal" in2="effect1_dropShadow_3221_10935" result="effect2_dropShadow_3221_10935"/>
<feBlend mode="normal" in="SourceGraphic" in2="effect2_dropShadow_3221_10935" result="shape"/>
</filter>
<filter id="filter12_d_3221_10935" x="106.348" y="114.481" width="20.5714" height="20.5715" filterUnits="userSpaceOnUse" color-interpolation-filters="sRGB">
<feFlood flood-opacity="0" result="BackgroundImageFix"/>
<feColorMatrix in="SourceAlpha" type="matrix" values="0 0 0 0 0 0 0 0 0 0 0 0 0 0 0 0 0 0 127 0" result="hardAlpha"/>
<feMorphology radius="1.28571" operator="dilate" in="SourceAlpha" result="effect1_dropShadow_3221_10935"/>
<feOffset/>
<feGaussianBlur stdDeviation="4.28571"/>
<feComposite in2="hardAlpha" operator="out"/>
<feColorMatrix type="matrix" values="0 0 0 0 1 0 0 0 0 1 0 0 0 0 1 0 0 0 0.15 0"/>
<feBlend mode="normal" in2="BackgroundImageFix" result="effect1_dropShadow_3221_10935"/>
<feBlend mode="normal" in="SourceGraphic" in2="effect1_dropShadow_3221_10935" result="shape"/>
</filter>
<filter id="filter13_d_3221_10935" x="181.717" y="172.709" width="14.5714" height="14.5715" filterUnits="userSpaceOnUse" color-interpolation-filters="sRGB">
<feFlood flood-opacity="0" result="BackgroundImageFix"/>
<feColorMatrix in="SourceAlpha" type="matrix" values="0 0 0 0 0 0 0 0 0 0 0 0 0 0 0 0 0 0 127 0" result="hardAlpha"/>
<feMorphology radius="1.28571" operator="dilate" in="SourceAlpha" result="effect1_dropShadow_3221_10935"/>
<feOffset/>
<feGaussianBlur stdDeviation="2.57143"/>
<feComposite in2="hardAlpha" operator="out"/>
<feColorMatrix type="matrix" values="0 0 0 0 1 0 0 0 0 1 0 0 0 0 1 0 0 0 0.3 0"/>
<feBlend mode="normal" in2="BackgroundImageFix" result="effect1_dropShadow_3221_10935"/>
<feBlend mode="normal" in="SourceGraphic" in2="effect1_dropShadow_3221_10935" result="shape"/>
</filter>
<radialGradient id="paint0_radial_3221_10935" cx="0" cy="0" r="1" gradientUnits="userSpaceOnUse" gradientTransform="translate(224 156) rotate(90) scale(156 224)">
<stop stop-color="#D9D9D9"/>
<stop offset="1" stop-color="#737373" stop-opacity="0"/>
</radialGradient>
<radialGradient id="paint1_angular_3221_10935" cx="0" cy="0" r="1" gradientUnits="userSpaceOnUse" gradientTransform="translate(224 156) rotate(90) scale(177 168)">
<stop offset="0.352013" stop-color="white" stop-opacity="0"/>
<stop offset="0.49798" stop-color="white" stop-opacity="0.15"/>
<stop offset="0.648457" stop-color="white" stop-opacity="0"/>
</radialGradient>
<linearGradient id="paint2_linear_3221_10935" x1="144" y1="204" x2="164.881" y2="256.71" gradientUnits="userSpaceOnUse">
<stop stop-color="white" stop-opacity="0.4"/>
<stop offset="0.4" stop-color="white" stop-opacity="0.01"/>
<stop offset="0.6" stop-color="white" stop-opacity="0.01"/>
<stop offset="1" stop-color="white" stop-opacity="0.1"/>
</linearGradient>
<linearGradient id="paint3_linear_3221_10935" x1="144.004" y1="217.711" x2="144.004" y2="238.282" gradientUnits="userSpaceOnUse">
<stop stop-color="#F8F8F8" stop-opacity="0.9"/>
<stop offset="1" stop-color="#F8F8F8" stop-opacity="0.3"/>
</linearGradient>
<linearGradient id="paint4_linear_3221_10935" x1="154.893" y1="241.897" x2="154.465" y2="242.814" gradientUnits="userSpaceOnUse">
<stop offset="0.173306" stop-color="white" stop-opacity="0"/>
<stop offset="1" stop-color="white" stop-opacity="0.3"/>
</linearGradient>
<linearGradient id="paint5_linear_3221_10935" x1="143.998" y1="149.141" x2="143.998" y2="306.855" gradientUnits="userSpaceOnUse">
<stop offset="0.504957" stop-color="white" stop-opacity="0.2"/>
<stop offset="1" stop-color="white" stop-opacity="0"/>
</linearGradient>
<linearGradient id="paint6_linear_3221_10935" x1="143.785" y1="125.57" x2="143.785" y2="329.999" gradientUnits="userSpaceOnUse">
<stop offset="0.504957" stop-color="white" stop-opacity="0.2"/>
<stop offset="1" stop-color="white" stop-opacity="0"/>
</linearGradient>
<linearGradient id="paint7_linear_3221_10935" x1="125.49" y1="219.086" x2="125.276" y2="219.545" gradientUnits="userSpaceOnUse">
<stop offset="0.173306" stop-color="white" stop-opacity="0"/>
<stop offset="1" stop-color="white" stop-opacity="0.3"/>
</linearGradient>
<linearGradient id="paint8_linear_3221_10935" x1="130.256" y1="208.821" x2="130.042" y2="209.279" gradientUnits="userSpaceOnUse">
<stop offset="0.173306" stop-color="white" stop-opacity="0"/>
<stop offset="1" stop-color="white" stop-opacity="0.3"/>
</linearGradient>
<linearGradient id="paint9_linear_3221_10935" x1="120.35" y1="237.43" x2="120.136" y2="237.889" gradientUnits="userSpaceOnUse">
<stop offset="0.173306" stop-color="white" stop-opacity="0"/>
<stop offset="1" stop-color="white" stop-opacity="0.3"/>
</linearGradient>
<linearGradient id="paint10_linear_3221_10935" x1="138.475" y1="222.868" x2="138.261" y2="223.326" gradientUnits="userSpaceOnUse">
<stop offset="0.173306" stop-color="white" stop-opacity="0"/>
<stop offset="1" stop-color="white" stop-opacity="0.3"/>
</linearGradient>
<linearGradient id="paint11_linear_3221_10935" x1="124.756" y1="205.883" x2="124.542" y2="206.342" gradientUnits="userSpaceOnUse">
<stop offset="0.173306" stop-color="white" stop-opacity="0"/>
<stop offset="1" stop-color="white" stop-opacity="0.3"/>
</linearGradient>
<linearGradient id="paint12_linear_3221_10935" x1="126.454" y1="230.624" x2="126.026" y2="231.541" gradientUnits="userSpaceOnUse">
<stop offset="0.173306" stop-color="white" stop-opacity="0"/>
<stop offset="1" stop-color="white" stop-opacity="0.3"/>
</linearGradient>
<linearGradient id="paint13_linear_3221_10935" x1="115.196" y1="227.015" x2="114.768" y2="227.932" gradientUnits="userSpaceOnUse">
<stop offset="0.173306" stop-color="white" stop-opacity="0"/>
<stop offset="1" stop-color="white" stop-opacity="0.3"/>
</linearGradient>
<linearGradient id="paint14_linear_3221_10935" x1="144" y1="60" x2="164.881" y2="112.71" gradientUnits="userSpaceOnUse">
<stop stop-color="white" stop-opacity="0.4"/>
<stop offset="0.4" stop-color="white" stop-opacity="0.01"/>
<stop offset="0.6" stop-color="white" stop-opacity="0.01"/>
<stop offset="1" stop-color="white" stop-opacity="0.1"/>
</linearGradient>
<linearGradient id="paint15_linear_3221_10935" x1="144.004" y1="73.7109" x2="144.004" y2="94.2824" gradientUnits="userSpaceOnUse">
<stop stop-color="#F8F8F8" stop-opacity="0.9"/>
<stop offset="1" stop-color="#F8F8F8" stop-opacity="0.3"/>
</linearGradient>
<linearGradient id="paint16_linear_3221_10935" x1="154.893" y1="97.8969" x2="154.465" y2="98.8139" gradientUnits="userSpaceOnUse">
<stop offset="0.173306" stop-color="white" stop-opacity="0"/>
<stop offset="1" stop-color="white" stop-opacity="0.3"/>
</linearGradient>
<linearGradient id="paint17_linear_3221_10935" x1="143.998" y1="5.14062" x2="143.998" y2="162.855" gradientUnits="userSpaceOnUse">
<stop offset="0.504957" stop-color="white" stop-opacity="0.2"/>
<stop offset="1" stop-color="white" stop-opacity="0"/>
</linearGradient>
<linearGradient id="paint18_linear_3221_10935" x1="143.785" y1="-18.4297" x2="143.785" y2="185.999" gradientUnits="userSpaceOnUse">
<stop offset="0.504957" stop-color="white" stop-opacity="0.2"/>
<stop offset="1" stop-color="white" stop-opacity="0"/>
</linearGradient>
<linearGradient id="paint19_linear_3221_10935" x1="125.49" y1="75.0863" x2="125.276" y2="75.5447" gradientUnits="userSpaceOnUse">
<stop offset="0.173306" stop-color="white" stop-opacity="0"/>
<stop offset="1" stop-color="white" stop-opacity="0.3"/>
</linearGradient>
<linearGradient id="paint20_linear_3221_10935" x1="130.256" y1="64.8206" x2="130.042" y2="65.2791" gradientUnits="userSpaceOnUse">
<stop offset="0.173306" stop-color="white" stop-opacity="0"/>
<stop offset="1" stop-color="white" stop-opacity="0.3"/>
</linearGradient>
<linearGradient id="paint21_linear_3221_10935" x1="120.35" y1="93.43" x2="120.136" y2="93.8885" gradientUnits="userSpaceOnUse">
<stop offset="0.173306" stop-color="white" stop-opacity="0"/>
<stop offset="1" stop-color="white" stop-opacity="0.3"/>
</linearGradient>
<linearGradient id="paint22_linear_3221_10935" x1="138.475" y1="78.8675" x2="138.261" y2="79.326" gradientUnits="userSpaceOnUse">
<stop offset="0.173306" stop-color="white" stop-opacity="0"/>
<stop offset="1" stop-color="white" stop-opacity="0.3"/>
</linearGradient>
<linearGradient id="paint23_linear_3221_10935" x1="124.756" y1="61.8831" x2="124.542" y2="62.3416" gradientUnits="userSpaceOnUse">
<stop offset="0.173306" stop-color="white" stop-opacity="0"/>
<stop offset="1" stop-color="white" stop-opacity="0.3"/>
</linearGradient>
<linearGradient id="paint24_linear_3221_10935" x1="126.454" y1="86.6244" x2="126.026" y2="87.5414" gradientUnits="userSpaceOnUse">
<stop offset="0.173306" stop-color="white" stop-opacity="0"/>
<stop offset="1" stop-color="white" stop-opacity="0.3"/>
</linearGradient>
<linearGradient id="paint25_linear_3221_10935" x1="115.196" y1="83.015" x2="114.768" y2="83.932" gradientUnits="userSpaceOnUse">
<stop offset="0.173306" stop-color="white" stop-opacity="0"/>
<stop offset="1" stop-color="white" stop-opacity="0.3"/>
</linearGradient>
<linearGradient id="paint26_linear_3221_10935" x1="224" y1="53" x2="224" y2="259" gradientUnits="userSpaceOnUse">
<stop offset="0.114577" stop-color="white" stop-opacity="0"/>
<stop offset="0.501691" stop-color="white"/>
<stop offset="1" stop-color="white" stop-opacity="0"/>
</linearGradient>
<linearGradient id="paint27_linear_3221_10935" x1="224" y1="292" x2="224" y2="564" gradientUnits="userSpaceOnUse">
<stop offset="0.114577" stop-color="white" stop-opacity="0"/>
<stop offset="0.501691" stop-color="white"/>
<stop offset="1" stop-color="white" stop-opacity="0"/>
</linearGradient>
<linearGradient id="paint28_linear_3221_10935" x1="144" y1="132" x2="164.881" y2="184.71" gradientUnits="userSpaceOnUse">
<stop stop-color="white" stop-opacity="0.4"/>
<stop offset="0.4" stop-color="white" stop-opacity="0.01"/>
<stop offset="0.6" stop-color="white" stop-opacity="0.01"/>
<stop offset="1" stop-color="white" stop-opacity="0.1"/>
</linearGradient>
<linearGradient id="paint29_linear_3221_10935" x1="144.004" y1="145.711" x2="144.004" y2="166.282" gradientUnits="userSpaceOnUse">
<stop stop-color="#F8F8F8" stop-opacity="0.9"/>
<stop offset="1" stop-color="#F8F8F8" stop-opacity="0.3"/>
</linearGradient>
<linearGradient id="paint30_linear_3221_10935" x1="154.893" y1="169.897" x2="154.465" y2="170.814" gradientUnits="userSpaceOnUse">
<stop offset="0.173306" stop-color="white" stop-opacity="0"/>
<stop offset="1" stop-color="white" stop-opacity="0.3"/>
</linearGradient>
<linearGradient id="paint31_linear_3221_10935" x1="143.998" y1="77.1406" x2="143.998" y2="234.855" gradientUnits="userSpaceOnUse">
<stop offset="0.504957" stop-color="white" stop-opacity="0.2"/>
<stop offset="1" stop-color="white" stop-opacity="0"/>
</linearGradient>
<linearGradient id="paint32_linear_3221_10935" x1="143.785" y1="53.5703" x2="143.785" y2="257.999" gradientUnits="userSpaceOnUse">
<stop offset="0.504957" stop-color="white" stop-opacity="0.2"/>
<stop offset="1" stop-color="white" stop-opacity="0"/>
</linearGradient>
<linearGradient id="paint33_linear_3221_10935" x1="125.49" y1="147.086" x2="125.276" y2="147.545" gradientUnits="userSpaceOnUse">
<stop offset="0.173306" stop-color="white" stop-opacity="0"/>
<stop offset="1" stop-color="white" stop-opacity="0.3"/>
</linearGradient>
<linearGradient id="paint34_linear_3221_10935" x1="130.256" y1="136.821" x2="130.042" y2="137.279" gradientUnits="userSpaceOnUse">
<stop offset="0.173306" stop-color="white" stop-opacity="0"/>
<stop offset="1" stop-color="white" stop-opacity="0.3"/>
</linearGradient>
<linearGradient id="paint35_linear_3221_10935" x1="120.35" y1="165.43" x2="120.136" y2="165.889" gradientUnits="userSpaceOnUse">
<stop offset="0.173306" stop-color="white" stop-opacity="0"/>
<stop offset="1" stop-color="white" stop-opacity="0.3"/>
</linearGradient>
<linearGradient id="paint36_linear_3221_10935" x1="138.475" y1="150.868" x2="138.261" y2="151.326" gradientUnits="userSpaceOnUse">
<stop offset="0.173306" stop-color="white" stop-opacity="0"/>
<stop offset="1" stop-color="white" stop-opacity="0.3"/>
</linearGradient>
<linearGradient id="paint37_linear_3221_10935" x1="124.756" y1="133.883" x2="124.542" y2="134.342" gradientUnits="userSpaceOnUse">
<stop offset="0.173306" stop-color="white" stop-opacity="0"/>
<stop offset="1" stop-color="white" stop-opacity="0.3"/>
</linearGradient>
<linearGradient id="paint38_linear_3221_10935" x1="126.454" y1="158.624" x2="126.026" y2="159.541" gradientUnits="userSpaceOnUse">
<stop offset="0.173306" stop-color="white" stop-opacity="0"/>
<stop offset="1" stop-color="white" stop-opacity="0.3"/>
</linearGradient>
<linearGradient id="paint39_linear_3221_10935" x1="115.196" y1="155.015" x2="114.768" y2="155.932" gradientUnits="userSpaceOnUse">
<stop offset="0.173306" stop-color="white" stop-opacity="0"/>
<stop offset="1" stop-color="white" stop-opacity="0.3"/>
</linearGradient>
<linearGradient id="paint40_linear_3221_10935" x1="224" y1="124" x2="233.087" y2="204.281" gradientUnits="userSpaceOnUse">
<stop stop-color="white" stop-opacity="0.4"/>
<stop offset="0.4" stop-color="white" stop-opacity="0.01"/>
<stop offset="0.6" stop-color="white" stop-opacity="0.01"/>
<stop offset="1" stop-color="white" stop-opacity="0.1"/>
</linearGradient>
<clipPath id="clip0_3221_10935">
<rect x="112" y="196" width="224" height="64" rx="16" fill="white"/>
</clipPath>
<clipPath id="clip1_3221_10935">
<rect x="112" y="52" width="224" height="64" rx="16" fill="white"/>
</clipPath>
<clipPath id="clip2_3221_10935">
<rect x="112" y="124" width="224" height="64" rx="16" fill="white"/>
</clipPath>
</defs>
</svg>
