<svg width="370" height="237" viewBox="0 0 370 237" fill="none" xmlns="http://www.w3.org/2000/svg">
<g opacity="0.4">
<path d="M94.375 103.289C94.5821 103.289 94.75 103.114 94.75 102.898C94.75 102.683 94.5821 102.508 94.375 102.508C94.1679 102.508 94 102.683 94 102.898C94 103.114 94.1679 103.289 94.375 103.289Z" fill="white"/>
<path d="M161.875 111.102C162.082 111.102 162.25 110.927 162.25 110.711C162.25 110.495 162.082 110.32 161.875 110.32C161.668 110.32 161.5 110.495 161.5 110.711C161.5 110.927 161.668 111.102 161.875 111.102Z" fill="white"/>
<path d="M229.375 72.0313C229.582 72.0313 229.75 71.8564 229.75 71.6406C229.75 71.4249 229.582 71.25 229.375 71.25C229.168 71.25 229 71.4249 229 71.6406C229 71.8564 229.168 72.0313 229.375 72.0313Z" fill="white"/>
<path opacity="0.4" d="M296.875 1.71878C297.082 1.71878 297.25 1.54388 297.25 1.32814C297.25 1.1124 297.082 0.9375 296.875 0.9375C296.668 0.9375 296.5 1.1124 296.5 1.32814C296.5 1.54388 296.668 1.71878 296.875 1.71878Z" fill="white"/>
<path d="M221.875 126.727C222.082 126.727 222.25 126.552 222.25 126.336C222.25 126.12 222.082 125.945 221.875 125.945C221.668 125.945 221.5 126.12 221.5 126.336C221.5 126.552 221.668 126.727 221.875 126.727Z" fill="white"/>
<path d="M334.375 79.8438C334.582 79.8438 334.75 79.6689 334.75 79.4531C334.75 79.2374 334.582 79.0625 334.375 79.0625C334.168 79.0625 334 79.2374 334 79.4531C334 79.6689 334.168 79.8438 334.375 79.8438Z" fill="white"/>
<path d="M349.375 72.0313C349.582 72.0313 349.75 71.8564 349.75 71.6406C349.75 71.4249 349.582 71.25 349.375 71.25C349.168 71.25 349 71.4249 349 71.6406C349 71.8564 349.168 72.0313 349.375 72.0313Z" fill="white"/>
<path d="M356.875 1.71878C357.082 1.71878 357.25 1.54388 357.25 1.32814C357.25 1.1124 357.082 0.9375 356.875 0.9375C356.668 0.9375 356.5 1.1124 356.5 1.32814C356.5 1.54388 356.668 1.71878 356.875 1.71878Z" fill="white"/>
<path opacity="0.5" d="M250.375 9.53128C250.582 9.53128 250.75 9.35638 250.75 9.14064C250.75 8.9249 250.582 8.75 250.375 8.75C250.168 8.75 250 8.9249 250 9.14064C250 9.35638 250.168 9.53128 250.375 9.53128Z" fill="white"/>
<path opacity="0.4" d="M159.625 64.2188C159.832 64.2188 160 64.0439 160 63.8281C160 63.6124 159.832 63.4375 159.625 63.4375C159.418 63.4375 159.25 63.6124 159.25 63.8281C159.25 64.0439 159.418 64.2188 159.625 64.2188Z" fill="white"/>
<path d="M61.375 150.164C61.5821 150.164 61.75 149.989 61.75 149.773C61.75 149.558 61.5821 149.383 61.375 149.383C61.1679 149.383 61 149.558 61 149.773C61 149.989 61.1679 150.164 61.375 150.164Z" fill="white"/>
<path d="M369.625 53.2813C369.832 53.2813 370 53.1064 370 52.8906C370 52.6749 369.832 52.5 369.625 52.5C369.418 52.5 369.25 52.6749 369.25 52.8906C369.25 53.1064 369.418 53.2813 369.625 53.2813Z" fill="white"/>
<path d="M0.625 236.102C0.832107 236.102 1 235.927 1 235.711C1 235.495 0.832107 235.32 0.625 235.32C0.417893 235.32 0.25 235.495 0.25 235.711C0.25 235.927 0.417893 236.102 0.625 236.102Z" fill="white"/>
</g>
</svg>
