<svg width="1110" height="838" viewBox="0 0 1110 838" fill="none" xmlns="http://www.w3.org/2000/svg">
<g style="mix-blend-mode:overlay" clip-path="url(#clip0_3247_18802)" filter="url(#filter0_f_3247_18802)">
<g opacity="0.4">
<path d="M282.375 118.289C282.582 118.289 282.75 118.114 282.75 117.898C282.75 117.683 282.582 117.508 282.375 117.508C282.168 117.508 282 117.683 282 117.898C282 118.114 282.168 118.289 282.375 118.289Z" fill="white"/>
<path d="M349.875 126.102C350.082 126.102 350.25 125.927 350.25 125.711C350.25 125.495 350.082 125.32 349.875 125.32C349.668 125.32 349.5 125.495 349.5 125.711C349.5 125.927 349.668 126.102 349.875 126.102Z" fill="white"/>
<path d="M417.375 87.0313C417.582 87.0313 417.75 86.8564 417.75 86.6406C417.75 86.4249 417.582 86.25 417.375 86.25C417.168 86.25 417 86.4249 417 86.6406C417 86.8564 417.168 87.0313 417.375 87.0313Z" fill="white"/>
<path opacity="0.4" d="M484.875 16.7188C485.082 16.7188 485.25 16.5439 485.25 16.3281C485.25 16.1124 485.082 15.9375 484.875 15.9375C484.668 15.9375 484.5 16.1124 484.5 16.3281C484.5 16.5439 484.668 16.7188 484.875 16.7188Z" fill="white"/>
<path d="M409.875 141.727C410.082 141.727 410.25 141.552 410.25 141.336C410.25 141.12 410.082 140.945 409.875 140.945C409.668 140.945 409.5 141.12 409.5 141.336C409.5 141.552 409.668 141.727 409.875 141.727Z" fill="white"/>
<path d="M522.375 94.8438C522.582 94.8438 522.75 94.6689 522.75 94.4531C522.75 94.2374 522.582 94.0625 522.375 94.0625C522.168 94.0625 522 94.2374 522 94.4531C522 94.6689 522.168 94.8438 522.375 94.8438Z" fill="white"/>
<path d="M537.375 87.0313C537.582 87.0313 537.75 86.8564 537.75 86.6406C537.75 86.4249 537.582 86.25 537.375 86.25C537.168 86.25 537 86.4249 537 86.6406C537 86.8564 537.168 87.0313 537.375 87.0313Z" fill="white"/>
<path d="M544.875 16.7188C545.082 16.7188 545.25 16.5439 545.25 16.3281C545.25 16.1124 545.082 15.9375 544.875 15.9375C544.668 15.9375 544.5 16.1124 544.5 16.3281C544.5 16.5439 544.668 16.7188 544.875 16.7188Z" fill="white"/>
<path opacity="0.5" d="M438.375 24.5313C438.582 24.5313 438.75 24.3564 438.75 24.1406C438.75 23.9249 438.582 23.75 438.375 23.75C438.168 23.75 438 23.9249 438 24.1406C438 24.3564 438.168 24.5313 438.375 24.5313Z" fill="white"/>
<path opacity="0.4" d="M347.625 79.2188C347.832 79.2188 348 79.0439 348 78.8281C348 78.6124 347.832 78.4375 347.625 78.4375C347.418 78.4375 347.25 78.6124 347.25 78.8281C347.25 79.0439 347.418 79.2188 347.625 79.2188Z" fill="white"/>
<path d="M249.375 165.164C249.582 165.164 249.75 164.989 249.75 164.773C249.75 164.558 249.582 164.383 249.375 164.383C249.168 164.383 249 164.558 249 164.773C249 164.989 249.168 165.164 249.375 165.164Z" fill="white"/>
<path d="M557.625 68.2813C557.832 68.2813 558 68.1064 558 67.8906C558 67.6749 557.832 67.5 557.625 67.5C557.418 67.5 557.25 67.6749 557.25 67.8906C557.25 68.1064 557.418 68.2813 557.625 68.2813Z" fill="white"/>
<path d="M188.625 251.102C188.832 251.102 189 250.927 189 250.711C189 250.495 188.832 250.32 188.625 250.32C188.418 250.32 188.25 250.495 188.25 250.711C188.25 250.927 188.418 251.102 188.625 251.102Z" fill="white"/>
</g>
<g style="mix-blend-mode:overlay" filter="url(#filter1_f_3247_18802)">
<path opacity="0.1" d="M-49.5 171.235L266.633 143.891L277.486 833.495L-49.5 171.235Z" fill="#BDFFDF"/>
</g>
<g style="mix-blend-mode:overlay" filter="url(#filter2_f_3247_18802)">
<path opacity="0.1" d="M1148.58 264.204L832.446 236.859L821.594 926.464L1148.58 264.204Z" fill="#FFBDE8"/>
</g>
<g opacity="0.2" filter="url(#filter3_f_3247_18802)">
<path d="M512.25 548.774C512.25 538.418 504.191 530.023 494.25 530.023C484.309 530.023 476.25 538.418 476.25 548.774V555.024C476.25 565.38 484.309 573.775 494.25 573.775C504.191 573.775 512.25 565.38 512.25 555.024V548.774Z" fill="#5E6AD2"/>
</g>
</g>
<defs>
<filter id="filter0_f_3247_18802" x="0" y="-10" width="1110" height="848" filterUnits="userSpaceOnUse" color-interpolation-filters="sRGB">
<feFlood flood-opacity="0" result="BackgroundImageFix"/>
<feBlend mode="normal" in="SourceGraphic" in2="BackgroundImageFix" result="shape"/>
<feGaussianBlur stdDeviation="7.5" result="effect1_foregroundBlur_3247_18802"/>
</filter>
<filter id="filter1_f_3247_18802" x="-177.5" y="15.8906" width="582.985" height="945.604" filterUnits="userSpaceOnUse" color-interpolation-filters="sRGB">
<feFlood flood-opacity="0" result="BackgroundImageFix"/>
<feBlend mode="normal" in="SourceGraphic" in2="BackgroundImageFix" result="shape"/>
<feGaussianBlur stdDeviation="64" result="effect1_foregroundBlur_3247_18802"/>
</filter>
<filter id="filter2_f_3247_18802" x="693.594" y="108.859" width="582.985" height="945.604" filterUnits="userSpaceOnUse" color-interpolation-filters="sRGB">
<feFlood flood-opacity="0" result="BackgroundImageFix"/>
<feBlend mode="normal" in="SourceGraphic" in2="BackgroundImageFix" result="shape"/>
<feGaussianBlur stdDeviation="64" result="effect1_foregroundBlur_3247_18802"/>
</filter>
<filter id="filter3_f_3247_18802" x="400.25" y="454.023" width="188" height="195.752" filterUnits="userSpaceOnUse" color-interpolation-filters="sRGB">
<feFlood flood-opacity="0" result="BackgroundImageFix"/>
<feBlend mode="normal" in="SourceGraphic" in2="BackgroundImageFix" result="shape"/>
<feGaussianBlur stdDeviation="38" result="effect1_foregroundBlur_3247_18802"/>
</filter>
<clipPath id="clip0_3247_18802">
<rect width="1080" height="818" fill="white" transform="translate(15 5)"/>
</clipPath>
</defs>
</svg>
