<svg width="1110" height="322" viewBox="0 0 1110 322" fill="none" xmlns="http://www.w3.org/2000/svg">
<g style="mix-blend-mode:overlay" clip-path="url(#clip0_1_6167)" filter="url(#filter0_f_1_6167)">
<g style="mix-blend-mode:overlay" filter="url(#filter1_f_1_6167)">
<path opacity="0.1" d="M-49.5 -114.765L266.633 -142.109L277.486 547.495L-49.5 -114.765Z" fill="#BDFFDF"/>
</g>
<g style="mix-blend-mode:overlay" filter="url(#filter2_f_1_6167)">
<path opacity="0.1" d="M1148.58 -21.7958L832.446 -49.1406L821.594 640.464L1148.58 -21.7958Z" fill="#FFBDE8"/>
</g>
<g opacity="0.2" filter="url(#filter3_f_1_6167)">
<path d="M512.25 262.774C512.25 252.418 504.191 244.023 494.25 244.023C484.309 244.023 476.25 252.418 476.25 262.774V269.024C476.25 279.38 484.309 287.775 494.25 287.775C504.191 287.775 512.25 279.38 512.25 269.024V262.774Z" fill="#5E6AD2"/>
</g>
</g>
<defs>
<filter id="filter0_f_1_6167" x="0" y="-296" width="1110" height="848" filterUnits="userSpaceOnUse" color-interpolation-filters="sRGB">
<feFlood flood-opacity="0" result="BackgroundImageFix"/>
<feBlend mode="normal" in="SourceGraphic" in2="BackgroundImageFix" result="shape"/>
<feGaussianBlur stdDeviation="7.5" result="effect1_foregroundBlur_1_6167"/>
</filter>
<filter id="filter1_f_1_6167" x="-177.5" y="-270.109" width="582.986" height="945.604" filterUnits="userSpaceOnUse" color-interpolation-filters="sRGB">
<feFlood flood-opacity="0" result="BackgroundImageFix"/>
<feBlend mode="normal" in="SourceGraphic" in2="BackgroundImageFix" result="shape"/>
<feGaussianBlur stdDeviation="64" result="effect1_foregroundBlur_1_6167"/>
</filter>
<filter id="filter2_f_1_6167" x="693.594" y="-177.141" width="582.985" height="945.604" filterUnits="userSpaceOnUse" color-interpolation-filters="sRGB">
<feFlood flood-opacity="0" result="BackgroundImageFix"/>
<feBlend mode="normal" in="SourceGraphic" in2="BackgroundImageFix" result="shape"/>
<feGaussianBlur stdDeviation="64" result="effect1_foregroundBlur_1_6167"/>
</filter>
<filter id="filter3_f_1_6167" x="400.25" y="168.023" width="188" height="195.752" filterUnits="userSpaceOnUse" color-interpolation-filters="sRGB">
<feFlood flood-opacity="0" result="BackgroundImageFix"/>
<feBlend mode="normal" in="SourceGraphic" in2="BackgroundImageFix" result="shape"/>
<feGaussianBlur stdDeviation="38" result="effect1_foregroundBlur_1_6167"/>
</filter>
<clipPath id="clip0_1_6167">
<rect width="1080" height="818" fill="white" transform="translate(15 -281)"/>
</clipPath>
</defs>
</svg>
