<svg width="448" height="360" viewBox="0 0 448 360" fill="none" xmlns="http://www.w3.org/2000/svg">
<mask id="mask0_3221_10849" style="mask-type:alpha" maskUnits="userSpaceOnUse" x="0" y="0" width="448" height="328">
<rect width="448" height="328" fill="url(#paint0_radial_3221_10849)"/>
</mask>
<g mask="url(#mask0_3221_10849)">
<path d="M103 284.5V245.506C103 241.335 104.629 237.328 107.54 234.34L155.46 185.16C158.371 182.172 160 178.165 160 173.994V156.5C160 147.663 167.163 140.5 176 140.5H253.42C257.636 140.5 261.68 138.837 264.676 135.871L358.5 43" stroke="#F8F8F8" stroke-width="1.5"/>
<path d="M103 284.5V245.506C103 241.335 104.629 237.328 107.54 234.34L155.46 185.16C158.371 182.172 160 178.165 160 173.994V156.5C160 147.663 167.163 140.5 176 140.5H224.5" stroke="#F8F8F8" stroke-width="1.5"/>
<path opacity="0.1" d="M56.5 191.5H425.5" stroke="#F8F8F8" stroke-width="1.5"/>
<path opacity="0.1" d="M118 94L154.837 155.247C157.73 160.058 162.934 163 168.548 163H356.5C365.337 163 372.5 170.163 372.5 179V283" stroke="#F8F8F8" stroke-width="1.5"/>
<path opacity="0.1" d="M80 191.5V109.5C80 100.663 87.1634 93.5 96 93.5H474.5" stroke="#F8F8F8" stroke-width="1.5"/>
<path opacity="0.1" d="M81 -37.5V77.5C81 86.3366 88.1634 93.5 97 93.5H474" stroke="#F8F8F8" stroke-width="1.5"/>
<path opacity="0.1" d="M58 261H292C300.837 261 308 253.837 308 245V-10" stroke="#F8F8F8" stroke-width="1.5"/>
<path opacity="0.1" d="M147.5 285.5L220.877 195.922C223.22 193.063 224.5 189.48 224.5 185.783V-24.5" stroke="#F8F8F8" stroke-width="1.5"/>
<g filter="url(#filter0_bdi_3221_10849)">
<circle cx="308" cy="192" r="6" fill="#F8F8F8" fill-opacity="0.01" shape-rendering="crispEdges"/>
<circle cx="308" cy="192" r="6" fill="#121212" fill-opacity="0.3" shape-rendering="crispEdges"/>
<circle cx="308" cy="192" r="5.5" stroke="url(#paint1_linear_3221_10849)" stroke-opacity="0.25" shape-rendering="crispEdges"/>
</g>
<circle cx="308" cy="192" r="3" fill="#F8F8F8"/>
<g filter="url(#filter1_bdi_3221_10849)">
<circle cx="80" cy="191" r="6" fill="#F8F8F8" fill-opacity="0.01" shape-rendering="crispEdges"/>
<circle cx="80" cy="191" r="6" fill="#121212" fill-opacity="0.3" shape-rendering="crispEdges"/>
<circle cx="80" cy="191" r="5.5" stroke="url(#paint2_linear_3221_10849)" stroke-opacity="0.25" shape-rendering="crispEdges"/>
</g>
<circle cx="80" cy="191" r="3" fill="#F8F8F8"/>
<g filter="url(#filter2_bdi_3221_10849)">
<circle cx="160" cy="161" r="6" fill="#F8F8F8" fill-opacity="0.01" shape-rendering="crispEdges"/>
<circle cx="160" cy="161" r="6" fill="#121212" fill-opacity="0.3" shape-rendering="crispEdges"/>
<circle cx="160" cy="161" r="5.5" stroke="url(#paint3_linear_3221_10849)" stroke-opacity="0.25" shape-rendering="crispEdges"/>
</g>
<circle cx="160" cy="161" r="3" fill="#F8F8F8"/>
<g filter="url(#filter3_bdi_3221_10849)">
<circle cx="225" cy="192" r="6" fill="#F8F8F8" fill-opacity="0.01" shape-rendering="crispEdges"/>
<circle cx="225" cy="192" r="6" fill="#121212" fill-opacity="0.3" shape-rendering="crispEdges"/>
<circle cx="225" cy="192" r="5.5" stroke="url(#paint4_linear_3221_10849)" stroke-opacity="0.25" shape-rendering="crispEdges"/>
</g>
<circle cx="225" cy="192" r="3" fill="#F8F8F8"/>
<circle cx="225" cy="140" r="3" fill="#F8F8F8"/>
<g filter="url(#filter4_bdi_3221_10849)">
<circle cx="120" cy="94" r="6" fill="#F8F8F8" fill-opacity="0.01" shape-rendering="crispEdges"/>
<circle cx="120" cy="94" r="6" fill="#121212" fill-opacity="0.3" shape-rendering="crispEdges"/>
<circle cx="120" cy="94" r="5.5" stroke="url(#paint5_linear_3221_10849)" stroke-opacity="0.25" shape-rendering="crispEdges"/>
</g>
<circle cx="120" cy="94" r="3" fill="#F8F8F8"/>
<g filter="url(#filter5_bdi_3221_10849)">
<circle cx="225" cy="94" r="6" fill="#F8F8F8" fill-opacity="0.01" shape-rendering="crispEdges"/>
<circle cx="225" cy="94" r="6" fill="#121212" fill-opacity="0.3" shape-rendering="crispEdges"/>
<circle cx="225" cy="94" r="5.5" stroke="url(#paint6_linear_3221_10849)" stroke-opacity="0.25" shape-rendering="crispEdges"/>
</g>
<circle cx="225" cy="94" r="3" fill="#F8F8F8"/>
<g filter="url(#filter6_bdi_3221_10849)">
<circle cx="308" cy="161" r="6" fill="#F8F8F8" fill-opacity="0.01" shape-rendering="crispEdges"/>
<circle cx="308" cy="161" r="6" fill="#121212" fill-opacity="0.3" shape-rendering="crispEdges"/>
<circle cx="308" cy="161" r="5.5" stroke="url(#paint7_linear_3221_10849)" stroke-opacity="0.25" shape-rendering="crispEdges"/>
</g>
<circle cx="308" cy="161" r="3" fill="#F8F8F8"/>
</g>
<g filter="url(#filter7_di_3221_10849)">
<g clip-path="url(#clip0_3221_10849)">
<g filter="url(#filter8_bdi_3221_10849)">
<g clip-path="url(#clip1_3221_10849)">
<rect x="214.5" y="23" width="184" height="50" rx="4" fill="#F8F8F8" fill-opacity="0.01" shape-rendering="crispEdges"/>
<rect x="214.5" y="23" width="184" height="50" rx="4" fill="#121212" fill-opacity="0.3" shape-rendering="crispEdges"/>
<path fill-rule="evenodd" clip-rule="evenodd" d="M235.407 31.8181C235.377 31.7395 235.308 31.6818 235.226 31.6649C235.143 31.6481 235.057 31.6743 234.998 31.7346L230.564 36.2707C230.482 36.355 230.47 36.4857 230.536 36.5834C230.602 36.681 230.728 36.7188 230.837 36.6736L234.652 35.0924L238.643 41.4749C238.711 41.5836 238.85 41.6227 238.965 41.5652C239.079 41.5077 239.131 41.3726 239.084 41.2532L235.407 31.8181ZM232.99 37.9919C233.054 37.8814 233.024 37.7404 232.92 37.6657C232.816 37.5911 232.673 37.6073 232.589 37.7031L226.562 44.5422C226.504 44.6078 226.485 44.6991 226.512 44.7824C226.539 44.8657 226.607 44.9287 226.693 44.9483L232.719 46.3335C232.834 46.3599 232.951 46.3022 233.001 46.1953C233.05 46.0885 233.017 45.9618 232.923 45.8919L229.76 43.554L232.99 37.9919ZM240.993 39.6178C240.954 39.5028 240.837 39.4331 240.717 39.4529C240.598 39.4728 240.51 39.5764 240.51 39.6979V43.5951L233.154 43.7391C233.026 43.7416 232.921 43.8416 232.912 43.9697C232.902 44.0978 232.993 44.2117 233.119 44.2324L242.712 45.7965C242.798 45.8106 242.885 45.7784 242.941 45.7118C242.998 45.6452 243.015 45.554 242.987 45.4714L240.993 39.6178Z" fill="white" stroke="white" stroke-width="0.2" stroke-linecap="round" stroke-linejoin="round"/>
<path d="M267.539 43.902C267.091 44.098 266.461 44.224 265.817 44.224C262.961 44.224 261.323 41.928 261.323 39.044C261.323 36.146 262.947 33.836 265.817 33.836C268.729 33.836 270.325 36.146 270.325 39.044C270.325 40.878 269.653 42.488 268.421 43.412L269.653 44.966H268.365L267.539 43.902ZM265.817 43.048C266.223 43.048 266.545 43.006 266.783 42.894L265.341 41.088H266.629L267.693 42.488C268.603 41.76 269.065 40.584 269.065 39.044C269.065 36.846 268.001 35.012 265.817 35.012C263.633 35.012 262.583 36.846 262.583 39.044C262.583 41.228 263.661 43.048 265.817 43.048ZM274.57 44.168C273.086 44.168 272.134 43.118 272.134 41.354V36.58H273.31V41.032C273.31 42.474 273.814 43.132 274.878 43.132C276.054 43.132 276.768 42.334 276.768 41.004V36.58H277.944V44H276.824V42.796C276.418 43.678 275.634 44.168 274.57 44.168ZM282.23 44.168C280.69 44.168 279.724 43.426 279.724 42.152C279.724 40.892 280.438 40.192 282.062 39.884L284.694 39.394C284.694 38.148 284.106 37.532 282.93 37.532C281.894 37.532 281.32 38.008 281.096 38.862L279.85 38.764C280.13 37.364 281.25 36.412 282.93 36.412C284.834 36.412 285.87 37.56 285.87 39.436V42.502C285.87 42.838 285.982 42.964 286.262 42.964H286.556V44C286.472 44.014 286.29 44.028 286.108 44.028C285.212 44.028 284.806 43.678 284.708 42.852C284.344 43.622 283.322 44.168 282.23 44.168ZM282.342 43.132C283.826 43.132 284.694 42.18 284.694 40.948V40.416L282.286 40.864C281.278 41.046 280.956 41.424 280.956 42.04C280.956 42.74 281.474 43.132 282.342 43.132ZM288.102 44V36.58H289.18L289.208 37.91C289.6 36.888 290.468 36.412 291.49 36.412C293.184 36.412 293.996 37.658 293.996 39.226V44H292.82V39.562C292.82 38.19 292.358 37.448 291.238 37.448C290.09 37.448 289.278 38.19 289.278 39.562V44H288.102ZM298.529 44C297.185 44 296.555 43.412 296.555 42.096V37.616H295.463V36.58H296.555V34.844H297.731V36.58H299.705V37.616H297.731V42.068C297.731 42.74 298.025 42.964 298.641 42.964H299.705V44H298.529ZM304.109 44L300.511 34.06H301.827L304.907 42.684L307.973 34.06H309.289L305.691 44H304.109ZM310.87 44V34.06H314.44C316.652 34.06 317.954 35.18 317.954 37.07C317.954 38.988 316.652 40.136 314.44 40.136H312.074V44H310.87ZM314.44 38.96C315.938 38.96 316.694 38.316 316.694 37.07C316.694 35.852 315.938 35.236 314.44 35.236H312.074V38.96H314.44ZM323.448 44.224C321.152 44.224 319.682 42.838 319.514 40.822L320.774 40.738C320.97 42.222 321.88 43.048 323.476 43.048C324.862 43.048 325.674 42.502 325.674 41.48C325.674 40.556 325.212 39.996 322.832 39.408C320.535 38.834 319.724 38.148 319.724 36.664C319.724 34.998 320.984 33.836 323.028 33.836C325.212 33.836 326.5 35.18 326.724 37L325.464 37.084C325.296 35.88 324.484 35.012 323 35.012C321.768 35.012 320.984 35.656 320.984 36.608C320.984 37.546 321.488 37.882 323.588 38.4C326.079 39.016 326.934 39.968 326.934 41.396C326.934 43.132 325.478 44.224 323.448 44.224ZM328.15 44V42.418H329.732V44H328.15ZM334.451 44.168C332.379 44.168 331.049 42.642 331.049 40.29C331.049 37.938 332.379 36.412 334.451 36.412C336.159 36.412 337.349 37.336 337.601 38.988L336.369 39.072C336.201 38.092 335.459 37.532 334.451 37.532C333.079 37.532 332.281 38.568 332.281 40.29C332.281 42.012 333.079 43.048 334.451 43.048C335.459 43.048 336.201 42.488 336.369 41.368L337.601 41.452C337.349 43.104 336.159 44.168 334.451 44.168ZM342.107 44.168C340.049 44.168 338.705 42.656 338.705 40.29C338.705 37.924 340.049 36.412 342.107 36.412C344.151 36.412 345.495 37.924 345.495 40.29C345.495 42.656 344.151 44.168 342.107 44.168ZM342.107 43.048C343.465 43.048 344.263 42.012 344.263 40.29C344.263 38.568 343.465 37.532 342.107 37.532C340.735 37.532 339.937 38.568 339.937 40.29C339.937 42.012 340.735 43.048 342.107 43.048ZM347.206 44V36.58H348.284L348.312 37.882C348.676 36.972 349.446 36.412 350.398 36.412C351.518 36.412 352.302 36.972 352.624 37.966C352.946 36.972 353.702 36.412 354.794 36.412C356.376 36.412 357.244 37.434 357.244 39.226V44H356.068V39.478C356.068 38.134 355.536 37.448 354.514 37.448C353.478 37.448 352.806 38.232 352.806 39.562V44H351.63V39.562C351.63 38.246 351.196 37.448 350.104 37.448C349.068 37.448 348.382 38.246 348.382 39.562V44H347.206Z" fill="#F8F8F8" fill-opacity="0.95"/>
<g clip-path="url(#clip2_3221_10849)">
<circle opacity="0.1" cx="382.5" cy="39" r="12" fill="#F8F8F8"/>
<g opacity="0.5" filter="url(#filter9_i_3221_10849)">
<path fill-rule="evenodd" clip-rule="evenodd" d="M383.5 36C383.5 35.4477 383.052 35 382.5 35C381.948 35 381.5 35.4477 381.5 36V36.5C381.5 37.3284 380.828 38 380 38H379.5C378.948 38 378.5 38.4477 378.5 39C378.5 39.5523 378.948 40 379.5 40H380C380.828 40 381.5 40.6716 381.5 41.5V42C381.5 42.5523 381.948 43 382.5 43C383.052 43 383.5 42.5523 383.5 42V41.5C383.5 40.6716 384.172 40 385 40H385.5C386.052 40 386.5 39.5523 386.5 39C386.5 38.4477 386.052 38 385.5 38H385C384.172 38 383.5 37.3284 383.5 36.5V36Z" fill="#F8F8F8"/>
</g>
</g>
<g filter="url(#filter10_d_3221_10849)">
<circle cx="229.5" cy="61" r="3" fill="#22C55E"/>
</g>
<g filter="url(#filter11_d_3221_10849)">
<path d="M238.985 65V59.082H238.902L237.13 60.3467V59.2725L238.985 57.9541H240.079V65H238.985ZM244.562 65.1709C242.936 65.1709 241.959 63.75 241.959 61.4795V61.4697C241.959 59.1992 242.936 57.7832 244.562 57.7832C246.183 57.7832 247.164 59.1992 247.164 61.4697V61.4795C247.164 63.75 246.183 65.1709 244.562 65.1709ZM244.562 64.2627C245.504 64.2627 246.061 63.2031 246.061 61.4795V61.4697C246.061 59.7461 245.504 58.6963 244.562 58.6963C243.614 58.6963 243.062 59.7461 243.062 61.4697V61.4795C243.062 63.2031 243.614 64.2627 244.562 64.2627ZM251.056 65.1709C249.43 65.1709 248.453 63.75 248.453 61.4795V61.4697C248.453 59.1992 249.43 57.7832 251.056 57.7832C252.677 57.7832 253.658 59.1992 253.658 61.4697V61.4795C253.658 63.75 252.677 65.1709 251.056 65.1709ZM251.056 64.2627C251.998 64.2627 252.555 63.2031 252.555 61.4795V61.4697C252.555 59.7461 251.998 58.6963 251.056 58.6963C250.108 58.6963 249.557 59.7461 249.557 61.4697V61.4795C249.557 63.2031 250.108 64.2627 251.056 64.2627ZM256.471 61.7188C255.523 61.7188 254.947 60.9717 254.947 59.7852V59.7803C254.947 58.5938 255.523 57.8564 256.471 57.8564C257.418 57.8564 257.994 58.5938 257.994 59.7803V59.7852C257.994 60.9717 257.418 61.7188 256.471 61.7188ZM257.198 65H256.285L261.061 57.9541H261.974L257.198 65ZM256.471 61.0645C256.935 61.0645 257.203 60.5908 257.203 59.7852V59.7803C257.203 58.9795 256.935 58.5107 256.471 58.5107C256.007 58.5107 255.743 58.9795 255.743 59.7803V59.7852C255.743 60.5908 256.007 61.0645 256.471 61.0645ZM261.783 65.0977C260.836 65.0977 260.26 64.3555 260.26 63.1689V63.1641C260.26 61.9775 260.836 61.2354 261.783 61.2354C262.73 61.2354 263.307 61.9775 263.307 63.1641V63.1689C263.307 64.3555 262.73 65.0977 261.783 65.0977ZM261.783 64.4434C262.247 64.4434 262.511 63.9697 262.511 63.1689V63.1641C262.511 62.3584 262.247 61.8896 261.783 61.8896C261.319 61.8896 261.056 62.3584 261.056 63.1641V63.1689C261.056 63.9697 261.319 64.4434 261.783 64.4434ZM270.416 65.1709C268.648 65.1709 267.56 64.1211 267.56 62.5732V57.9541H268.653V62.4902C268.653 63.5107 269.293 64.2041 270.416 64.2041C271.539 64.2041 272.174 63.5107 272.174 62.4902V57.9541H273.268V62.5732C273.268 64.1211 272.188 65.1709 270.416 65.1709ZM274.908 66.7676V59.6973H275.968V60.5322H276.046C276.354 59.9512 276.935 59.6045 277.677 59.6045C279.015 59.6045 279.874 60.6738 279.874 62.3438V62.3535C279.874 64.0332 279.024 65.0879 277.677 65.0879C276.949 65.0879 276.329 64.7314 276.046 64.1602H275.968V66.7676H274.908ZM277.379 64.1846C278.263 64.1846 278.795 63.4912 278.795 62.3535V62.3438C278.795 61.2012 278.263 60.5127 277.379 60.5127C276.495 60.5127 275.948 61.2109 275.948 62.3438V62.3535C275.948 63.4863 276.495 64.1846 277.379 64.1846ZM283.15 65.0342C281.983 65.0342 281.505 64.624 281.505 63.6035V60.5322H280.675V59.6973H281.505V58.3594H282.584V59.6973H283.722V60.5322H282.584V63.3496C282.584 63.9209 282.799 64.1553 283.321 64.1553C283.482 64.1553 283.575 64.1504 283.722 64.1357V64.9805C283.551 65.0098 283.355 65.0342 283.15 65.0342ZM285.509 58.75C285.143 58.75 284.845 58.4521 284.845 58.0908C284.845 57.7246 285.143 57.4268 285.509 57.4268C285.87 57.4268 286.173 57.7246 286.173 58.0908C286.173 58.4521 285.87 58.75 285.509 58.75ZM284.977 65V59.6973H286.031V65H284.977ZM287.574 65V59.6973H288.634V60.5127H288.712C288.946 59.9316 289.464 59.5947 290.157 59.5947C290.88 59.5947 291.393 59.9707 291.627 60.542H291.71C291.979 59.9707 292.589 59.5947 293.326 59.5947C294.396 59.5947 295.021 60.2393 295.021 61.3428V65H293.966V61.5967C293.966 60.8643 293.634 60.5029 292.94 60.5029C292.267 60.5029 291.822 61.0059 291.822 61.6455V65H290.768V61.4893C290.768 60.8838 290.372 60.5029 289.747 60.5029C289.107 60.5029 288.634 61.0498 288.634 61.7432V65H287.574ZM298.727 65.1025C297.174 65.1025 296.236 64.043 296.236 62.3633V62.3584C296.236 60.7031 297.193 59.5947 298.673 59.5947C300.152 59.5947 301.061 60.6641 301.061 62.2559V62.627H297.301C297.32 63.6426 297.877 64.2334 298.751 64.2334C299.43 64.2334 299.835 63.8965 299.962 63.623L299.981 63.584L301.002 63.5791L300.992 63.623C300.816 64.3213 300.084 65.1025 298.727 65.1025ZM298.678 60.4639C297.955 60.4639 297.408 60.957 297.315 61.8701H300.011C299.928 60.9229 299.396 60.4639 298.678 60.4639ZM302.135 66.8311L302.564 63.9648H303.692L302.882 66.8311H302.135ZM309.664 65.0879C308.653 65.0879 307.906 64.4727 307.906 63.5107V63.501C307.906 62.5537 308.619 62.002 309.884 61.9238L311.319 61.8408V61.3721C311.319 60.791 310.953 60.4688 310.235 60.4688C309.649 60.4688 309.264 60.6836 309.137 61.0596L309.132 61.0791H308.111L308.116 61.0449C308.243 60.1758 309.078 59.5947 310.284 59.5947C311.617 59.5947 312.369 60.2588 312.369 61.3721V65H311.319V64.248H311.236C310.924 64.7852 310.367 65.0879 309.664 65.0879ZM308.961 63.4668C308.961 63.9551 309.376 64.2432 309.947 64.2432C310.738 64.2432 311.319 63.7256 311.319 63.042V62.5879L310.025 62.6709C309.293 62.7148 308.961 62.9785 308.961 63.457V63.4668ZM313.912 65V57.6172H314.972V65H313.912ZM317.569 65L316.104 59.6973H317.169L318.121 63.7891H318.199L319.293 59.6973H320.299L321.393 63.7891H321.476L322.423 59.6973H323.473L322.013 65H320.924L319.825 61.0449H319.742L318.648 65H317.569ZM325.865 65.0879C324.854 65.0879 324.107 64.4727 324.107 63.5107V63.501C324.107 62.5537 324.82 62.002 326.085 61.9238L327.521 61.8408V61.3721C327.521 60.791 327.154 60.4688 326.437 60.4688C325.851 60.4688 325.465 60.6836 325.338 61.0596L325.333 61.0791H324.312L324.317 61.0449C324.444 60.1758 325.279 59.5947 326.485 59.5947C327.818 59.5947 328.57 60.2588 328.57 61.3721V65H327.521V64.248H327.438C327.125 64.7852 326.568 65.0879 325.865 65.0879ZM325.162 63.4668C325.162 63.9551 325.577 64.2432 326.148 64.2432C326.939 64.2432 327.521 63.7256 327.521 63.042V62.5879L326.227 62.6709C325.494 62.7148 325.162 62.9785 325.162 63.457V63.4668ZM330.406 66.8652C330.274 66.8652 330.118 66.8555 329.981 66.8408V66.0059C330.084 66.0205 330.216 66.0254 330.338 66.0254C330.831 66.0254 331.124 65.8154 331.285 65.2783L331.363 65.0049L329.439 59.6973H330.582L331.91 63.9355H332.003L333.326 59.6973H334.439L332.467 65.2051C332.018 66.4746 331.48 66.8652 330.406 66.8652ZM337.296 65.1025C336.017 65.1025 335.206 64.502 335.104 63.6133V63.6084H336.163L336.168 63.6133C336.3 64.0137 336.686 64.2822 337.315 64.2822C337.97 64.2822 338.424 63.9844 338.424 63.5498V63.54C338.424 63.208 338.175 62.9834 337.56 62.8418L336.715 62.6465C335.714 62.417 335.25 61.9629 335.25 61.1865V61.1816C335.25 60.2588 336.109 59.5947 337.311 59.5947C338.521 59.5947 339.298 60.2002 339.391 61.0645V61.0693H338.38V61.0596C338.277 60.6885 337.901 60.4102 337.306 60.4102C336.725 60.4102 336.305 60.6982 336.305 61.123V61.1328C336.305 61.4648 336.549 61.6699 337.145 61.8115L337.984 62.002C339.005 62.2412 339.493 62.6758 339.493 63.4424V63.4521C339.493 64.4336 338.556 65.1025 337.296 65.1025ZM345.724 65.1025C344.176 65.1025 343.229 64.0479 343.229 62.334V62.3242C343.229 60.6445 344.171 59.5947 345.719 59.5947C347.052 59.5947 347.848 60.3467 347.994 61.377V61.4014L346.979 61.4062L346.974 61.3916C346.856 60.8691 346.427 60.4785 345.724 60.4785C344.84 60.4785 344.308 61.1816 344.308 62.3242V62.334C344.308 63.5059 344.85 64.2188 345.724 64.2188C346.388 64.2188 346.798 63.916 346.969 63.3447L346.979 63.3203H347.994L347.984 63.3643C347.794 64.3945 347.037 65.1025 345.724 65.1025ZM351.441 65.1025C349.884 65.1025 348.932 64.0625 348.932 62.3535V62.3438C348.932 60.6396 349.889 59.5947 351.441 59.5947C352.989 59.5947 353.946 60.6348 353.946 62.3438V62.3535C353.946 64.0625 352.994 65.1025 351.441 65.1025ZM351.441 64.2188C352.35 64.2188 352.867 63.5254 352.867 62.3535V62.3438C352.867 61.167 352.35 60.4785 351.441 60.4785C350.528 60.4785 350.016 61.167 350.016 62.3438V62.3535C350.016 63.5303 350.528 64.2188 351.441 64.2188ZM355.211 65V59.6973H356.271V60.5029H356.349C356.607 59.9365 357.115 59.5947 357.887 59.5947C359.073 59.5947 359.728 60.3027 359.728 61.5674V65H358.673V61.8164C358.673 60.9375 358.307 60.5029 357.53 60.5029C356.754 60.5029 356.271 61.0352 356.271 61.8896V65H355.211ZM361.207 65V59.6973H362.267V60.5029H362.345C362.604 59.9365 363.111 59.5947 363.883 59.5947C365.069 59.5947 365.724 60.3027 365.724 61.5674V65H364.669V61.8164C364.669 60.9375 364.303 60.5029 363.526 60.5029C362.75 60.5029 362.267 61.0352 362.267 61.8896V65H361.207ZM369.43 65.1025C367.877 65.1025 366.939 64.043 366.939 62.3633V62.3584C366.939 60.7031 367.896 59.5947 369.376 59.5947C370.855 59.5947 371.764 60.6641 371.764 62.2559V62.627H368.004C368.023 63.6426 368.58 64.2334 369.454 64.2334C370.133 64.2334 370.538 63.8965 370.665 63.623L370.685 63.584L371.705 63.5791L371.695 63.623C371.52 64.3213 370.787 65.1025 369.43 65.1025ZM369.381 60.4639C368.658 60.4639 368.111 60.957 368.019 61.8701H370.714C370.631 60.9229 370.099 60.4639 369.381 60.4639ZM375.255 65.1025C373.707 65.1025 372.76 64.0479 372.76 62.334V62.3242C372.76 60.6445 373.702 59.5947 375.25 59.5947C376.583 59.5947 377.379 60.3467 377.525 61.377V61.4014L376.51 61.4062L376.505 61.3916C376.388 60.8691 375.958 60.4785 375.255 60.4785C374.371 60.4785 373.839 61.1816 373.839 62.3242V62.334C373.839 63.5059 374.381 64.2188 375.255 64.2188C375.919 64.2188 376.329 63.916 376.5 63.3447L376.51 63.3203H377.525L377.516 63.3643C377.325 64.3945 376.568 65.1025 375.255 65.1025ZM380.807 65.0342C379.64 65.0342 379.161 64.624 379.161 63.6035V60.5322H378.331V59.6973H379.161V58.3594H380.24V59.6973H381.378V60.5322H380.24V63.3496C380.24 63.9209 380.455 64.1553 380.978 64.1553C381.139 64.1553 381.231 64.1504 381.378 64.1357V64.9805C381.207 65.0098 381.012 65.0342 380.807 65.0342ZM384.781 65.1025C383.229 65.1025 382.291 64.043 382.291 62.3633V62.3584C382.291 60.7031 383.248 59.5947 384.728 59.5947C386.207 59.5947 387.115 60.6641 387.115 62.2559V62.627H383.355C383.375 63.6426 383.932 64.2334 384.806 64.2334C385.484 64.2334 385.89 63.8965 386.017 63.623L386.036 63.584L387.057 63.5791L387.047 63.623C386.871 64.3213 386.139 65.1025 384.781 65.1025ZM384.732 60.4639C384.01 60.4639 383.463 60.957 383.37 61.8701H386.065C385.982 60.9229 385.45 60.4639 384.732 60.4639ZM390.309 65.0879C388.976 65.0879 388.111 64.0186 388.111 62.3535V62.3438C388.111 60.6641 388.961 59.6045 390.309 59.6045C391.036 59.6045 391.656 59.9658 391.939 60.5371H392.022V57.6172H393.077V65H392.022V64.165H391.939C391.632 64.7461 391.051 65.0879 390.309 65.0879ZM390.611 64.1846C391.495 64.1846 392.037 63.4863 392.037 62.3535V62.3438C392.037 61.2109 391.49 60.5127 390.611 60.5127C389.723 60.5127 389.19 61.2061 389.19 62.3438V62.3535C389.19 63.4912 389.723 64.1846 390.611 64.1846Z" fill="#22C55E"/>
</g>
</g>
<rect x="215.25" y="23.75" width="182.5" height="48.5" rx="3.25" stroke="url(#paint8_linear_3221_10849)" stroke-opacity="0.25" stroke-width="1.5" shape-rendering="crispEdges"/>
</g>
</g>
<rect x="211.25" y="19.75" width="190.5" height="56.5" rx="3.25" stroke="#F8F8F8" stroke-opacity="0.4" stroke-width="1.5" shape-rendering="crispEdges"/>
</g>
<g filter="url(#filter12_d_3221_10849)">
<rect x="91" y="284" width="76" height="28" rx="8" fill="#F8F8F8" fill-opacity="0.05" style="mix-blend-mode:luminosity" shape-rendering="crispEdges"/>
<rect x="91.75" y="284.75" width="74.5" height="26.5" rx="7.25" stroke="url(#paint9_linear_3221_10849)" stroke-opacity="0.25" stroke-width="1.5" shape-rendering="crispEdges"/>
<rect x="107" y="296" width="44" height="4" rx="1" fill="#F8F8F8" fill-opacity="0.95"/>
</g>
<rect opacity="0.1" x="203" y="296" width="44" height="4" rx="1" fill="#F8F8F8" fill-opacity="0.7"/>
<rect opacity="0.1" x="299" y="296" width="44" height="4" rx="1" fill="#F8F8F8" fill-opacity="0.7"/>
<path opacity="0.25" d="M214.318 136.683C213.474 135.839 213 134.694 213 133.501C213 132.307 213.474 131.162 214.318 130.318C215.162 129.474 216.307 129 217.501 129C218.694 129 219.839 129.474 220.683 130.318" stroke="#F8F8F8" stroke-width="3" stroke-linecap="round" stroke-linejoin="round"/>
<path opacity="0.25" d="M227.312 130.318C228.157 129.474 229.301 129 230.495 129C231.689 129 232.833 129.474 233.678 130.318C234.522 131.162 234.996 132.307 234.996 133.501C234.996 134.694 234.522 135.839 233.678 136.683" stroke="#F8F8F8" stroke-width="3" stroke-linecap="round" stroke-linejoin="round"/>
<path opacity="0.25" d="M233.678 143.32C234.522 144.164 234.996 145.309 234.996 146.503C234.996 147.696 234.522 148.841 233.678 149.685C232.833 150.529 231.689 151.004 230.495 151.004C229.301 151.004 228.157 150.529 227.312 149.685" stroke="#F8F8F8" stroke-width="3" stroke-linecap="round" stroke-linejoin="round"/>
<path opacity="0.25" d="M220.683 149.685C219.839 150.529 218.694 151.004 217.501 151.004C216.307 151.004 215.162 150.529 214.318 149.685C213.474 148.841 213 147.696 213 146.503C213 145.309 213.474 144.164 214.318 143.32" stroke="#F8F8F8" stroke-width="3" stroke-linecap="round" stroke-linejoin="round"/>
<path d="M227 137L230.5 133.5" stroke="#F8F8F8" stroke-width="3" stroke-linecap="round" stroke-linejoin="round"/>
<path d="M217.5 146.5L221 143" stroke="#F8F8F8" stroke-width="3" stroke-linecap="round" stroke-linejoin="round"/>
<path d="M227 143L230.5 146.5" stroke="#F8F8F8" stroke-width="3" stroke-linecap="round" stroke-linejoin="round"/>
<path d="M217.5 133.5L221 137" stroke="#F8F8F8" stroke-width="3" stroke-linecap="round" stroke-linejoin="round"/>
<path d="M227 137H221V143H227V137Z" stroke="#F8F8F8" stroke-width="3" stroke-linecap="round" stroke-linejoin="round"/>
<g filter="url(#filter13_bdi_3221_10849)">
<circle cx="308" cy="94" r="10" fill="#F8F8F8" fill-opacity="0.01" shape-rendering="crispEdges"/>
<circle cx="308" cy="94" r="10" fill="#121212" fill-opacity="0.3" shape-rendering="crispEdges"/>
<circle cx="308" cy="94" r="9.5" stroke="url(#paint10_linear_3221_10849)" stroke-opacity="0.25" shape-rendering="crispEdges"/>
</g>
<circle cx="308" cy="94" r="5" fill="#F8F8F8"/>
<path d="M317.084 101.183C316.896 101.116 316.705 101.047 316.545 101.006C316.392 100.966 316.097 100.9 315.781 101.01C315.419 101.135 315.135 101.42 315.009 101.782C314.9 102.098 314.966 102.392 315.005 102.545C315.047 102.706 315.116 102.896 315.183 103.084L319.957 116.383C320.041 116.617 320.121 116.841 320.201 117.013C320.268 117.159 320.42 117.478 320.751 117.658C321.114 117.855 321.55 117.861 321.917 117.674C322.253 117.502 322.414 117.187 322.485 117.043C322.569 116.873 322.655 116.651 322.745 116.42L324.894 110.894L330.42 108.745C330.651 108.655 330.873 108.569 331.043 108.485C331.187 108.414 331.502 108.253 331.673 107.918C331.861 107.55 331.855 107.114 331.658 106.752C331.478 106.42 331.159 106.268 331.013 106.201C330.841 106.122 330.617 106.041 330.383 105.957L317.084 101.183Z" fill="#121212" stroke="#F8F8F8" stroke-width="1.5" stroke-linecap="round" stroke-linejoin="round"/>
<defs>
<filter id="filter0_bdi_3221_10849" x="290" y="174" width="36" height="64" filterUnits="userSpaceOnUse" color-interpolation-filters="sRGB">
<feFlood flood-opacity="0" result="BackgroundImageFix"/>
<feGaussianBlur in="BackgroundImageFix" stdDeviation="6"/>
<feComposite in2="SourceAlpha" operator="in" result="effect1_backgroundBlur_3221_10849"/>
<feColorMatrix in="SourceAlpha" type="matrix" values="0 0 0 0 0 0 0 0 0 0 0 0 0 0 0 0 0 0 127 0" result="hardAlpha"/>
<feMorphology radius="16" operator="erode" in="SourceAlpha" result="effect2_dropShadow_3221_10849"/>
<feOffset dy="32"/>
<feGaussianBlur stdDeviation="12"/>
<feComposite in2="hardAlpha" operator="out"/>
<feColorMatrix type="matrix" values="0 0 0 0 0 0 0 0 0 0 0 0 0 0 0 0 0 0 0.4 0"/>
<feBlend mode="multiply" in2="effect1_backgroundBlur_3221_10849" result="effect2_dropShadow_3221_10849"/>
<feBlend mode="normal" in="SourceGraphic" in2="effect2_dropShadow_3221_10849" result="shape"/>
<feColorMatrix in="SourceAlpha" type="matrix" values="0 0 0 0 0 0 0 0 0 0 0 0 0 0 0 0 0 0 127 0" result="hardAlpha"/>
<feOffset/>
<feGaussianBlur stdDeviation="4"/>
<feComposite in2="hardAlpha" operator="arithmetic" k2="-1" k3="1"/>
<feColorMatrix type="matrix" values="0 0 0 0 0.972549 0 0 0 0 0.972549 0 0 0 0 0.972549 0 0 0 0.25 0"/>
<feBlend mode="normal" in2="shape" result="effect3_innerShadow_3221_10849"/>
</filter>
<filter id="filter1_bdi_3221_10849" x="62" y="173" width="36" height="64" filterUnits="userSpaceOnUse" color-interpolation-filters="sRGB">
<feFlood flood-opacity="0" result="BackgroundImageFix"/>
<feGaussianBlur in="BackgroundImageFix" stdDeviation="6"/>
<feComposite in2="SourceAlpha" operator="in" result="effect1_backgroundBlur_3221_10849"/>
<feColorMatrix in="SourceAlpha" type="matrix" values="0 0 0 0 0 0 0 0 0 0 0 0 0 0 0 0 0 0 127 0" result="hardAlpha"/>
<feMorphology radius="16" operator="erode" in="SourceAlpha" result="effect2_dropShadow_3221_10849"/>
<feOffset dy="32"/>
<feGaussianBlur stdDeviation="12"/>
<feComposite in2="hardAlpha" operator="out"/>
<feColorMatrix type="matrix" values="0 0 0 0 0 0 0 0 0 0 0 0 0 0 0 0 0 0 0.4 0"/>
<feBlend mode="multiply" in2="effect1_backgroundBlur_3221_10849" result="effect2_dropShadow_3221_10849"/>
<feBlend mode="normal" in="SourceGraphic" in2="effect2_dropShadow_3221_10849" result="shape"/>
<feColorMatrix in="SourceAlpha" type="matrix" values="0 0 0 0 0 0 0 0 0 0 0 0 0 0 0 0 0 0 127 0" result="hardAlpha"/>
<feOffset/>
<feGaussianBlur stdDeviation="4"/>
<feComposite in2="hardAlpha" operator="arithmetic" k2="-1" k3="1"/>
<feColorMatrix type="matrix" values="0 0 0 0 0.972549 0 0 0 0 0.972549 0 0 0 0 0.972549 0 0 0 0.25 0"/>
<feBlend mode="normal" in2="shape" result="effect3_innerShadow_3221_10849"/>
</filter>
<filter id="filter2_bdi_3221_10849" x="142" y="143" width="36" height="64" filterUnits="userSpaceOnUse" color-interpolation-filters="sRGB">
<feFlood flood-opacity="0" result="BackgroundImageFix"/>
<feGaussianBlur in="BackgroundImageFix" stdDeviation="6"/>
<feComposite in2="SourceAlpha" operator="in" result="effect1_backgroundBlur_3221_10849"/>
<feColorMatrix in="SourceAlpha" type="matrix" values="0 0 0 0 0 0 0 0 0 0 0 0 0 0 0 0 0 0 127 0" result="hardAlpha"/>
<feMorphology radius="16" operator="erode" in="SourceAlpha" result="effect2_dropShadow_3221_10849"/>
<feOffset dy="32"/>
<feGaussianBlur stdDeviation="12"/>
<feComposite in2="hardAlpha" operator="out"/>
<feColorMatrix type="matrix" values="0 0 0 0 0 0 0 0 0 0 0 0 0 0 0 0 0 0 0.4 0"/>
<feBlend mode="multiply" in2="effect1_backgroundBlur_3221_10849" result="effect2_dropShadow_3221_10849"/>
<feBlend mode="normal" in="SourceGraphic" in2="effect2_dropShadow_3221_10849" result="shape"/>
<feColorMatrix in="SourceAlpha" type="matrix" values="0 0 0 0 0 0 0 0 0 0 0 0 0 0 0 0 0 0 127 0" result="hardAlpha"/>
<feOffset/>
<feGaussianBlur stdDeviation="4"/>
<feComposite in2="hardAlpha" operator="arithmetic" k2="-1" k3="1"/>
<feColorMatrix type="matrix" values="0 0 0 0 0.972549 0 0 0 0 0.972549 0 0 0 0 0.972549 0 0 0 0.25 0"/>
<feBlend mode="normal" in2="shape" result="effect3_innerShadow_3221_10849"/>
</filter>
<filter id="filter3_bdi_3221_10849" x="207" y="174" width="36" height="64" filterUnits="userSpaceOnUse" color-interpolation-filters="sRGB">
<feFlood flood-opacity="0" result="BackgroundImageFix"/>
<feGaussianBlur in="BackgroundImageFix" stdDeviation="6"/>
<feComposite in2="SourceAlpha" operator="in" result="effect1_backgroundBlur_3221_10849"/>
<feColorMatrix in="SourceAlpha" type="matrix" values="0 0 0 0 0 0 0 0 0 0 0 0 0 0 0 0 0 0 127 0" result="hardAlpha"/>
<feMorphology radius="16" operator="erode" in="SourceAlpha" result="effect2_dropShadow_3221_10849"/>
<feOffset dy="32"/>
<feGaussianBlur stdDeviation="12"/>
<feComposite in2="hardAlpha" operator="out"/>
<feColorMatrix type="matrix" values="0 0 0 0 0 0 0 0 0 0 0 0 0 0 0 0 0 0 0.4 0"/>
<feBlend mode="multiply" in2="effect1_backgroundBlur_3221_10849" result="effect2_dropShadow_3221_10849"/>
<feBlend mode="normal" in="SourceGraphic" in2="effect2_dropShadow_3221_10849" result="shape"/>
<feColorMatrix in="SourceAlpha" type="matrix" values="0 0 0 0 0 0 0 0 0 0 0 0 0 0 0 0 0 0 127 0" result="hardAlpha"/>
<feOffset/>
<feGaussianBlur stdDeviation="4"/>
<feComposite in2="hardAlpha" operator="arithmetic" k2="-1" k3="1"/>
<feColorMatrix type="matrix" values="0 0 0 0 0.972549 0 0 0 0 0.972549 0 0 0 0 0.972549 0 0 0 0.25 0"/>
<feBlend mode="normal" in2="shape" result="effect3_innerShadow_3221_10849"/>
</filter>
<filter id="filter4_bdi_3221_10849" x="102" y="76" width="36" height="64" filterUnits="userSpaceOnUse" color-interpolation-filters="sRGB">
<feFlood flood-opacity="0" result="BackgroundImageFix"/>
<feGaussianBlur in="BackgroundImageFix" stdDeviation="6"/>
<feComposite in2="SourceAlpha" operator="in" result="effect1_backgroundBlur_3221_10849"/>
<feColorMatrix in="SourceAlpha" type="matrix" values="0 0 0 0 0 0 0 0 0 0 0 0 0 0 0 0 0 0 127 0" result="hardAlpha"/>
<feMorphology radius="16" operator="erode" in="SourceAlpha" result="effect2_dropShadow_3221_10849"/>
<feOffset dy="32"/>
<feGaussianBlur stdDeviation="12"/>
<feComposite in2="hardAlpha" operator="out"/>
<feColorMatrix type="matrix" values="0 0 0 0 0 0 0 0 0 0 0 0 0 0 0 0 0 0 0.4 0"/>
<feBlend mode="multiply" in2="effect1_backgroundBlur_3221_10849" result="effect2_dropShadow_3221_10849"/>
<feBlend mode="normal" in="SourceGraphic" in2="effect2_dropShadow_3221_10849" result="shape"/>
<feColorMatrix in="SourceAlpha" type="matrix" values="0 0 0 0 0 0 0 0 0 0 0 0 0 0 0 0 0 0 127 0" result="hardAlpha"/>
<feOffset/>
<feGaussianBlur stdDeviation="4"/>
<feComposite in2="hardAlpha" operator="arithmetic" k2="-1" k3="1"/>
<feColorMatrix type="matrix" values="0 0 0 0 0.972549 0 0 0 0 0.972549 0 0 0 0 0.972549 0 0 0 0.25 0"/>
<feBlend mode="normal" in2="shape" result="effect3_innerShadow_3221_10849"/>
</filter>
<filter id="filter5_bdi_3221_10849" x="207" y="76" width="36" height="64" filterUnits="userSpaceOnUse" color-interpolation-filters="sRGB">
<feFlood flood-opacity="0" result="BackgroundImageFix"/>
<feGaussianBlur in="BackgroundImageFix" stdDeviation="6"/>
<feComposite in2="SourceAlpha" operator="in" result="effect1_backgroundBlur_3221_10849"/>
<feColorMatrix in="SourceAlpha" type="matrix" values="0 0 0 0 0 0 0 0 0 0 0 0 0 0 0 0 0 0 127 0" result="hardAlpha"/>
<feMorphology radius="16" operator="erode" in="SourceAlpha" result="effect2_dropShadow_3221_10849"/>
<feOffset dy="32"/>
<feGaussianBlur stdDeviation="12"/>
<feComposite in2="hardAlpha" operator="out"/>
<feColorMatrix type="matrix" values="0 0 0 0 0 0 0 0 0 0 0 0 0 0 0 0 0 0 0.4 0"/>
<feBlend mode="multiply" in2="effect1_backgroundBlur_3221_10849" result="effect2_dropShadow_3221_10849"/>
<feBlend mode="normal" in="SourceGraphic" in2="effect2_dropShadow_3221_10849" result="shape"/>
<feColorMatrix in="SourceAlpha" type="matrix" values="0 0 0 0 0 0 0 0 0 0 0 0 0 0 0 0 0 0 127 0" result="hardAlpha"/>
<feOffset/>
<feGaussianBlur stdDeviation="4"/>
<feComposite in2="hardAlpha" operator="arithmetic" k2="-1" k3="1"/>
<feColorMatrix type="matrix" values="0 0 0 0 0.972549 0 0 0 0 0.972549 0 0 0 0 0.972549 0 0 0 0.25 0"/>
<feBlend mode="normal" in2="shape" result="effect3_innerShadow_3221_10849"/>
</filter>
<filter id="filter6_bdi_3221_10849" x="290" y="143" width="36" height="64" filterUnits="userSpaceOnUse" color-interpolation-filters="sRGB">
<feFlood flood-opacity="0" result="BackgroundImageFix"/>
<feGaussianBlur in="BackgroundImageFix" stdDeviation="6"/>
<feComposite in2="SourceAlpha" operator="in" result="effect1_backgroundBlur_3221_10849"/>
<feColorMatrix in="SourceAlpha" type="matrix" values="0 0 0 0 0 0 0 0 0 0 0 0 0 0 0 0 0 0 127 0" result="hardAlpha"/>
<feMorphology radius="16" operator="erode" in="SourceAlpha" result="effect2_dropShadow_3221_10849"/>
<feOffset dy="32"/>
<feGaussianBlur stdDeviation="12"/>
<feComposite in2="hardAlpha" operator="out"/>
<feColorMatrix type="matrix" values="0 0 0 0 0 0 0 0 0 0 0 0 0 0 0 0 0 0 0.4 0"/>
<feBlend mode="multiply" in2="effect1_backgroundBlur_3221_10849" result="effect2_dropShadow_3221_10849"/>
<feBlend mode="normal" in="SourceGraphic" in2="effect2_dropShadow_3221_10849" result="shape"/>
<feColorMatrix in="SourceAlpha" type="matrix" values="0 0 0 0 0 0 0 0 0 0 0 0 0 0 0 0 0 0 127 0" result="hardAlpha"/>
<feOffset/>
<feGaussianBlur stdDeviation="4"/>
<feComposite in2="hardAlpha" operator="arithmetic" k2="-1" k3="1"/>
<feColorMatrix type="matrix" values="0 0 0 0 0.972549 0 0 0 0 0.972549 0 0 0 0 0.972549 0 0 0 0.25 0"/>
<feBlend mode="normal" in2="shape" result="effect3_innerShadow_3221_10849"/>
</filter>
<filter id="filter7_di_3221_10849" x="202.5" y="19" width="208" height="98" filterUnits="userSpaceOnUse" color-interpolation-filters="sRGB">
<feFlood flood-opacity="0" result="BackgroundImageFix"/>
<feColorMatrix in="SourceAlpha" type="matrix" values="0 0 0 0 0 0 0 0 0 0 0 0 0 0 0 0 0 0 127 0" result="hardAlpha"/>
<feMorphology radius="16" operator="erode" in="SourceAlpha" result="effect1_dropShadow_3221_10849"/>
<feOffset dy="32"/>
<feGaussianBlur stdDeviation="12"/>
<feComposite in2="hardAlpha" operator="out"/>
<feColorMatrix type="matrix" values="0 0 0 0 0 0 0 0 0 0 0 0 0 0 0 0 0 0 0.4 0"/>
<feBlend mode="multiply" in2="BackgroundImageFix" result="effect1_dropShadow_3221_10849"/>
<feBlend mode="normal" in="SourceGraphic" in2="effect1_dropShadow_3221_10849" result="shape"/>
<feColorMatrix in="SourceAlpha" type="matrix" values="0 0 0 0 0 0 0 0 0 0 0 0 0 0 0 0 0 0 127 0" result="hardAlpha"/>
<feOffset/>
<feGaussianBlur stdDeviation="4"/>
<feComposite in2="hardAlpha" operator="arithmetic" k2="-1" k3="1"/>
<feColorMatrix type="matrix" values="0 0 0 0 0.972549 0 0 0 0 0.972549 0 0 0 0 0.972549 0 0 0 0.25 0"/>
<feBlend mode="normal" in2="shape" result="effect2_innerShadow_3221_10849"/>
</filter>
<filter id="filter8_bdi_3221_10849" x="202.5" y="11" width="208" height="102" filterUnits="userSpaceOnUse" color-interpolation-filters="sRGB">
<feFlood flood-opacity="0" result="BackgroundImageFix"/>
<feGaussianBlur in="BackgroundImageFix" stdDeviation="6"/>
<feComposite in2="SourceAlpha" operator="in" result="effect1_backgroundBlur_3221_10849"/>
<feColorMatrix in="SourceAlpha" type="matrix" values="0 0 0 0 0 0 0 0 0 0 0 0 0 0 0 0 0 0 127 0" result="hardAlpha"/>
<feMorphology radius="16" operator="erode" in="SourceAlpha" result="effect2_dropShadow_3221_10849"/>
<feOffset dy="32"/>
<feGaussianBlur stdDeviation="12"/>
<feComposite in2="hardAlpha" operator="out"/>
<feColorMatrix type="matrix" values="0 0 0 0 0 0 0 0 0 0 0 0 0 0 0 0 0 0 0.4 0"/>
<feBlend mode="multiply" in2="effect1_backgroundBlur_3221_10849" result="effect2_dropShadow_3221_10849"/>
<feBlend mode="normal" in="SourceGraphic" in2="effect2_dropShadow_3221_10849" result="shape"/>
<feColorMatrix in="SourceAlpha" type="matrix" values="0 0 0 0 0 0 0 0 0 0 0 0 0 0 0 0 0 0 127 0" result="hardAlpha"/>
<feOffset/>
<feGaussianBlur stdDeviation="4"/>
<feComposite in2="hardAlpha" operator="arithmetic" k2="-1" k3="1"/>
<feColorMatrix type="matrix" values="0 0 0 0 0.972549 0 0 0 0 0.972549 0 0 0 0 0.972549 0 0 0 0.25 0"/>
<feBlend mode="normal" in2="shape" result="effect3_innerShadow_3221_10849"/>
</filter>
<filter id="filter9_i_3221_10849" x="378.5" y="35" width="8" height="8" filterUnits="userSpaceOnUse" color-interpolation-filters="sRGB">
<feFlood flood-opacity="0" result="BackgroundImageFix"/>
<feBlend mode="normal" in="SourceGraphic" in2="BackgroundImageFix" result="shape"/>
<feColorMatrix in="SourceAlpha" type="matrix" values="0 0 0 0 0 0 0 0 0 0 0 0 0 0 0 0 0 0 127 0" result="hardAlpha"/>
<feOffset/>
<feGaussianBlur stdDeviation="4"/>
<feComposite in2="hardAlpha" operator="arithmetic" k2="-1" k3="1"/>
<feColorMatrix type="matrix" values="0 0 0 0 0.972549 0 0 0 0 0.972549 0 0 0 0 0.972549 0 0 0 0.25 0"/>
<feBlend mode="normal" in2="shape" result="effect1_innerShadow_3221_10849"/>
</filter>
<filter id="filter10_d_3221_10849" x="222.5" y="58" width="14" height="14" filterUnits="userSpaceOnUse" color-interpolation-filters="sRGB">
<feFlood flood-opacity="0" result="BackgroundImageFix"/>
<feColorMatrix in="SourceAlpha" type="matrix" values="0 0 0 0 0 0 0 0 0 0 0 0 0 0 0 0 0 0 127 0" result="hardAlpha"/>
<feOffset dy="4"/>
<feGaussianBlur stdDeviation="2"/>
<feComposite in2="hardAlpha" operator="out"/>
<feColorMatrix type="matrix" values="0 0 0 0 0 0 0 0 0 0 0 0 0 0 0 0 0 0 0.25 0"/>
<feBlend mode="normal" in2="BackgroundImageFix" result="effect1_dropShadow_3221_10849"/>
<feBlend mode="normal" in="SourceGraphic" in2="effect1_dropShadow_3221_10849" result="shape"/>
</filter>
<filter id="filter11_d_3221_10849" x="233.13" y="57.4268" width="163.947" height="17.4385" filterUnits="userSpaceOnUse" color-interpolation-filters="sRGB">
<feFlood flood-opacity="0" result="BackgroundImageFix"/>
<feColorMatrix in="SourceAlpha" type="matrix" values="0 0 0 0 0 0 0 0 0 0 0 0 0 0 0 0 0 0 127 0" result="hardAlpha"/>
<feOffset dy="4"/>
<feGaussianBlur stdDeviation="2"/>
<feComposite in2="hardAlpha" operator="out"/>
<feColorMatrix type="matrix" values="0 0 0 0 0 0 0 0 0 0 0 0 0 0 0 0 0 0 0.25 0"/>
<feBlend mode="normal" in2="BackgroundImageFix" result="effect1_dropShadow_3221_10849"/>
<feBlend mode="normal" in="SourceGraphic" in2="effect1_dropShadow_3221_10849" result="shape"/>
</filter>
<filter id="filter12_d_3221_10849" x="67" y="284" width="124" height="76" filterUnits="userSpaceOnUse" color-interpolation-filters="sRGB">
<feFlood flood-opacity="0" result="BackgroundImageFix"/>
<feColorMatrix in="SourceAlpha" type="matrix" values="0 0 0 0 0 0 0 0 0 0 0 0 0 0 0 0 0 0 127 0" result="hardAlpha"/>
<feOffset dy="24"/>
<feGaussianBlur stdDeviation="12"/>
<feComposite in2="hardAlpha" operator="out"/>
<feColorMatrix type="matrix" values="0 0 0 0 0 0 0 0 0 0 0 0 0 0 0 0 0 0 0.3 0"/>
<feBlend mode="multiply" in2="BackgroundImageFix" result="effect1_dropShadow_3221_10849"/>
<feBlend mode="normal" in="SourceGraphic" in2="effect1_dropShadow_3221_10849" result="shape"/>
</filter>
<filter id="filter13_bdi_3221_10849" x="286" y="72" width="44" height="72" filterUnits="userSpaceOnUse" color-interpolation-filters="sRGB">
<feFlood flood-opacity="0" result="BackgroundImageFix"/>
<feGaussianBlur in="BackgroundImageFix" stdDeviation="6"/>
<feComposite in2="SourceAlpha" operator="in" result="effect1_backgroundBlur_3221_10849"/>
<feColorMatrix in="SourceAlpha" type="matrix" values="0 0 0 0 0 0 0 0 0 0 0 0 0 0 0 0 0 0 127 0" result="hardAlpha"/>
<feMorphology radius="16" operator="erode" in="SourceAlpha" result="effect2_dropShadow_3221_10849"/>
<feOffset dy="32"/>
<feGaussianBlur stdDeviation="12"/>
<feComposite in2="hardAlpha" operator="out"/>
<feColorMatrix type="matrix" values="0 0 0 0 0 0 0 0 0 0 0 0 0 0 0 0 0 0 0.4 0"/>
<feBlend mode="multiply" in2="effect1_backgroundBlur_3221_10849" result="effect2_dropShadow_3221_10849"/>
<feBlend mode="normal" in="SourceGraphic" in2="effect2_dropShadow_3221_10849" result="shape"/>
<feColorMatrix in="SourceAlpha" type="matrix" values="0 0 0 0 0 0 0 0 0 0 0 0 0 0 0 0 0 0 127 0" result="hardAlpha"/>
<feOffset/>
<feGaussianBlur stdDeviation="4"/>
<feComposite in2="hardAlpha" operator="arithmetic" k2="-1" k3="1"/>
<feColorMatrix type="matrix" values="0 0 0 0 0.972549 0 0 0 0 0.972549 0 0 0 0 0.972549 0 0 0 0.25 0"/>
<feBlend mode="normal" in2="shape" result="effect3_innerShadow_3221_10849"/>
</filter>
<radialGradient id="paint0_radial_3221_10849" cx="0" cy="0" r="1" gradientUnits="userSpaceOnUse" gradientTransform="translate(224 164) rotate(90) scale(220.619 301.333)">
<stop stop-color="#D9D9D9"/>
<stop offset="0.751624" stop-color="#737373" stop-opacity="0"/>
</radialGradient>
<linearGradient id="paint1_linear_3221_10849" x1="308" y1="186" x2="313.22" y2="199.177" gradientUnits="userSpaceOnUse">
<stop stop-color="white" stop-opacity="0.4"/>
<stop offset="0.4" stop-color="white" stop-opacity="0.01"/>
<stop offset="0.6" stop-color="white" stop-opacity="0.01"/>
<stop offset="1" stop-color="white" stop-opacity="0.1"/>
</linearGradient>
<linearGradient id="paint2_linear_3221_10849" x1="80" y1="185" x2="85.2202" y2="198.177" gradientUnits="userSpaceOnUse">
<stop stop-color="white" stop-opacity="0.4"/>
<stop offset="0.4" stop-color="white" stop-opacity="0.01"/>
<stop offset="0.6" stop-color="white" stop-opacity="0.01"/>
<stop offset="1" stop-color="white" stop-opacity="0.1"/>
</linearGradient>
<linearGradient id="paint3_linear_3221_10849" x1="160" y1="155" x2="165.22" y2="168.177" gradientUnits="userSpaceOnUse">
<stop stop-color="white" stop-opacity="0.4"/>
<stop offset="0.4" stop-color="white" stop-opacity="0.01"/>
<stop offset="0.6" stop-color="white" stop-opacity="0.01"/>
<stop offset="1" stop-color="white" stop-opacity="0.1"/>
</linearGradient>
<linearGradient id="paint4_linear_3221_10849" x1="225" y1="186" x2="230.22" y2="199.177" gradientUnits="userSpaceOnUse">
<stop stop-color="white" stop-opacity="0.4"/>
<stop offset="0.4" stop-color="white" stop-opacity="0.01"/>
<stop offset="0.6" stop-color="white" stop-opacity="0.01"/>
<stop offset="1" stop-color="white" stop-opacity="0.1"/>
</linearGradient>
<linearGradient id="paint5_linear_3221_10849" x1="120" y1="88" x2="125.22" y2="101.177" gradientUnits="userSpaceOnUse">
<stop stop-color="white" stop-opacity="0.4"/>
<stop offset="0.4" stop-color="white" stop-opacity="0.01"/>
<stop offset="0.6" stop-color="white" stop-opacity="0.01"/>
<stop offset="1" stop-color="white" stop-opacity="0.1"/>
</linearGradient>
<linearGradient id="paint6_linear_3221_10849" x1="225" y1="88" x2="230.22" y2="101.177" gradientUnits="userSpaceOnUse">
<stop stop-color="white" stop-opacity="0.4"/>
<stop offset="0.4" stop-color="white" stop-opacity="0.01"/>
<stop offset="0.6" stop-color="white" stop-opacity="0.01"/>
<stop offset="1" stop-color="white" stop-opacity="0.1"/>
</linearGradient>
<linearGradient id="paint7_linear_3221_10849" x1="308" y1="155" x2="313.22" y2="168.177" gradientUnits="userSpaceOnUse">
<stop stop-color="white" stop-opacity="0.4"/>
<stop offset="0.4" stop-color="white" stop-opacity="0.01"/>
<stop offset="0.6" stop-color="white" stop-opacity="0.01"/>
<stop offset="1" stop-color="white" stop-opacity="0.1"/>
</linearGradient>
<linearGradient id="paint8_linear_3221_10849" x1="306.5" y1="23" x2="313.26" y2="85.795" gradientUnits="userSpaceOnUse">
<stop stop-color="white" stop-opacity="0.4"/>
<stop offset="0.4" stop-color="white" stop-opacity="0.01"/>
<stop offset="0.6" stop-color="white" stop-opacity="0.01"/>
<stop offset="1" stop-color="white" stop-opacity="0.1"/>
</linearGradient>
<linearGradient id="paint9_linear_3221_10849" x1="129" y1="284" x2="134.084" y2="318.831" gradientUnits="userSpaceOnUse">
<stop stop-color="white" stop-opacity="0.4"/>
<stop offset="0.4" stop-color="white" stop-opacity="0.01"/>
<stop offset="0.6" stop-color="white" stop-opacity="0.01"/>
<stop offset="1" stop-color="white" stop-opacity="0.1"/>
</linearGradient>
<linearGradient id="paint10_linear_3221_10849" x1="308" y1="84" x2="316.7" y2="105.962" gradientUnits="userSpaceOnUse">
<stop stop-color="white" stop-opacity="0.4"/>
<stop offset="0.4" stop-color="white" stop-opacity="0.01"/>
<stop offset="0.6" stop-color="white" stop-opacity="0.01"/>
<stop offset="1" stop-color="white" stop-opacity="0.1"/>
</linearGradient>
<clipPath id="clip0_3221_10849">
<rect x="210.5" y="19" width="192" height="58" rx="4" fill="white"/>
</clipPath>
<clipPath id="clip1_3221_10849">
<rect x="214.5" y="23" width="184" height="50" rx="4" fill="white"/>
</clipPath>
<clipPath id="clip2_3221_10849">
<rect x="370.5" y="27" width="24" height="24" rx="12" fill="white"/>
</clipPath>
</defs>
</svg>
