<svg width="43" height="43" viewBox="0 0 43 43" fill="none" xmlns="http://www.w3.org/2000/svg">
<g clip-path="url(#clip0_3247_23563)">
<path d="M0.326172 21.5024C0.326172 15.8866 2.55702 10.5009 6.52796 6.52992C10.4989 2.55898 15.8847 0.328125 21.5004 0.328125C27.1162 0.328125 32.5019 2.55898 36.4729 6.52992C40.4438 10.5009 42.6747 15.8866 42.6747 21.5024C42.6747 27.1181 40.4438 32.5039 36.4729 36.4748C32.5019 40.4458 27.1162 42.6766 21.5004 42.6766C15.8847 42.6766 10.4989 40.4458 6.52796 36.4748C2.55702 32.5039 0.326172 27.1181 0.326172 21.5024ZM14.0191 8.77569C2.47302 15.7719 5.42773 33.0903 18.6432 35.8822C19.6415 36.0921 20.7711 36.2321 21.4808 36.2307C22.1292 36.2307 23.3659 36.1007 24.2299 35.9436C29.601 34.9654 34.0237 31.0638 35.6418 25.8742C36.6928 22.5067 36.8299 22.6553 29.0583 22.7367L28.4299 24.1648C25.5809 30.6311 16.4897 30.2313 14.5061 23.5535C11.8641 14.6551 24.6098 10.1338 28.3771 18.6323C29.1497 20.3746 28.7655 20.2375 32.8813 20.2375C36.8656 20.2375 36.57 20.4817 35.8831 17.7612C33.4853 8.27014 22.3834 3.70741 14.0191 8.77569Z" fill="#004FFC"/>
<path d="M14.0832 9.07038C22.3083 4.10076 33.2255 8.57468 35.5833 17.881C36.2588 20.5485 36.5495 20.3091 32.6315 20.3091C28.5842 20.3091 28.962 20.4435 28.2022 18.7352C24.4976 10.402 11.9641 14.8354 14.562 23.5605C16.5127 30.1083 25.4526 30.5004 28.2542 24.1599L28.8721 22.7596C36.5144 22.6798 36.3796 22.5341 35.346 25.836C33.7549 30.9247 29.4057 34.7502 24.1241 35.7094C23.2745 35.8635 22.0583 35.9909 21.4208 35.9909C20.7228 35.9923 19.612 35.8551 18.6304 35.6492C5.63477 32.9117 2.72923 15.9304 14.0832 9.07038Z" fill="#FCFCFC"/>
</g>
<defs>
<clipPath id="clip0_3247_23563">
<rect width="42.3485" height="42.3485" fill="white" transform="translate(0.326172 0.328125)"/>
</clipPath>
</defs>
</svg>
