<svg width="39" height="30" viewBox="0 0 39 30" fill="none" xmlns="http://www.w3.org/2000/svg">
<rect width="39" height="30" fill="#DDDDDD"/>
<g id="almost completed">
<path d="M-2430 -4722C-2430 -4723.1 -2429.1 -4724 -2428 -4724H25831C25832.1 -4724 25833 -4723.1 25833 -4722V11889C25833 11890.1 25832.1 11891 25831 11891H-2428C-2429.1 11891 -2430 11890.1 -2430 11889V-4722Z" fill="#B795EC"/>
<path d="M-2428 -4723H25831V-4725H-2428V-4723ZM25832 -4722V11889H25834V-4722H25832ZM25831 11890H-2428V11892H25831V11890ZM-2429 11889V-4722H-2431V11889H-2429ZM-2428 11890C-2428.55 11890 -2429 11889.6 -2429 11889H-2431C-2431 11890.7 -2429.66 11892 -2428 11892V11890ZM25832 11889C25832 11889.6 25831.6 11890 25831 11890V11892C25832.7 11892 25834 11890.7 25834 11889H25832ZM25831 -4723C25831.6 -4723 25832 -4722.55 25832 -4722H25834C25834 -4723.66 25832.7 -4725 25831 -4725V-4723ZM-2428 -4725C-2429.66 -4725 -2431 -4723.66 -2431 -4722H-2429C-2429 -4722.55 -2428.55 -4723 -2428 -4723V-4725Z" fill="black" fill-opacity="0.1"/>
<g id="home-web">
<rect width="1440" height="10495" transform="translate(-294 -3783)" fill="#151517"/>
<g id="Frame 2147224984">
<g id="Frame 2147225006" opacity="0.5">
<g id="Frame 2147225007">
<g id="CQG Logo">
<path id="Vector" d="M24.5588 19.5005V30.0087H15.0449V19.7117C16.3927 20.2662 17.9519 20.6094 19.8283 20.6094C21.6782 20.6094 23.211 20.187 24.5588 19.5005Z" fill="#C41230"/>
<path id="Vector_2" d="M10.2346 17.7555L10.2874 22.0855H0.720703V12.5542C4.71125 12.5542 6.71973 14.4552 9.04535 16.6466C9.44176 16.9898 9.83817 17.3595 10.2346 17.7555Z" fill="#C41230"/>
<path id="Vector_3" d="M10.2346 4.84912V12.0042C7.98825 10.0504 5.21337 8.30786 0.720703 8.30786V4.84912H10.2346Z" fill="#C41230"/>
<path id="Vector_4" d="M14.9932 7.27588V14.2198C16.341 15.5927 17.7416 16.3848 19.7237 16.3848C21.7586 16.3848 23.2121 15.8039 24.507 14.9326V7.30228H14.9932V7.27588Z" fill="#C41230"/>
<path id="Vector_5" d="M38.301 0.859375V4.05409C33.7026 4.05409 30.9542 6.56234 28.7871 9.38741V0.859375H38.301Z" fill="#C41230"/>
<path id="Vector_6" d="M38.301 8.27686V22.1118H28.7871V16.5409C29.4214 15.7488 30.0028 14.9039 30.5578 14.1118C33.0684 10.4947 34.8126 8.27686 38.301 8.27686Z" fill="#C41230"/>
</g>
</g>
</g>
</g>
</g>
</g>
</svg>
