<svg width="122" height="121" viewBox="0 0 122 121" fill="none" xmlns="http://www.w3.org/2000/svg">
<path d="M13.5582 59.1829C14.6619 64.0686 17.025 68.2947 21.1074 72.4928C24.779 76.2684 26.9987 77.7058 31.7153 79.3864C34.4103 80.3616 35.8655 80.5903 40.136 80.65C45.0313 80.7183 45.3951 80.7755 47.02 81.9181C53.286 86.4071 64.7418 86.6713 76.3878 82.6409C86.9086 78.9854 101.328 70.3057 109.036 62.9647C111.675 60.4493 112.258 59.7282 112.161 59.2059C111.94 58.2392 111.389 58.5701 107.042 62.1295C96.9236 70.5307 85.2911 77.322 75.2426 80.7237C67.5485 83.3769 59.7772 84.1017 53.9883 82.7447C51.6784 82.1655 47.9763 80.5772 47.9564 80.1341C47.9586 79.9779 49.0881 79.2905 50.4524 78.5803C53.3649 77.0323 54.7107 75.7749 55.9926 73.5009C57.328 71.1235 57.2573 68.7265 55.7732 66.8306C54.2371 64.9339 53.3326 64.4264 51.2774 64.2675C48.936 64.0785 46.8126 65.0646 44.8552 67.225C42.2626 70.1057 41.5926 73.3258 42.8758 76.5472C43.228 77.4376 43.3719 78.3251 43.1607 78.5305C42.6326 79.0441 36.9069 78.7557 34.2083 78.0409C26.345 76.0298 19.1985 69.3147 15.7244 60.7237C15.02 58.9428 14.2592 57.4737 14.0773 57.4452C13.4024 57.2795 13.2653 57.7724 13.5582 59.1829ZM48.2982 66.8564C49.8986 66.0192 52.7086 66.2148 53.7356 67.2709C55.7383 69.3303 55.2824 72.1367 52.4052 74.8833C50.029 77.1941 46.6257 78.4487 45.5987 77.3926C44.3149 76.0725 43.9383 73.2023 44.7236 71.0516C45.561 68.9017 46.4081 67.9238 48.2982 66.8564Z" fill="white"/>
</svg>
