<svg width="16" height="16" viewBox="0 0 16 16" fill="none" xmlns="http://www.w3.org/2000/svg">
<path fill-rule="evenodd" clip-rule="evenodd" d="M8.63747 0.172361C8.6078 0.0866927 8.54138 0.0238369 8.46128 0.00546078C8.38109 -0.0129044 8.29818 0.0157061 8.24096 0.0814501L3.94119 5.02536C3.86125 5.11728 3.84987 5.25971 3.91395 5.36617C3.97803 5.47264 4.0999 5.51375 4.20554 5.46453L7.90534 3.74111L11.7746 10.6976C11.8406 10.8161 11.9757 10.8587 12.0869 10.796C12.1979 10.7333 12.2483 10.5861 12.2031 10.4559L8.63747 0.172361ZM6.29302 6.90135C6.3552 6.78098 6.326 6.62722 6.22551 6.54588C6.12503 6.46453 5.98602 6.48213 5.90415 6.58656L0.0601284 14.0407C0.00403145 14.1122 -0.0144122 14.2117 0.0115756 14.3025C0.0375635 14.3933 0.104143 14.462 0.186839 14.4833L6.03086 15.9931C6.14202 16.0218 6.25584 15.959 6.30352 15.8424C6.3512 15.726 6.31964 15.5879 6.22793 15.5118L3.16158 12.9636L6.29302 6.90135ZM14.0539 8.67349C14.016 8.54815 13.9029 8.47218 13.7867 8.49376C13.6705 8.51545 13.5853 8.62836 13.5853 8.76079V13.0084L6.45272 13.1654C6.32821 13.1681 6.22611 13.2771 6.21727 13.4167C6.20843 13.5563 6.29577 13.6805 6.41868 13.703L15.7204 15.4078C15.8039 15.4232 15.8885 15.3881 15.9431 15.3155C15.9977 15.2429 16.0144 15.1435 15.9871 15.0535L14.0539 8.67349Z" fill="white"/>
</svg>
