<svg width="16" height="17" viewBox="0 0 16 17" fill="none" xmlns="http://www.w3.org/2000/svg">
<path d="M3.57586 6.34429C3.68836 6.23193 3.84086 6.16881 3.99986 6.16881C4.15886 6.16881 4.31136 6.23193 4.42386 6.34429L7.99986 9.92029L11.5759 6.34429C11.6308 6.28534 11.697 6.23806 11.7706 6.20526C11.8442 6.17247 11.9237 6.15484 12.0042 6.15341C12.0848 6.15199 12.1648 6.16681 12.2395 6.19699C12.3143 6.22717 12.3821 6.27208 12.4391 6.32906C12.4961 6.38603 12.541 6.4539 12.5712 6.52861C12.6013 6.60332 12.6162 6.68334 12.6147 6.7639C12.6133 6.84447 12.5957 6.92392 12.5629 6.99752C12.5301 7.07112 12.4828 7.13736 12.4239 7.19229L8.42386 11.1923C8.31136 11.3046 8.15886 11.3678 7.99986 11.3678C7.84086 11.3678 7.68836 11.3046 7.57586 11.1923L3.57586 7.19229C3.4635 7.07979 3.40039 6.92729 3.40039 6.76829C3.40039 6.60929 3.4635 6.45679 3.57586 6.34429Z" fill="white"/>
</svg>
