<svg width="106" height="26" viewBox="0 0 106 26" fill="none" xmlns="http://www.w3.org/2000/svg">
<g opacity="0.3">
<path fill-rule="evenodd" clip-rule="evenodd" d="M6.00871 10.4297H8.69089L8.34762 11.6631H15.0094L11.5069 14.3744H7.63198L7.13162 16.1548H13.9389L13.1883 18.8486H3.65234L6.00871 10.4297Z" fill="white"/>
<path fill-rule="evenodd" clip-rule="evenodd" d="M39.9768 14.3804H36.2648L35.7702 16.1491H42.5659L41.8095 18.8488H32.2852L34.6299 10.4531H37.3353L36.9979 11.6575H43.5084L39.9768 14.3804Z" fill="white"/>
<path fill-rule="evenodd" clip-rule="evenodd" d="M17.0654 16.157L19.5789 7.15625H6.91851L6.16797 9.8268H16.1229L13.6036 18.845H20.3585L21.1149 16.157H17.0654Z" fill="white"/>
<path fill-rule="evenodd" clip-rule="evenodd" d="M45.0938 7.17969H25.4283L24.6836 9.85605H28.4538L25.9345 18.851H28.6749L31.1941 9.83278L44.3549 9.82696L45.0938 7.17969Z" fill="white"/>
<path fill-rule="evenodd" clip-rule="evenodd" d="M54.0654 10.4297H56.7476L54.397 18.8486H51.7148L54.0654 10.4297Z" fill="white"/>
<path fill-rule="evenodd" clip-rule="evenodd" d="M23.6727 10.7578L21.1418 19.7178L19.6523 19.7062L21.5782 24.2909L26.0989 19.7469L24.592 19.7411L27.1403 10.7578H23.6727Z" fill="white"/>
<path fill-rule="evenodd" clip-rule="evenodd" d="M22.0748 15.0919L24.5999 6.17266L26.0311 6.17848L23.925 1.59375L19.4042 6.13775L21.1264 6.14357L18.5664 15.0687L22.0748 15.0919Z" fill="white"/>
<path fill-rule="evenodd" clip-rule="evenodd" d="M103.727 9.91407L101.725 7.16789L84.9049 7.15625L84.1602 9.8268C87.0227 9.8268 98.7289 9.85007 100.998 9.85007L100.498 11.6363H96.39C96.4249 11.6246 97.542 16.5177 98.0831 18.845H101.231L100.224 14.3592H102.487L103.727 9.91407Z" fill="white"/>
<path fill-rule="evenodd" clip-rule="evenodd" d="M94.0419 10.4375L91.6914 18.839H94.391C95.0485 16.4884 95.735 13.9633 96.3867 11.6419L96.7241 10.4375H94.0419Z" fill="white"/>
<path fill-rule="evenodd" clip-rule="evenodd" d="M85.1163 16.1453L85.6108 14.365H89.5672L93.0756 11.6537H86.3323L86.6756 10.4203H83.9876L83.6385 11.6653H83.237L83.7199 9.93734L81.7068 7.16207L64.9679 7.15625L62.4487 16.1686H60.6508L60.2436 14.3533H62.501L63.7519 9.8908L61.7505 7.16207L45.4654 7.16789L44.7148 9.85589H47.8741L45.3548 18.8566H48.0894L50.6145 9.8268C51.1265 9.8268 58.7599 9.86752 61.0058 9.86752L60.4996 11.677H56.3978C56.9563 14.109 57.5614 16.4828 58.1025 18.8333L64.4152 18.845L66.9228 9.87916H71.013L70.5068 11.6944H66.9927L66.2363 14.3999H69.7854L68.5403 18.8392H71.2399L73.7534 9.8617H80.9854L79.2283 16.1453H75.1381L76.7323 10.4377H74.0327L71.6821 18.845H78.8618L81.8814 16.5119L82.4865 14.3417H82.8938L81.6312 18.8392H91.1672L91.9178 16.1453H85.1163Z" fill="white"/>
</g>
</svg>
