<svg width="104" height="18" viewBox="0 0 104 18" fill="none" xmlns="http://www.w3.org/2000/svg">
<g opacity="0.3">
<path d="M25.8721 4.16995V12.2024L24.0321 12.8336V3.53809L18.5121 1.60723V14.766L16.6903 15.3972V0.975374L13.9303 0L11.1703 0.975374V15.3972L9.33029 14.766V1.60723L3.82843 3.53809V12.8336L1.98843 12.2024V4.16995L0.148438 4.80121V13.5029L5.6503 15.4156V4.83889L7.49029 4.18879V16.0663L13.0103 17.9791V2.27301L13.9309 1.94773L14.8509 2.27301V17.9791L20.3527 16.0663V4.18879L22.1927 4.83889V15.4156L27.7127 13.5029V4.80121L25.8721 4.16995Z" fill="white"/>
<path d="M37.7099 9.18641H40.9684V8.30659H37.7099V6.39383H42.5788V5.49487H36.7129V12.2461H42.751V11.3854H37.7099V9.18641Z" fill="white"/>
<path d="M63.5169 9.56514C63.5169 10.7701 62.712 11.5729 61.5228 11.5729C60.3725 11.5729 59.6436 10.7503 59.6436 9.56514V5.5105H58.666V9.60282C58.666 11.4387 60.0078 12.4531 61.5227 12.4531C63.7464 12.4531 64.4745 10.9232 64.4745 9.60282V5.5105H63.5163L63.5169 9.56514Z" fill="white"/>
<path d="M69.9316 12.2461H70.8902V5.49487H69.9316V12.2461Z" fill="white"/>
<path d="M82.487 10.7852L77.6951 5.48706H76.7363V12.2383H77.6951V6.9205L82.5066 12.2383H83.4648V5.48706H82.4873L82.487 10.7852Z" fill="white"/>
<path d="M89.3535 12.2461H90.3312V5.49487H89.3535V12.2461Z" fill="white"/>
<path d="M99.761 8.58607L102.578 5.48706H101.39L99.1466 7.91683L96.9803 5.48706H95.6961L98.4184 8.58607L95.0254 12.2398H96.2715L99.0512 9.23723L101.716 12.2398H103.058L99.761 8.58607Z" fill="white"/>
<path d="M52.7386 8.87596C52.7386 9.83234 52.4126 10.4451 51.8568 10.9802C51.3392 10.368 51.3392 10.368 51.3392 10.368H50.2083C51.1283 11.42 51.1283 11.42 51.1283 11.42C50.8987 11.5347 50.4955 11.6113 50.1701 11.6304C48.7326 11.6304 47.5823 10.4637 47.5823 8.87656V8.85745C47.5823 7.23107 48.6557 6.10361 50.1127 6.08401C51.5698 6.08401 52.7383 7.23182 52.7383 8.83785L52.7386 8.87596ZM50.1311 5.22226C48.1174 5.24163 46.5645 6.75217 46.5645 8.89404V8.91316C46.5645 11.0173 48.1567 12.5096 50.1493 12.49C50.6668 12.49 51.2802 12.3561 51.74 12.1266L52.2771 12.7577H53.4079L52.4497 11.6483C53.2359 11.0553 53.7339 10.0611 53.7339 8.83719V8.81802C53.7339 6.71382 52.1432 5.20351 50.131 5.2216" fill="white"/>
</g>
</svg>
