<svg width="161" height="109" viewBox="0 0 161 109" fill="none" xmlns="http://www.w3.org/2000/svg">
<path d="M6.73998 46.0375C6.92347 51.0429 8.46636 55.6324 11.7042 60.5116C14.6163 64.8997 16.5327 66.7219 20.8583 69.2438C23.3271 70.6995 24.7152 71.1927 28.9014 72.0391C33.7001 73.0094 34.0471 73.1327 35.4333 74.5555C40.7636 80.1234 51.9741 82.4964 64.1637 80.6836C75.1783 79.0317 90.9516 73.1611 99.881 67.368C102.939 65.3826 103.645 64.7815 103.647 64.2503C103.608 63.2595 103.005 63.4829 98.0756 66.1793C86.5811 72.5697 73.8954 77.0985 63.3918 78.588C55.3404 79.7763 47.5687 79.0551 42.1295 76.6534C39.9662 75.658 36.6206 73.414 36.6828 72.9749C36.7137 72.8217 37.9507 72.3545 39.4225 71.9082C42.5706 70.924 44.1253 69.9365 45.8047 67.938C47.5558 65.8478 47.9285 63.4788 46.8196 61.3417C45.6597 59.1942 44.8644 58.5286 42.8737 57.9932C40.6075 57.3756 38.3386 57.953 36.0162 59.7152C32.9367 62.0682 31.6841 65.1094 32.3511 68.5122C32.533 69.4524 32.5106 70.3512 32.2651 70.5141C31.6514 70.9214 26.0772 69.5817 23.5567 68.3813C16.1994 64.9541 10.4143 57.0359 8.58474 47.9514C8.221 46.0712 7.74427 44.487 7.57075 44.4253C6.93807 44.138 6.71238 44.5972 6.73998 46.0375ZM39.4681 59.988C41.1955 59.4605 43.9212 60.1711 44.7358 61.3985C46.3242 63.7921 45.3584 66.4662 42.0239 68.6348C39.2621 70.4676 35.6858 71.0729 34.8712 69.8454C33.853 68.3111 34.0124 65.4208 35.181 63.4519C36.4006 61.4933 37.4136 60.6885 39.4681 59.988Z" fill="white"/>
<path d="M115.654 38.2529C115.591 38.9576 116.261 41.2981 117.702 45.4686L118.697 48.4329L115.019 53.6141C110.788 59.5601 110.357 60.3764 110.907 61.2049C111.559 62.1869 113.214 61.8839 117.927 59.8612C120.401 58.7939 122.599 57.9099 122.865 57.9105C123.427 57.8912 125.117 60.4382 127.559 65.0501C129.848 69.3654 130.194 69.6215 132.128 68.3386C132.803 67.8906 136.755 63.5884 140.861 58.7861C145.018 53.9941 149.195 49.2328 150.209 48.1625C152.369 45.8892 153.005 44.5831 152.353 43.8667C152.067 43.5699 149.832 43.0647 147.299 42.712C144.767 42.3594 139.172 41.2546 134.863 40.2241C121.703 37.1115 120.631 36.8947 118.997 36.6972C117.364 36.4996 115.779 37.2419 115.654 38.2529ZM125.098 40.1625C128.518 40.9869 133.541 42.162 136.237 42.7601C138.932 43.3583 141.28 43.9659 141.443 44.0786C141.749 44.2733 139.767 44.6164 127.71 46.4295C122.397 47.215 120.701 47.3238 120.549 46.8944C118.915 41.8349 118.216 39.1163 118.523 38.9127C118.707 38.7905 121.648 39.3585 125.098 40.1625ZM134.031 47.495C144.544 46.22 146.26 46.1419 144.338 47.1082C137.896 50.3223 126.937 54.722 123.115 55.623C121.745 55.9572 119.558 56.6573 118.219 57.2367C116.89 57.7651 115.602 58.222 115.367 58.2011C115.132 58.1801 115.748 56.8434 116.752 55.2929C117.705 53.7321 118.874 51.7632 119.304 50.9469L120.104 49.488L122.046 49.0835C123.149 48.8815 128.534 48.1371 134.031 47.495ZM128.967 55.8499C131.512 54.9564 144.486 49.5293 145.345 48.9591C146.163 48.4603 145.026 50.0105 142.282 53.2018C140.695 55.0064 137.653 58.7487 135.503 61.502C133.382 64.235 131.478 66.5599 131.294 66.6821C130.956 66.9061 130.274 65.8117 126.764 59.3896C126.102 58.1931 125.706 57.13 125.89 57.0078C126.044 56.906 127.454 56.3676 128.967 55.8499Z" fill="white"/>
</svg>
