<svg width="750" height="698" viewBox="0 0 750 698" fill="none" xmlns="http://www.w3.org/2000/svg">
<path fill-rule="evenodd" clip-rule="evenodd" d="M404.655 7.51035C403.265 3.7775 400.153 1.03865 396.401 0.237945C392.644 -0.562289 388.76 0.684368 386.079 3.54907L184.64 218.972C180.895 222.978 180.362 229.184 183.364 233.823C186.366 238.462 192.076 240.253 197.025 238.109L370.356 163.013L551.627 466.131C554.717 471.293 561.049 473.15 566.256 470.419C571.457 467.688 573.82 461.272 571.703 455.602L404.655 7.51035ZM294.82 300.716C297.733 295.471 296.365 288.771 291.658 285.227C286.95 281.682 280.438 282.449 276.602 286.999L2.81694 611.802C0.188869 614.917 -0.675195 619.253 0.542305 623.209C1.75981 627.165 4.87897 630.157 8.75316 631.088L282.539 696.874C287.746 698.127 293.079 695.387 295.312 690.31C297.546 685.238 296.067 679.221 291.771 675.901L148.116 564.871L294.82 300.716ZM658.409 377.934C656.632 372.472 651.335 369.162 645.888 370.103C640.446 371.048 636.453 375.968 636.453 381.738V566.823L302.302 573.661C296.469 573.78 291.686 578.529 291.271 584.613C290.858 590.697 294.949 596.106 300.708 597.089L736.483 671.371C740.395 672.04 744.356 670.511 746.914 667.348C749.471 664.185 750.257 659.854 748.976 655.931L658.409 377.934Z" fill="white"/>
</svg>
