<svg width="20" height="25" viewBox="0 0 20 25" fill="none" xmlns="http://www.w3.org/2000/svg">
<g filter="url(#filter0_ddii_3247_23144)">
<path fill-rule="evenodd" clip-rule="evenodd" d="M3.33398 8.06204C3.33398 4.52998 6.1322 1.66669 9.58398 1.66669C13.0358 1.66669 15.834 4.52998 15.834 8.06204C15.834 9.95567 15.029 11.6577 13.7518 12.8278C13.3262 13.2179 13.0108 13.5068 12.7873 13.7165C12.6756 13.8213 12.5901 13.9032 12.5271 13.9661C12.4956 13.9974 12.4716 14.0222 12.4537 14.0414C12.4448 14.0509 12.4382 14.0583 12.4333 14.0638L12.429 14.0688L12.4263 14.0721C12.2292 14.3209 12.1866 14.3851 12.1612 14.4433C12.1358 14.5015 12.1175 14.5768 12.0677 14.8931C12.0481 15.018 12.0461 15.2318 12.0461 15.814V15.8389C12.0461 16.1799 12.0461 16.4739 12.0248 16.7153C12.0022 16.9704 11.9521 17.2231 11.8177 17.4613C11.6681 17.7264 11.453 17.9466 11.1938 18.0997C10.9611 18.2372 10.7142 18.2884 10.4648 18.3115C10.229 18.3334 9.94163 18.3334 9.60849 18.3334H9.55956C9.22642 18.3334 8.939 18.3334 8.70319 18.3115C8.45381 18.2884 8.20687 18.2372 7.97414 18.0997C7.71501 17.9466 7.49983 17.7264 7.35023 17.4613C7.21586 17.2231 7.16582 16.9704 7.14321 16.7153C7.12184 16.4739 7.12185 16.1799 7.12186 15.839L7.12186 15.814C7.12186 15.2318 7.11986 15.018 7.10022 14.8931C7.0505 14.5768 7.03221 14.5015 7.00681 14.4433C6.9814 14.3851 6.93874 14.3209 6.74165 14.0721L6.73891 14.0688L6.73465 14.0638C6.72981 14.0583 6.72314 14.0509 6.71428 14.0414C6.69637 14.0222 6.67233 13.9974 6.6409 13.9661C6.57784 13.9032 6.49241 13.8213 6.38066 13.7165C6.15717 13.5068 5.84182 13.2179 5.41614 12.8278C4.13901 11.6577 3.33398 9.95567 3.33398 8.06204ZM10.9049 16.3954C10.9024 16.4762 10.8987 16.5468 10.893 16.6103C10.8776 16.7848 10.8515 16.8482 10.8336 16.8799C10.7838 16.9682 10.712 17.0416 10.6257 17.0927C10.5947 17.111 10.5328 17.1376 10.3622 17.1535C10.1838 17.17 9.94846 17.1706 9.58398 17.1706C9.21951 17.1706 8.98414 17.17 8.80576 17.1535C8.6352 17.1376 8.57328 17.111 8.54232 17.0927C8.45594 17.0416 8.38422 16.9682 8.33435 16.8799C8.31648 16.8482 8.2904 16.7848 8.27494 16.6103C8.26931 16.5468 8.26558 16.4762 8.2631 16.3954H10.9049ZM8.58273 11.3537C8.40989 11.0549 8.02756 10.9528 7.72878 11.1257C7.42999 11.2985 7.32789 11.6809 7.50073 11.9796C7.79512 12.4886 8.2809 12.8747 8.86041 13.0387V14.1667C8.86041 14.5119 9.14024 14.7917 9.48541 14.7917C9.83059 14.7917 10.1104 14.5119 10.1104 14.1667V13.0387C10.6899 12.8747 11.1757 12.4886 11.4701 11.9796C11.643 11.6809 11.5409 11.2985 11.2421 11.1257C10.9433 10.9528 10.561 11.0549 10.3881 11.3537C10.2071 11.6667 9.8702 11.875 9.48541 11.875C9.10064 11.875 8.76379 11.6667 8.58273 11.3537Z" fill="url(#paint0_linear_3247_23144)"/>
</g>
<defs>
<filter id="filter0_ddii_3247_23144" x="-3.32675" y="-0.831689" width="26.6535" height="27.4852" filterUnits="userSpaceOnUse" color-interpolation-filters="sRGB">
<feFlood flood-opacity="0" result="BackgroundImageFix"/>
<feColorMatrix in="SourceAlpha" type="matrix" values="0 0 0 0 0 0 0 0 0 0 0 0 0 0 0 0 0 0 127 0" result="hardAlpha"/>
<feOffset dy="3.32675"/>
<feGaussianBlur stdDeviation="1.66338"/>
<feComposite in2="hardAlpha" operator="out"/>
<feColorMatrix type="matrix" values="0 0 0 0 0.0313726 0 0 0 0 0.0313726 0 0 0 0 0.0313726 0 0 0 0.08 0"/>
<feBlend mode="normal" in2="BackgroundImageFix" result="effect1_dropShadow_3247_23144"/>
<feColorMatrix in="SourceAlpha" type="matrix" values="0 0 0 0 0 0 0 0 0 0 0 0 0 0 0 0 0 0 127 0" result="hardAlpha"/>
<feOffset dy="0.831689"/>
<feGaussianBlur stdDeviation="0.831689"/>
<feComposite in2="hardAlpha" operator="out"/>
<feColorMatrix type="matrix" values="0 0 0 0 0.0313726 0 0 0 0 0.0313726 0 0 0 0 0.0313726 0 0 0 0.2 0"/>
<feBlend mode="normal" in2="effect1_dropShadow_3247_23144" result="effect2_dropShadow_3247_23144"/>
<feBlend mode="normal" in="SourceGraphic" in2="effect2_dropShadow_3247_23144" result="shape"/>
<feColorMatrix in="SourceAlpha" type="matrix" values="0 0 0 0 0 0 0 0 0 0 0 0 0 0 0 0 0 0 127 0" result="hardAlpha"/>
<feOffset dy="4.99013"/>
<feGaussianBlur stdDeviation="4.99013"/>
<feComposite in2="hardAlpha" operator="arithmetic" k2="-1" k3="1"/>
<feColorMatrix type="matrix" values="0 0 0 0 1 0 0 0 0 1 0 0 0 0 1 0 0 0 0.12 0"/>
<feBlend mode="normal" in2="shape" result="effect3_innerShadow_3247_23144"/>
<feColorMatrix in="SourceAlpha" type="matrix" values="0 0 0 0 0 0 0 0 0 0 0 0 0 0 0 0 0 0 127 0" result="hardAlpha"/>
<feOffset dy="0.831689"/>
<feGaussianBlur stdDeviation="0.415844"/>
<feComposite in2="hardAlpha" operator="arithmetic" k2="-1" k3="1"/>
<feColorMatrix type="matrix" values="0 0 0 0 1 0 0 0 0 1 0 0 0 0 1 0 0 0 0.2 0"/>
<feBlend mode="normal" in2="effect3_innerShadow_3247_23144" result="effect4_innerShadow_3247_23144"/>
</filter>
<linearGradient id="paint0_linear_3247_23144" x1="3.64727" y1="-2.99749" x2="16.0503" y2="-2.78768" gradientUnits="userSpaceOnUse">
<stop stop-color="#2997FF"/>
<stop offset="1" stop-color="#F9FFEF"/>
</linearGradient>
</defs>
</svg>
