<svg width="152" height="19" viewBox="0 0 152 19" fill="none" xmlns="http://www.w3.org/2000/svg">
<g opacity="0.3" clip-path="url(#clip0_3419_18617)">
<path d="M0.648438 7.24052V14.4922H2.2001H3.75177L3.76444 8.91885L3.78344 3.34552L6.6461 8.90619L9.50244 14.4605L11.6938 14.4795L13.8851 14.4922V7.24052V-0.0111446H12.3334H10.7818V5.54319C10.7754 10.4642 10.7691 11.0912 10.6868 10.9772C10.6298 10.9139 9.33144 8.41219 7.79877 5.42285L5.00577 -0.0111446H2.8271H0.648438V7.24052Z" fill="white"/>
<path d="M18.3906 7.24052V14.4922H19.9423H21.494V7.24052V-0.0111446H19.9423H18.3906V7.24052Z" fill="white"/>
<path d="M25.9297 7.24052V14.4922H27.4814H29.033V8.93785C29.033 5.88519 29.052 3.40885 29.0774 3.43419C29.1027 3.45952 30.3947 5.94852 31.9527 8.96952L34.7774 14.4605L36.9434 14.4795L39.103 14.4922V7.24052V-0.0111446H37.583H36.063V5.53052C36.063 8.57685 36.044 11.0722 36.0187 11.0722C35.987 11.0722 34.6887 8.57685 33.1244 5.53052L30.2744 -0.0111446H28.102H25.9297V7.24052Z" fill="white"/>
<path d="M43.0312 9.49219V18.9922L44.0319 18.4159C44.5766 18.0929 45.2859 17.6875 45.5963 17.5039L46.1663 17.1745L46.1853 8.58652L46.1979 -0.00148201H44.6146H43.0312V9.49219Z" fill="white"/>
<path d="M51.4535 7.12652C49.9462 11.0595 48.6985 14.3212 48.6795 14.3782C48.6352 14.4859 48.7365 14.4922 50.2692 14.4922H51.9095L52.2199 13.6815C52.3909 13.2382 52.6379 12.5859 52.7772 12.2312L53.0242 11.5789L54.8672 11.5662L56.7102 11.5472L57.4132 10.3312C57.7995 9.65985 58.1352 9.10885 58.1542 9.10885C58.1732 9.10885 58.6419 10.3185 59.1929 11.8005L60.1935 14.4922H61.8275H63.4615L63.2462 13.9032C63.0562 13.3712 58.5279 1.19852 58.2112 0.349855L58.0782 -0.0111446H56.1275H54.1832L51.4535 7.12652ZM57.1409 6.11952L58.1352 8.88719L56.1022 8.90619C54.9875 8.91252 54.0692 8.91252 54.0565 8.89985C54.0502 8.89352 54.4999 7.62685 55.0635 6.08785C55.6272 4.54885 56.1022 3.30752 56.1212 3.32652C56.1402 3.33919 56.5962 4.59952 57.1409 6.11952Z" fill="white"/>
<path d="M63.3672 1.31886V2.64886H65.5839H67.8005V8.57052V14.4922H69.3522H70.9039V8.57052V2.64886H73.1205H75.3372V1.31886V-0.0111446H69.3522H63.3672V1.31886Z" fill="white"/>
<path d="M78.1797 7.24052V14.4922H79.7314H81.283V11.7689V9.04552H81.9987H82.7144L84.4497 11.7435C85.406 13.2255 86.2167 14.4542 86.2547 14.4669C86.2927 14.4795 87.097 14.4859 88.0407 14.4795L89.7634 14.4605L87.857 11.6549C86.812 10.1095 85.9697 8.83652 85.9824 8.82385C85.9887 8.81752 86.1597 8.76052 86.356 8.70352C86.5524 8.64652 86.983 8.46919 87.306 8.30452C87.7874 8.06385 87.9964 7.91185 88.4397 7.46852C89.3517 6.55652 89.6684 5.77752 89.662 4.45385C89.6557 3.06685 89.3137 2.18019 88.4777 1.35052C87.705 0.584188 86.831 0.204188 85.4947 0.0521879C85.178 0.0205221 83.4174 -0.0111446 81.5554 -0.0111446H78.1797V7.24052ZM84.722 2.45885C85.501 2.58552 86.109 3.00986 86.413 3.63052C86.6347 4.09919 86.6347 4.82752 86.4067 5.30886C86.0964 5.97386 85.634 6.36019 84.9184 6.54385C84.6334 6.61352 84.171 6.63885 82.917 6.63885H81.283V4.56152C81.283 3.41519 81.302 2.45885 81.3274 2.43985C81.3907 2.37019 84.3104 2.38919 84.722 2.45885Z" fill="white"/>
<path d="M97.3448 0.152093C97.3068 0.253427 96.0782 3.46443 94.6152 7.29609C93.1522 11.1278 91.9362 14.3134 91.9172 14.3768C91.8918 14.4781 91.9868 14.4844 93.5195 14.4718L95.1535 14.4528L95.6982 13.0278L96.2428 11.6028L98.0858 11.5838L99.9288 11.5711L100.651 10.3234C101.177 9.40509 101.379 9.10109 101.424 9.17076C101.455 9.22143 101.918 10.4311 102.45 11.8561L103.419 14.4528L105.04 14.4718C105.933 14.4781 106.661 14.4654 106.661 14.4401C106.661 14.4084 105.458 11.1468 103.989 7.18209L101.31 -0.0189075H99.3588H97.4145L97.3448 0.152093ZM100.353 6.05476C100.898 7.56843 101.341 8.82876 101.341 8.86043C101.341 8.88576 100.429 8.91109 99.3145 8.91109C98.1998 8.91109 97.2878 8.89209 97.2878 8.87309C97.2878 8.84776 99.1182 3.81276 99.2892 3.38209C99.3082 3.31876 99.3398 3.28076 99.3525 3.28709C99.3588 3.29976 99.8148 4.54743 100.353 6.05476Z" fill="white"/>
<path d="M108.891 7.24348V14.5078L112.393 14.4761C115.617 14.4508 115.946 14.4381 116.611 14.3115C119.854 13.7098 122.165 11.7401 122.894 8.96615C123.071 8.30748 123.128 6.80648 123.014 6.08448C122.533 3.05081 120.132 0.827813 116.649 0.169147C116.009 0.0488129 115.655 0.0361471 112.425 0.0108137L108.891 -0.020853V7.24348ZM116.459 2.82915C116.738 2.90515 117.225 3.09515 117.536 3.24715C118.676 3.81081 119.379 4.61515 119.765 5.78681C119.917 6.23648 119.936 6.39481 119.936 7.18015C119.942 7.94015 119.923 8.13648 119.797 8.54181C119.36 9.92248 118.486 10.8661 117.111 11.4108C116.244 11.7591 116.035 11.7908 113.913 11.8161L111.931 11.8478V7.24348V2.63915L113.945 2.66448C115.756 2.68981 116.003 2.70881 116.459 2.82915Z" fill="white"/>
<path d="M125.594 7.24052V14.4922H130.724H135.854V13.1622V11.8322H132.275H128.697V10.0905V8.34885H132.054H135.41V7.05052V5.75219H132.054H128.697V4.20052V2.64886H132.244H135.79V1.31886V-0.0111446H130.692H125.594V7.24052Z" fill="white"/>
<path d="M139.523 7.23419V14.4922H141.075H142.627V11.7689V9.04552H143.342L144.052 9.05185L145.793 11.7689L147.535 14.4922H149.327H151.113L150.778 13.9982C149.992 12.8645 147.37 8.96952 147.339 8.89352C147.32 8.83652 147.37 8.79219 147.484 8.76052C147.896 8.65919 148.656 8.32985 149.023 8.08919C149.878 7.53819 150.518 6.74019 150.803 5.87252C150.936 5.46085 150.955 5.28985 150.955 4.45385C150.955 3.63685 150.936 3.44052 150.809 3.02885C150.581 2.30685 150.309 1.83819 149.809 1.33785C149.27 0.79952 148.485 0.381519 147.598 0.166186C147.054 0.0395193 146.851 0.033186 143.279 0.00785255L139.523 -0.0174809V7.23419ZM146.199 2.49052C147.25 2.71219 147.909 3.47219 147.902 4.45385C147.896 5.34052 147.459 6.01185 146.629 6.40452L146.205 6.60719L144.419 6.62619L142.627 6.64519V4.52352V2.39552H144.197C145.318 2.39552 145.882 2.42085 146.199 2.49052Z" fill="white"/>
</g>
<defs>
<clipPath id="clip0_3419_18617">
<rect width="150.48" height="19" fill="white" transform="translate(0.667969)"/>
</clipPath>
</defs>
</svg>
