<svg width="43" height="43" viewBox="0 0 43 43" fill="none" xmlns="http://www.w3.org/2000/svg">
<path d="M7.41558 28.2219C7.43612 27.7538 7.43495 26.9443 7.41264 26.4237C7.37214 25.4528 7.40149 24.9195 7.50246 24.7921C7.54649 24.7361 8.18813 24.72 10.3549 24.72C12.7325 24.72 13.1557 24.7073 13.1839 24.637C13.2056 24.5822 12.244 23.5969 10.352 21.7364C7.4872 18.9182 7.4872 18.9182 7.43202 18.5475C7.36861 18.1232 7.35629 14.7112 7.4144 13.6578L7.45256 12.9556L13.4199 12.9873C18.2243 17.7017 19.2634 18.6818 19.3215 18.6645C19.3996 18.6409 19.4107 18.2852 19.4107 15.7979L19.4101 12.9584H37.3738V18.8392H31.3859C31.3859 29.74 31.3759 30.3921 31.2949 30.4912C31.2057 30.6002 31.073 30.6019 25.2783 30.5869L19.3532 30.5719C14.5241 25.8316 13.522 24.8866 13.4586 24.9022C13.3724 24.9229 13.3635 25.1956 13.3635 27.763V30.6008H7.43436C7.39092 29.4165 7.39503 28.6901 7.41558 28.2219ZM25.398 21.7508V18.8392L19.3808 18.8398C23.9985 23.3524 25.3528 24.6623 25.3687 24.6623C25.3851 24.6623 25.398 23.3524 25.398 21.7508Z" fill="#FC3F00" fill-opacity="0.988235"/>
</svg>
