<svg width="24" height="25" viewBox="0 0 24 25" fill="none" xmlns="http://www.w3.org/2000/svg">
<path fill-rule="evenodd" clip-rule="evenodd" d="M12 4.51807C12.4142 4.51807 12.75 4.85385 12.75 5.26807V12.0181H19.5C19.9142 12.0181 20.25 12.3539 20.25 12.7681C20.25 13.1823 19.9142 13.5181 19.5 13.5181H12.75V20.2681C12.75 20.6823 12.4142 21.0181 12 21.0181C11.5858 21.0181 11.25 20.6823 11.25 20.2681V13.5181H4.5C4.08579 13.5181 3.75 13.1823 3.75 12.7681C3.75 12.3539 4.08579 12.0181 4.5 12.0181H11.25V5.26807C11.25 4.85385 11.5858 4.51807 12 4.51807Z" fill="#555555"/>
</svg>
