<svg width="1425" height="480" viewBox="0 0 1425 480" fill="none" xmlns="http://www.w3.org/2000/svg">
<g clip-path="url(#clip0_3221_10242)">
<g opacity="0.4">
<path opacity="0.4" d="M839.667 79.7474C839.94 79.7474 840.161 79.5259 840.161 79.2526C840.161 78.9793 839.94 78.7578 839.667 78.7578C839.393 78.7578 839.172 78.9793 839.172 79.2526C839.172 79.5259 839.393 79.7474 839.667 79.7474Z" fill="white"/>
<path d="M352.799 311.31C353.073 311.31 353.294 311.088 353.294 310.815C353.294 310.542 353.073 310.32 352.799 310.32C352.526 310.32 352.305 310.542 352.305 310.815C352.305 311.088 352.526 311.31 352.799 311.31Z" fill="white"/>
<path d="M928.729 89.6458C929.002 89.6458 929.224 89.4243 929.224 89.151C929.224 88.8778 929.002 88.6562 928.729 88.6562C928.456 88.6562 928.234 88.8778 928.234 89.151C928.234 89.4243 928.456 89.6458 928.729 89.6458Z" fill="white"/>
<path d="M1208.78 9.48958C1209.05 9.48958 1209.27 9.26806 1209.27 8.99479C1209.27 8.72153 1209.05 8.5 1208.78 8.5C1208.5 8.5 1208.28 8.72153 1208.28 8.99479C1208.28 9.26806 1208.5 9.48958 1208.78 9.48958Z" fill="white"/>
<path d="M441.862 321.208C442.135 321.208 442.357 320.987 442.357 320.714C442.357 320.44 442.135 320.219 441.862 320.219C441.589 320.219 441.367 320.44 441.367 320.714C441.367 320.987 441.589 321.208 441.862 321.208Z" fill="white"/>
<path d="M1017.79 40.1693C1018.06 40.1693 1018.29 39.9477 1018.29 39.6745C1018.29 39.4012 1018.06 39.1797 1017.79 39.1797C1017.52 39.1797 1017.3 39.4012 1017.3 39.6745C1017.3 39.9477 1017.52 40.1693 1017.79 40.1693Z" fill="white"/>
<path d="M530.924 271.724C531.198 271.724 531.419 271.502 531.419 271.229C531.419 270.956 531.198 270.734 530.924 270.734C530.651 270.734 530.43 270.956 530.43 271.229C530.43 271.502 530.651 271.724 530.924 271.724Z" fill="white"/>
<path opacity="0.4" d="M619.979 182.669C620.252 182.669 620.474 182.448 620.474 182.174C620.474 181.901 620.252 181.68 619.979 181.68C619.706 181.68 619.484 181.901 619.484 182.174C619.484 182.448 619.706 182.669 619.979 182.669Z" fill="white"/>
<path d="M1007.9 109.435C1008.17 109.435 1008.4 109.213 1008.4 108.94C1008.4 108.667 1008.17 108.445 1007.9 108.445C1007.63 108.445 1007.41 108.667 1007.41 108.94C1007.41 109.213 1007.63 109.435 1007.9 109.435Z" fill="white"/>
<path d="M1287.95 29.2786C1288.22 29.2786 1288.44 29.0571 1288.44 28.7839C1288.44 28.5106 1288.22 28.2891 1287.95 28.2891C1287.67 28.2891 1287.45 28.5106 1287.45 28.7839C1287.45 29.0571 1287.67 29.2786 1287.95 29.2786Z" fill="white"/>
<path d="M521.026 340.997C521.299 340.997 521.521 340.776 521.521 340.503C521.521 340.229 521.299 340.008 521.026 340.008C520.753 340.008 520.531 340.229 520.531 340.503C520.531 340.776 520.753 340.997 521.026 340.997Z" fill="white"/>
<path d="M1156.33 50.0599C1156.6 50.0599 1156.83 49.8384 1156.83 49.5651C1156.83 49.2918 1156.6 49.0703 1156.33 49.0703C1156.06 49.0703 1155.84 49.2918 1155.84 49.5651C1155.84 49.8384 1156.06 50.0599 1156.33 50.0599Z" fill="white"/>
<path d="M669.464 281.622C669.737 281.622 669.958 281.401 669.958 281.128C669.958 280.854 669.737 280.633 669.464 280.633C669.19 280.633 668.969 280.854 668.969 281.128C668.969 281.401 669.19 281.622 669.464 281.622Z" fill="white"/>
<path d="M1176.12 40.1693C1176.39 40.1693 1176.61 39.9477 1176.61 39.6745C1176.61 39.4012 1176.39 39.1797 1176.12 39.1797C1175.85 39.1797 1175.62 39.4012 1175.62 39.6745C1175.62 39.9477 1175.85 40.1693 1176.12 40.1693Z" fill="white"/>
<path d="M689.253 271.724C689.526 271.724 689.747 271.502 689.747 271.229C689.747 270.956 689.526 270.734 689.253 270.734C688.979 270.734 688.758 270.956 688.758 271.229C688.758 271.502 688.979 271.724 689.253 271.724Z" fill="white"/>
<path d="M699.151 182.669C699.424 182.669 699.646 182.448 699.646 182.174C699.646 181.901 699.424 181.68 699.151 181.68C698.878 181.68 698.656 181.901 698.656 182.174C698.656 182.448 698.878 182.669 699.151 182.669Z" fill="white"/>
<path d="M678.37 143.083C678.643 143.083 678.865 142.862 678.865 142.589C678.865 142.315 678.643 142.094 678.37 142.094C678.097 142.094 677.875 142.315 677.875 142.589C677.875 142.862 678.097 143.083 678.37 143.083Z" fill="white"/>
<path opacity="0.5" d="M558.635 192.56C558.909 192.56 559.13 192.338 559.13 192.065C559.13 191.792 558.909 191.57 558.635 191.57C558.362 191.57 558.141 191.792 558.141 192.065C558.141 192.338 558.362 192.56 558.635 192.56Z" fill="white"/>
<path opacity="0.5" d="M925.76 30.2708C926.034 30.2708 926.255 30.0493 926.255 29.776C926.255 29.5028 926.034 29.2812 925.76 29.2812C925.487 29.2812 925.266 29.5028 925.266 29.776C925.266 30.0493 925.487 30.2708 925.76 30.2708Z" fill="white"/>
<path opacity="0.4" d="M438.893 261.833C439.166 261.833 439.388 261.612 439.388 261.339C439.388 261.065 439.166 260.844 438.893 260.844C438.62 260.844 438.398 261.065 438.398 261.339C438.398 261.612 438.62 261.833 438.893 261.833Z" fill="white"/>
<path d="M796.128 139.122C796.401 139.122 796.622 138.901 796.622 138.628C796.622 138.354 796.401 138.133 796.128 138.133C795.854 138.133 795.633 138.354 795.633 138.628C795.633 138.901 795.854 139.122 796.128 139.122Z" fill="white"/>
<path d="M1076.17 58.9661C1076.45 58.9661 1076.67 58.7446 1076.67 58.4714C1076.67 58.1981 1076.45 57.9766 1076.17 57.9766C1075.9 57.9766 1075.68 58.1981 1075.68 58.4714C1075.68 58.7446 1075.9 58.9661 1076.17 58.9661Z" fill="white"/>
<path d="M309.26 370.685C309.534 370.685 309.755 370.463 309.755 370.19C309.755 369.917 309.534 369.695 309.26 369.695C308.987 369.695 308.766 369.917 308.766 370.19C308.766 370.463 308.987 370.685 309.26 370.685Z" fill="white"/>
<path d="M715.971 247.974C716.245 247.974 716.466 247.752 716.466 247.479C716.466 247.206 716.245 246.984 715.971 246.984C715.698 246.984 715.477 247.206 715.477 247.479C715.477 247.752 715.698 247.974 715.971 247.974Z" fill="white"/>
<path d="M996.026 167.826C996.299 167.826 996.521 167.604 996.521 167.331C996.521 167.057 996.299 166.836 996.026 166.836C995.753 166.836 995.531 167.057 995.531 167.331C995.531 167.604 995.753 167.826 996.026 167.826Z" fill="white"/>
<path d="M229.104 479.536C229.377 479.536 229.599 479.315 229.599 479.042C229.599 478.768 229.377 478.547 229.104 478.547C228.831 478.547 228.609 478.768 228.609 479.042C228.609 479.315 228.831 479.536 229.104 479.536Z" fill="white"/>
</g>
</g>
<defs>
<clipPath id="clip0_3221_10242">
<rect width="1424.98" height="708.54" fill="white" transform="translate(0.015625 -229)"/>
</clipPath>
</defs>
</svg>
