<svg width="24" height="25" viewBox="0 0 24 25" fill="none" xmlns="http://www.w3.org/2000/svg">
<path d="M1.89355 20.2103V19.5591L12.3146 15.001L3.68303 21.8847L1.89355 20.2103Z" fill="#009EE0"/>
<path d="M14.3214 5.69899C14.5583 1.68132 14.4867 2.13341 14.872 2.20225C15.0583 2.23573 15.7267 2.32318 16.3572 2.39666C17.6751 2.55015 17.6614 2.54457 17.5204 2.93713C17.4614 3.09992 16.6867 5.28504 15.7993 7.79201C14.9109 10.299 14.1435 12.4022 14.092 12.4664C14.0414 12.5306 13.9962 12.5511 13.9909 12.5129C13.9762 12.4013 14.2056 7.68039 14.3214 5.69899Z" fill="#009EE0"/>
<path d="M15.3 16.6714C14.9136 16.0584 14.621 15.5346 14.6505 15.5086C14.6957 15.4695 19.1652 19.4211 21.4589 21.5281L22.1305 22.1439C20.1452 23.3839 19.5473 23.7439 19.521 23.7439C19.4947 23.7439 18.6915 22.4035 17.7379 20.7653C16.7831 19.1272 15.6863 17.2844 15.3 16.6714Z" fill="#009EE0"/>
<path d="M14.9449 13.3286C15.0017 13.2979 16.3501 12.1332 17.9428 10.7416C19.5354 9.34905 20.9007 8.21045 20.9765 8.21045C21.0954 8.21045 22.8428 10.1444 22.8428 10.2765C22.8428 10.3035 21.0754 11.043 18.9165 11.9193C16.7565 12.7956 14.9565 13.5128 14.9165 13.5128C14.8754 13.5128 14.8428 13.4839 14.8428 13.4486C14.8428 13.4132 14.8891 13.3593 14.9449 13.3286Z" fill="#009EE0"/>
<path d="M9.81651 10.6843C8.47019 9.59782 7.36914 8.68433 7.36914 8.6527C7.36914 8.55782 9.78493 7.07596 9.88703 7.10945C9.93967 7.12619 10.1649 7.51689 10.3881 7.97735C10.6102 8.43782 11.2786 9.75689 11.8712 10.9076C12.4649 12.0592 12.9491 13.0322 12.9491 13.0704C12.9481 13.1085 12.9007 13.1401 12.8428 13.1401C12.7849 13.1401 12.6312 13.0322 12.5007 12.9001C12.3702 12.7671 11.1628 11.7708 9.81651 10.6843Z" fill="#009EE0"/>
<path d="M15.7258 14.4679C15.8058 14.3981 21.0679 13.9906 21.1553 14.0474C21.2006 14.0781 21.0079 15.692 20.8774 16.373C20.8448 16.5441 20.7564 16.6753 20.6732 16.6753C20.5921 16.6753 19.45 16.212 18.1343 15.6455C15.5385 14.5293 15.6153 14.5665 15.7258 14.4679Z" fill="#009EE0"/>
<path d="M11.0853 19.7923C10.9695 19.7579 13.2832 15.4658 13.4179 15.4658H13.5263C13.5547 15.4658 13.5789 15.6649 13.5789 15.9077C13.58 16.1505 13.6737 17.0612 13.7895 17.9309C13.9053 18.8007 13.9989 19.6695 14 19.8612C14 20.1979 13.9874 20.21 13.6316 20.21C13.4295 20.21 12.801 20.1244 12.2368 20.0202C11.6726 19.9161 11.1547 19.8137 11.0853 19.7923Z" fill="#009EE0"/>
<path d="M8.34492 12.0605C8.42282 11.9917 11.8428 13.8112 11.8428 13.921C11.8428 13.9675 11.0618 14.1433 10.106 14.3126C9.15124 14.481 8.26282 14.6214 8.13229 14.6233C7.94282 14.627 7.89545 14.5768 7.8965 14.3721C7.89755 14.0372 8.26808 12.1284 8.34492 12.0605Z" fill="#009EE0"/>
</svg>
