<svg width="80" height="80" viewBox="0 0 80 80" fill="none" xmlns="http://www.w3.org/2000/svg">
<path d="M18.0126 56.2226C18.1551 56.0145 18.2735 55.7909 18.3655 55.556C18.3966 55.5505 18.4285 55.5505 18.4596 55.556C18.554 55.5269 18.6458 55.4901 18.7341 55.4462C18.8831 55.3207 18.6479 55.5324 18.6086 55.6658C18.6086 55.6658 18.5224 55.6187 18.3812 55.603H18.2949C18.2949 55.603 18.2949 55.603 18.2086 55.603C17.9558 55.6573 17.7089 55.7361 17.4714 55.8383C16.4664 56.2825 15.4374 56.67 14.389 56.9991C13.5978 57.2275 12.762 57.2544 11.9577 57.0775C11.7225 57.0067 11.4963 56.9093 11.2831 56.7873C10.9747 56.6 10.7269 56.3277 10.5694 56.003C10.2948 55.2397 10.3116 54.4018 10.6165 53.6501C10.7552 53.337 10.9317 53.042 11.142 52.7716C11.3773 52.5128 11.6204 52.2618 11.9263 51.9873C12.7263 51.2832 13.6247 50.6993 14.593 50.254C14.832 50.1406 15.065 50.015 15.291 49.8775C15.4714 49.7677 15.7145 49.6344 15.7067 49.5952C15.7632 49.5436 15.8063 49.479 15.8322 49.4069C15.8458 49.3754 15.8643 49.3463 15.8871 49.3207L15.9263 49.1716L15.9733 48.9677H16.1145C16.1791 48.9493 16.242 48.9257 16.3028 48.8971C16.2466 48.9754 16.1993 49.0595 16.1616 49.1481C16.1616 49.1873 16.1145 49.1481 16.0282 49.1481C15.357 49.1692 14.693 49.2935 14.0596 49.5167C13.3302 49.7285 12.5851 49.956 11.8008 50.152C11.3067 50.2697 11.189 49.8697 11.3773 49.2658C11.6454 48.4478 12.2033 47.756 12.9459 47.3207C13.3537 47.103 13.7726 46.9066 14.2008 46.7324C14.7022 46.5227 15.23 46.3829 15.7694 46.3167C16.1812 46.2657 16.5989 46.2923 17.0008 46.3952C17.3097 46.4765 17.6018 46.612 17.8635 46.7952C18.1874 47.0125 18.456 47.3026 18.6479 47.6422C18.9314 48.1575 19.0671 48.741 19.04 49.3285C19.03 49.5208 19.0064 49.7121 18.9694 49.9011C18.9356 50.0803 18.8857 50.2562 18.8204 50.4265C18.7498 50.6226 18.6714 50.8187 18.5851 51.0069C18.4898 51.1799 18.3851 51.3474 18.2714 51.5089L18.0988 51.7442C18.0596 51.6422 18.0596 51.6422 18.0596 51.6422L17.942 51.7364H17.7381C17.4396 51.7918 17.1459 51.8705 16.8596 51.9716C16.342 52.1364 16.0753 52.5364 16.1459 52.8658C16.2086 53.0305 16.4282 53.0148 16.5773 52.9834L17.0086 52.8579C17.3406 52.7359 17.6853 52.6517 18.0361 52.6069C18.0988 52.6069 18.1067 52.6069 18.389 52.6069C18.6714 52.6069 18.7812 52.654 18.9773 52.6854C19.1835 52.7241 19.3857 52.7818 19.5812 52.8579C19.8031 52.9278 20.0143 53.0281 20.2086 53.156C20.4215 53.2904 20.6165 53.4511 20.789 53.6344C21.2451 54.1775 21.4828 54.8708 21.4557 55.5795C21.427 56.4701 21.1734 57.3389 20.7184 58.105C20.5014 58.4887 20.238 58.8443 19.9341 59.1638C19.84 59.2501 19.7851 59.3285 19.6675 59.4226C19.5498 59.5167 19.4322 59.6109 19.3381 59.6736C19.1607 59.7855 18.9775 59.8876 18.789 59.9795C18.2165 60.2305 17.7145 60.3795 17.1341 60.6383C16.8592 60.753 16.5965 60.8949 16.3498 61.0618C16.1145 61.2109 15.84 61.4697 15.9812 61.7599C16.1224 62.0501 16.4282 61.9873 16.6871 61.9716C16.9459 61.956 17.2361 61.9089 17.4714 61.8775C17.8888 61.8093 18.3133 61.7962 18.7341 61.8383H18.891L19.0557 61.9089C19.285 61.999 19.5034 62.1148 19.7067 62.254C20.2728 62.59 20.682 63.1375 20.8439 63.7756C20.8545 64.1865 20.6715 64.5785 20.3498 64.8344C20.2125 64.9779 20.0629 65.1091 19.9028 65.2265C19.63 65.3771 19.3097 65.4164 19.0086 65.3364C18.6847 65.2854 18.3764 65.1621 18.1067 64.9756C17.9617 64.8565 17.7972 64.7636 17.6204 64.7011L17.4871 64.6462H17.4165L17.1812 64.5756C17.0082 64.5018 16.8189 64.4748 16.6322 64.4971C16.4126 64.4971 16.2165 64.4971 15.942 64.5442C15.4215 64.6109 14.8979 64.6502 14.3733 64.6618C14.1556 64.6596 13.9382 64.6439 13.7224 64.6148C13.5498 64.6148 13.3459 64.552 13.2126 64.5128C12.9711 64.4488 12.7371 64.3594 12.5145 64.2462C12.3629 64.183 12.2183 64.1041 12.0831 64.0109C11.8996 63.8963 11.7333 63.7564 11.589 63.5952C11.3833 63.356 11.238 63.0709 11.1655 62.7638C11.0916 62.5092 11.0598 62.2443 11.0714 61.9795L11.1498 61.3756C11.1738 61.0053 11.3016 60.6492 11.5184 60.3481C11.5938 60.2052 11.6918 60.0754 11.8086 59.9638C11.9341 59.8383 12.0361 59.7128 12.1773 59.5873L12.6086 59.1873C12.789 59.0618 13.0008 58.9442 13.189 58.8187C13.3773 58.6932 13.6047 58.5677 13.8165 58.4422C14.0362 58.3079 14.2641 58.1874 14.4988 58.0815L15.9655 57.3834L16.7028 57.0226L17.1812 56.7716C17.2399 56.749 17.3002 56.7306 17.3616 56.7167L17.5577 56.9991C17.6932 57.1805 17.8399 57.3534 17.9969 57.5167L18.1145 57.6422L17.2596 56.7167C17.491 56.5541 17.6838 56.3426 17.8243 56.0971L18.0126 56.2226Z" fill="white"/>
<path d="M21.5293 53.7379L21.7881 55.5183C21.843 56.1222 21.9136 56.7183 21.9528 57.3144C21.9528 57.7536 22.094 58.1693 22.1019 58.6085C22.0979 60.1493 21.9429 61.6861 21.6391 63.1967C21.5372 63.8712 21.4352 64.5379 21.3411 65.2045C21.2408 66.0893 20.9228 66.9355 20.4156 67.6673C20.2352 67.8947 19.8273 67.6673 19.4352 67.2987C19.0222 66.9762 18.7429 66.5125 18.6509 65.9967C18.7109 64.4593 18.8839 62.9284 19.1685 61.4163C19.2451 60.4428 19.2083 59.4637 19.0587 58.4987C19.0117 57.9575 18.9724 57.4163 18.894 56.883C18.8156 56.3496 18.7528 55.8006 18.6509 55.2595C18.5489 54.5928 18.3764 53.9418 18.2195 53.283C17.9921 52.2898 17.6771 51.3187 17.2783 50.381C16.8739 49.6998 16.4121 49.0543 15.8979 48.4516C15.796 48.3104 15.6705 48.1928 15.5764 48.0438C15.247 47.4947 15.3411 47.2124 15.9764 46.6712C16.1254 46.5536 16.2587 46.4202 16.4156 46.3104C16.8452 45.9351 17.4781 45.909 17.9372 46.2477C18.2576 46.4886 18.5615 46.7506 18.847 47.032C19.1116 47.3338 19.3479 47.6594 19.5528 48.0045C19.9739 48.6974 20.331 49.4272 20.6195 50.1849C21.0387 51.3263 21.3794 52.4951 21.6391 53.683L21.5293 53.7379Z" fill="white"/>
<path d="M39.7232 33.9645C36.9483 37.7987 33.4268 41.0321 29.3703 43.4704C28.6409 43.9096 27.9036 44.341 27.1664 44.7645C26.4255 45.18 25.6637 45.557 24.884 45.8939C22.8645 46.7598 20.7828 47.4729 18.6566 48.0273C17.5977 48.2861 16.5467 48.5685 15.4722 48.7567C14.9389 48.8587 14.4134 48.9685 13.9036 49.0626L13.1193 49.1724H12.782C12.6183 49.187 12.4558 49.2132 12.2958 49.2508C12.1936 49.3757 12.1507 49.5388 12.1781 49.6979C12.1825 49.8609 12.1982 50.0233 12.2252 50.1841V50.3175L12.2801 50.5606L12.4056 51.0939C12.6879 52.3018 13.0644 53.5332 13.4095 54.7881C13.7546 56.043 13.9428 57.3449 14.1311 58.6469C14.4081 60.3609 14.4608 62.1036 14.2879 63.8312C14.0793 65.6429 13.3887 67.3655 12.2879 68.8194C11.5036 69.7057 11.0722 69.0469 10.8448 67.9567C10.7193 67.4077 10.6016 66.741 10.5075 66.0587C10.3817 65.3391 10.3396 64.6075 10.382 63.8783C10.4464 62.6203 10.4175 61.3594 10.2958 60.1057C10.1396 58.7695 9.91451 57.4422 9.62126 56.1292C9.43302 54.7802 9.284 53.3606 9.01734 51.8783L8.78988 50.4351C8.72006 50.1041 8.6729 49.7687 8.64871 49.4312C8.6171 49.113 8.6171 48.7925 8.64871 48.4743C8.72083 47.8908 8.96991 47.3434 9.36243 46.9057C9.83401 46.5164 10.399 46.2568 11.0016 46.1528L12.0526 45.9881L12.5703 45.9175L12.8526 45.8783C13.2369 45.8783 13.6369 45.792 13.982 45.7292C17.8526 45.0892 21.5931 43.8229 25.0566 41.9802C28.902 40.0658 32.3239 37.3987 35.1193 34.1371C36.8417 32.1 38.3356 29.8802 39.5742 27.5175C40.2017 26.4743 40.7899 25.392 41.4095 24.2939C41.7232 23.7371 42.0526 23.1959 42.4134 22.5998C42.8029 21.8137 43.5532 21.2685 44.4213 21.141H44.8997C45.0224 21.1333 45.1456 21.1333 45.2683 21.141C45.5323 21.1567 45.7945 21.1934 46.0526 21.2508C46.5728 21.3574 47.0696 21.5567 47.5193 21.839C48.3907 22.4336 49.037 23.3037 49.3546 24.3096C49.8444 26.0272 49.917 27.8368 49.5664 29.5881C49.4242 30.4294 49.2251 31.26 48.9703 32.0743C48.6985 32.8828 48.3655 33.6694 47.9742 34.4273C47.6446 35.1027 47.2699 35.7552 46.8526 36.3802C46.2903 37.2408 45.5689 37.9862 44.7271 38.5763C44.2896 38.8902 43.7373 38.999 43.2134 38.8743C43.0002 38.8486 42.7917 38.7931 42.5938 38.7096C42.0369 38.3959 42.5389 37.3998 43.4801 35.9332C44.8228 33.6974 45.7749 31.2493 46.2958 28.6939C46.5658 27.5856 46.5872 26.4312 46.3585 25.3136C46.2863 24.981 46.1202 24.6762 45.8801 24.4351C45.6303 24.2191 45.3158 24.0922 44.986 24.0743C44.9209 24.0661 44.855 24.0661 44.7899 24.0743C44.7899 24.0743 44.7899 24.0743 44.8291 24.0743C44.8291 24.0743 44.8683 24.0743 44.8291 24.0743C44.7728 24.1428 44.7229 24.2163 44.6801 24.2939L44.5075 24.5528C44.4056 24.7802 44.3271 24.9841 44.233 25.2194L43.1585 28.1606C42.9619 28.6811 42.734 29.1892 42.4762 29.6822C42.2095 30.1763 41.9271 30.6626 41.6448 31.1488C41.0644 32.1136 40.4605 33.0704 39.8017 33.9959L39.7232 33.9645Z" fill="white"/>
<path d="M46.1813 71.6515C44.1734 71.5025 42.2597 71.2123 40.2754 70.9613C39.5617 70.8515 38.8479 70.8436 38.142 70.726C35.6558 70.2868 33.1852 69.7691 30.7303 69.2123C29.6401 68.9534 28.542 68.7574 27.444 68.5456C26.746 68.4123 26.0322 68.2789 25.3264 68.1064L24.793 67.9495L24.3381 67.6593C24.0053 67.4586 23.6881 67.2331 23.3891 66.9848C23.0126 66.6711 23.2166 66.4358 23.7264 66.2005C23.9773 66.0593 24.3146 65.8868 24.6597 65.7142C24.8479 65.628 25.0518 65.5338 25.2558 65.4554L25.5617 65.3456C25.6528 65.3345 25.745 65.3345 25.8362 65.3456C28.4871 65.8632 31.3264 66.1691 34.0715 66.9848C35.7822 67.3458 37.5179 67.5765 39.2636 67.675C41.1773 67.8998 43.0885 68.0855 44.9969 68.2319L46.7617 68.326H48.5107C49.3456 68.3065 50.1785 68.2358 51.0048 68.1142C51.1915 68.0906 51.3754 68.0486 51.5538 67.9887C51.7253 67.9441 51.8931 67.8864 52.0558 67.8162C52.2289 67.7386 52.3965 67.6495 52.5577 67.5495C52.689 67.472 52.8148 67.3855 52.9342 67.2907C53.2267 67.0769 53.4216 66.7549 53.4754 66.3966C53.4993 66.0554 53.2994 65.738 52.9813 65.6123C52.8617 65.569 52.7383 65.5375 52.6126 65.5181C52.5333 65.4931 52.4609 65.4502 52.4009 65.3927C52.3382 65.293 52.2906 65.1847 52.2597 65.0711C52.1469 64.6844 52.1096 64.2797 52.1499 63.8789C52.1499 63.6593 52.1499 63.4476 52.1499 63.2515C52.187 62.9058 52.3732 62.5936 52.6597 62.3966C52.8492 62.2554 53.0514 62.132 53.2636 62.028C53.3891 61.9809 53.4989 61.8711 53.6558 61.8868L54.1656 61.9809C55.2661 62.1977 56.2455 62.8189 56.9107 63.7221C57.2257 64.1816 57.4616 64.6906 57.6087 65.228C57.6779 65.7882 57.6487 66.3562 57.5224 66.9064C57.3656 68.0436 56.3538 68.977 55.4205 69.8005C54.9957 70.1512 54.5388 70.4611 54.0558 70.726L53.4832 71.0083C53.2562 71.1047 53.023 71.1859 52.7852 71.2515C52.1728 71.4548 51.5382 71.5838 50.895 71.6358C50.6175 71.6811 50.3369 71.7047 50.0558 71.7064H49.2715C48.7303 71.7064 48.2283 71.7064 47.7028 71.7064C47.1773 71.7064 46.6675 71.7064 46.1342 71.6593L46.1813 71.6515Z" fill="white"/>
<path d="M60.7899 55.8598C60.9076 56.0167 61.0017 56.1814 61.1115 56.3461L61.2605 56.5893C61.2921 56.6911 61.3106 56.7965 61.3154 56.903C61.3154 57.3344 61.4174 57.7579 61.4174 58.1814V58.801C61.4447 59.004 61.4447 59.2098 61.4174 59.4128L61.2997 60.0089C61.2498 60.1817 61.1787 60.3476 61.088 60.503C60.9782 60.7383 60.884 60.9657 60.7821 61.154C60.6932 61.3577 60.5799 61.55 60.4448 61.7265C60.0006 62.3021 59.4426 62.78 58.8056 63.1304C58.2276 63.4685 57.6005 63.7146 56.9468 63.8598C56.3918 64.0114 55.8201 64.0931 55.2448 64.103C54.4866 64.1891 53.7265 63.9593 53.1429 63.4677C52.9625 63.3108 53.1978 63.0206 53.5193 62.7461C53.7786 62.4832 54.0994 62.2891 54.4527 62.1814C54.91 62.1736 55.364 62.1023 55.8017 61.9697C56.2704 61.8509 56.7293 61.6962 57.1742 61.5069C57.6975 61.2426 58.0889 60.7746 58.2566 60.2128C58.3664 59.9383 58.3899 59.7187 58.4527 59.5697C58.4996 59.3719 58.5207 59.1689 58.5154 58.9657C58.5365 58.6775 58.3817 58.405 58.1233 58.2755C58.0215 58.2333 57.9166 58.1993 57.8095 58.1736C57.7286 58.1669 57.6473 58.1669 57.5664 58.1736H57.2684C56.8291 58.1736 56.3664 58.0951 55.8723 58.0324C55.061 58 54.2546 57.8897 53.4644 57.703C53.2812 57.6643 53.1005 57.6145 52.9233 57.554C52.8069 57.4727 52.7081 57.3686 52.6331 57.2481C52.6015 57.1007 52.6015 56.9484 52.6331 56.801C52.7214 56.446 52.8757 56.1108 53.088 55.8128C53.1978 55.6402 53.2997 55.4677 53.4174 55.3108C53.6064 55.0618 53.8341 54.8446 54.0919 54.6677C54.3527 54.4603 54.6279 54.2715 54.9154 54.103C55.1544 54.0396 55.3984 53.9976 55.6448 53.9775C55.8172 53.9672 55.9901 53.9672 56.1625 53.9775C56.4886 53.9483 56.8167 53.9483 57.1429 53.9775C57.4723 53.9775 57.8644 54.2598 58.837 54.4324L60.0056 54.8873L60.4684 55.303L60.8527 55.7814L60.7899 55.8598Z" fill="white"/>
<path d="M54.5298 44.9889C55.8866 45.5301 57.3141 46.0556 58.7964 46.7536C59.3874 46.9721 59.9507 47.259 60.4749 47.6085C61.5633 48.3532 62.3872 49.4243 62.8278 50.6673C62.9723 51.2446 63.0486 51.8369 63.0552 52.432C63.0597 52.7501 63.0334 53.068 62.9768 53.381C62.9085 53.7153 62.7978 54.0395 62.6474 54.3457C62.3731 54.8839 61.9687 55.3449 61.4709 55.6869C61.0266 55.9721 60.5394 56.1839 60.0278 56.3144C58.8692 56.7147 57.6001 56.6472 56.4905 56.1261C56.1533 55.9536 56.3101 55.5771 56.6631 55.1771C57.0277 54.7118 57.5095 54.3517 58.0592 54.134C58.7498 54.1102 59.417 53.8778 59.9729 53.4673C60.0659 53.3778 60.1312 53.2635 60.1611 53.1379C60.2096 52.8287 60.2096 52.5138 60.1611 52.2046C60.1499 52.0854 60.1289 51.9674 60.0984 51.8516C60.0772 51.772 60.0455 51.6955 60.0043 51.6242C59.9099 51.4536 59.7786 51.3062 59.62 51.1928C59.2098 50.8854 58.7681 50.6225 58.3023 50.4085C57.0607 49.7689 55.7704 49.2286 54.4435 48.7928L51.7847 47.883C50.4373 47.3793 49.1269 46.7817 47.8631 46.0948C46.7372 45.602 45.6821 44.961 44.7258 44.1889C44.5074 44.0083 44.3053 43.8089 44.1219 43.5928C43.4945 42.7144 43.6749 42.2124 44.3337 41.7026C44.4834 41.5782 44.6406 41.4629 44.8043 41.3575C45.33 41.0716 45.9648 41.0716 46.4905 41.3575C47.1886 41.7575 47.769 42.1418 48.4513 42.4477C49.1337 42.7536 49.8474 43.1144 50.6552 43.4281C51.8474 43.8908 53.1258 44.4399 54.5219 44.8869L54.5298 44.9889Z" fill="white"/>
<path d="M54.8189 20.0603C54.9287 20.272 54.6228 20.3818 54.0816 20.4367C53.8326 20.4299 53.5874 20.374 53.3601 20.272C53.239 20.1573 53.1263 20.0341 53.0228 19.9034C52.9757 19.8328 52.8267 18.7818 52.7248 18.4289C52.649 18.1027 52.6225 17.7669 52.6463 17.4328C52.6463 16.7662 52.6463 16.1073 52.5993 15.4642C52.5932 15.3203 52.6145 15.1766 52.662 15.0407C52.8394 14.573 52.8828 14.065 52.7875 13.574C52.7875 13.4877 52.7875 13.4093 52.6855 13.3309C52.4984 12.83 52.4157 12.2962 52.4424 11.7622C52.5914 11.3152 52.6228 10.876 52.7875 10.4054C52.7875 10.3426 52.7875 10.2799 52.8816 10.2014C53.0448 10.1171 53.1315 9.9341 53.0934 9.75439C53.0934 9.66027 53.0934 9.55831 53.0934 9.45635C53.1213 9.34788 53.1607 9.2427 53.211 9.14263C53.2913 9.02117 53.3804 8.90582 53.4777 8.79753C53.5983 8.71227 53.7478 8.67842 53.8934 8.70341C54.011 8.76616 54.1444 8.66419 54.262 8.63282C54.3062 8.62565 54.3512 8.62565 54.3953 8.63282C54.6221 8.78138 54.8395 8.94378 55.0463 9.1191C55.2514 9.3021 55.4355 9.50727 55.5953 9.73086L55.713 10.0054C55.8087 10.1995 55.8875 10.4016 55.9483 10.6093C56.0738 11.0642 56.1914 11.5505 56.2306 11.6446C56.2699 11.7387 56.2306 11.8564 56.1757 11.9662C56.1208 12.076 56.4895 13.4171 56.4659 13.4799C56.4659 13.7701 56.5522 14.0681 56.3012 14.3583C56.2754 14.4157 56.2754 14.4813 56.3012 14.5387C56.3031 15.0442 56.2263 15.547 56.0738 16.0289C56.0189 16.272 56.0189 16.5309 55.9797 16.774C55.9797 16.8211 55.9326 16.8681 55.9169 16.9073C55.8814 16.9572 55.8548 17.013 55.8385 17.072C55.7836 17.6603 55.564 18.2328 55.5561 18.8132C55.5561 18.9544 55.1875 19.5426 55.1953 19.6995C55.2032 19.8564 54.7718 19.974 54.8189 20.0603Z" fill="white"/>
<path d="M61.574 31.3211C61.4955 31.4936 61.2602 31.4152 60.9387 31.227C60.8043 31.127 60.7009 30.9911 60.6406 30.8348C60.652 30.7002 60.673 30.5665 60.7034 30.4348C60.7034 30.3642 61.3387 29.5329 61.5504 29.227C61.7481 28.934 61.9857 28.67 62.2563 28.4427C62.7716 27.9695 63.3371 27.5539 63.9426 27.2035C64.0804 27.1234 64.2321 27.0702 64.3896 27.0466C64.9183 26.9632 65.4296 26.7936 65.9034 26.5446C65.9818 26.5446 66.0759 26.4897 66.1308 26.3721C66.6384 26.0271 67.2227 25.8116 67.8328 25.7446C68.0916 25.7917 68.3347 25.7838 68.6171 25.8466L69.3544 26.0191C69.4249 26.0191 69.4955 26.0191 69.5661 26.1133C69.7308 26.3642 69.8642 26.3172 70.0053 26.3407C70.2106 26.3551 70.4107 26.4111 70.5936 26.5054C70.7046 26.5841 70.8003 26.6824 70.8759 26.7956C70.9622 26.8897 70.8759 27.2191 70.8759 27.2584C70.8759 27.2976 70.8759 27.5172 70.8759 27.6584V27.7995C70.5513 28.1241 70.1997 28.4206 69.8249 28.6858L69.6053 28.7721L69.1347 28.976C68.7975 29.1329 68.4367 29.2035 68.3504 29.2662C68.2642 29.3289 68.1857 29.2662 68.0994 29.2662C68.0132 29.2662 67.0642 29.7133 67.0249 29.7211C66.7975 29.7211 66.6171 29.9172 66.3269 29.776C66.2832 29.7508 66.2294 29.7508 66.1857 29.776C65.8124 29.9194 65.4299 30.0373 65.0406 30.1289C64.8445 30.1917 64.6642 30.2936 64.4681 30.3564C64.4681 30.3564 64.3818 30.3564 64.3426 30.3564C64.291 30.3444 64.2373 30.3444 64.1857 30.3564C63.7126 30.5173 63.2578 30.7276 62.8289 30.9838C62.7347 31.0466 62.1387 31.1642 62.0445 31.2584C61.9504 31.3525 61.6053 31.2505 61.574 31.3211Z" fill="white"/>
</svg>
