<svg width="16" height="17" viewBox="0 0 16 17" fill="none" xmlns="http://www.w3.org/2000/svg">
<path d="M6.57685 4.44774C6.11514 5.52317 5.81685 7.05003 5.81685 8.76774C5.81685 10.4843 6.11628 12.0112 6.57799 13.0877C6.80885 13.6272 7.06942 14.0272 7.32999 14.2843C7.58714 14.5392 7.81342 14.6249 8.00085 14.6249C8.18828 14.6249 8.41457 14.5392 8.67171 14.2843C8.93228 14.0272 9.19285 13.6272 9.42371 13.0889C9.88542 12.0112 10.1837 10.4843 10.1837 8.76774C10.1837 7.05117 9.88542 5.52432 9.42371 4.44774C9.19285 3.90832 8.93228 3.50832 8.67171 3.25117C8.41457 2.99632 8.18828 2.9106 8.00085 2.9106C7.81342 2.9106 7.58714 2.99632 7.32999 3.25117C7.06942 3.50832 6.80885 3.90832 6.57799 4.4466L6.57685 4.44774ZM6.52542 2.43632C6.92771 2.03974 7.42599 1.7666 7.99971 1.7666C8.57342 1.7666 9.07171 2.04089 9.47399 2.43632C9.87285 2.8306 10.2054 3.37232 10.4729 3.99632C11.0089 5.24546 11.3254 6.93346 11.3254 8.7666C11.3254 10.5997 11.0089 12.2866 10.4729 13.5369C10.2054 14.1609 9.87285 14.7026 9.47285 15.0969C9.07285 15.4935 8.57342 15.7666 7.99971 15.7666C7.42599 15.7666 6.92771 15.4923 6.52542 15.0969C6.12657 14.7026 5.79399 14.1609 5.52657 13.5369C4.99057 12.2877 4.67285 10.5997 4.67285 8.7666C4.67285 6.93346 4.99057 5.2466 5.52657 3.99632C5.79399 3.37232 6.12657 2.8306 6.52542 2.43632Z" fill="white"/>
<path d="M1 8.76821C1 8.61665 1.0602 8.47131 1.16737 8.36415C1.27453 8.25698 1.41988 8.19678 1.57143 8.19678H14.4286C14.5801 8.19678 14.7255 8.25698 14.8326 8.36415C14.9398 8.47131 15 8.61665 15 8.76821C15 8.91976 14.9398 9.0651 14.8326 9.17227C14.7255 9.27943 14.5801 9.33963 14.4286 9.33963H1.57143C1.41988 9.33963 1.27453 9.27943 1.16737 9.17227C1.0602 9.0651 1 8.91976 1 8.76821Z" fill="white"/>
<path d="M8 2.91092C6.44659 2.91092 4.9568 3.52801 3.85837 4.62644C2.75995 5.72487 2.14286 7.21466 2.14286 8.76807C2.14286 10.3215 2.75995 11.8113 3.85837 12.9097C4.9568 14.0081 6.44659 14.6252 8 14.6252C9.55341 14.6252 11.0432 14.0081 12.1416 12.9097C13.2401 11.8113 13.8571 10.3215 13.8571 8.76807C13.8571 7.21466 13.2401 5.72487 12.1416 4.62644C11.0432 3.52801 9.55341 2.91092 8 2.91092ZM1 8.76807C1 6.91155 1.7375 5.13107 3.05025 3.81832C4.36301 2.50556 6.14348 1.76807 8 1.76807C9.85652 1.76807 11.637 2.50556 12.9497 3.81832C14.2625 5.13107 15 6.91155 15 8.76807C15 10.6246 14.2625 12.4051 12.9497 13.7178C11.637 15.0306 9.85652 15.7681 8 15.7681C6.14348 15.7681 4.36301 15.0306 3.05025 13.7178C1.7375 12.4051 1 10.6246 1 8.76807Z" fill="white"/>
</svg>
