<svg width="12" height="14" viewBox="0 0 12 14" fill="none" xmlns="http://www.w3.org/2000/svg">
<path fill-rule="evenodd" clip-rule="evenodd" d="M8 3.5V5H4V3.5C4 2.39543 4.89543 1.5 6 1.5C7.10457 1.5 8 2.39543 8 3.5ZM2.5 5V3.5C2.5 1.567 4.067 0 6 0C7.933 0 9.5 1.567 9.5 3.5V5H10.5H12V6.5V11.5C12 12.8807 10.8807 14 9.5 14H2.5C1.11929 14 0 12.8807 0 11.5V6.5V5H1.5H2.5ZM9.5 6.5H8H4H2.5H1.5V11.5C1.5 12.0523 1.94772 12.5 2.5 12.5H9.5C10.0523 12.5 10.5 12.0523 10.5 11.5V6.5H9.5Z" fill="#171717"/>
</svg>
