<svg width="18" height="15" viewBox="0 0 18 15" fill="none" xmlns="http://www.w3.org/2000/svg">
<path fill-rule="evenodd" clip-rule="evenodd" d="M9.4074 0.318297C9.3768 0.239697 9.3083 0.182027 9.2257 0.165167C9.143 0.148317 9.0575 0.174567 8.9985 0.234887L4.56436 4.77091C4.48192 4.85525 4.47018 4.98593 4.53626 5.08361C4.60235 5.18129 4.72803 5.21901 4.83697 5.17385L8.65239 3.59262L12.6426 9.97516C12.7106 10.0839 12.85 10.123 12.9646 10.0655C13.0791 10.008 13.1311 9.87286 13.0845 9.75346L9.4074 0.318297ZM6.98968 6.49213C7.0538 6.38169 7.02369 6.24062 6.92006 6.16599C6.81644 6.09135 6.67309 6.1075 6.58866 6.20331L0.562007 13.0425C0.504157 13.1081 0.485137 13.1994 0.511937 13.2827C0.538737 13.366 0.607397 13.429 0.692677 13.4486L6.71933 14.8338C6.83396 14.8602 6.95134 14.8025 7.00051 14.6956C7.04968 14.5888 7.01713 14.4621 6.92256 14.3922L3.76038 12.0543L6.98968 6.49213ZM14.9931 8.11806C14.954 8.00306 14.8374 7.93336 14.7175 7.95316C14.5977 7.97306 14.5098 8.07666 14.5098 8.19816V12.0954L7.15437 12.2394C7.02597 12.2419 6.92068 12.3419 6.91156 12.47C6.90245 12.5981 6.99252 12.712 7.11927 12.7327L16.7117 14.2968C16.7978 14.3109 16.885 14.2787 16.9413 14.2121C16.9976 14.1455 17.0149 14.0543 16.9867 13.9717L14.9931 8.11806Z" fill="black" stroke="black" stroke-width="0.2" stroke-linecap="round" stroke-linejoin="round"/>
</svg>
