<svg width="11" height="12" viewBox="0 0 11 12" fill="none" xmlns="http://www.w3.org/2000/svg">
<path fill-rule="evenodd" clip-rule="evenodd" d="M3.81634 2.2486V0.86084H4.85716V2.2486H3.81634ZM0.672834 2.26964L1.71365 3.31046L2.44962 2.57449L1.4088 1.53367L0.672834 2.26964ZM2.94616 3.807L3.32726 4.85502L5.4089 10.5795L5.87482 11.8608L6.38116 10.5949L7.12885 8.72569L9.34635 10.9431L10.0823 10.2072L7.86485 7.98969L9.73409 7.242L11 6.73566L9.71868 6.26974L3.99418 4.1881L2.94616 3.807ZM8.08168 6.78197L7.02164 7.206C6.71307 7.32943 6.46859 7.57391 6.34516 7.88248L5.92113 8.94252L4.68652 5.54736L8.08168 6.78197ZM0 5.718H1.38776V4.67718H0V5.718Z" fill="#FF4200"/>
</svg>
