<svg width="25" height="25" viewBox="0 0 25 25" fill="none" xmlns="http://www.w3.org/2000/svg">
<g opacity="0.7">
<g clip-path="url(#clip0_2440_8312)">
<g clip-path="url(#clip1_2440_8312)">
<path d="M19.0311 6.88419C17.891 6.34183 16.6567 5.94818 15.371 5.72074C15.3597 5.72037 15.3485 5.72253 15.3381 5.72707C15.3278 5.7316 15.3185 5.7384 15.311 5.74698C15.1567 6.03566 14.9767 6.41181 14.8567 6.70048C13.4929 6.49054 12.106 6.49054 10.7423 6.70048C10.6223 6.40306 10.4423 6.03566 10.2794 5.74698C10.2708 5.72949 10.2451 5.72074 10.2194 5.72074C8.93363 5.94818 7.70788 6.34183 6.55928 6.88419C6.55071 6.88419 6.54214 6.89293 6.53357 6.90168C4.20207 10.462 3.5592 13.9261 3.87635 17.3552C3.87635 17.3727 3.88492 17.3902 3.90207 17.3989C5.44497 18.5536 6.92786 19.2534 8.39362 19.7171C8.41933 19.7258 8.44505 19.7171 8.45362 19.6996C8.79649 19.2185 9.10507 18.7111 9.37079 18.1775C9.38793 18.1425 9.37079 18.1075 9.3365 18.0987C8.84792 17.9063 8.38505 17.6789 7.93075 17.4164C7.89646 17.3989 7.89646 17.3464 7.92218 17.3202C8.01646 17.2502 8.11075 17.1715 8.20504 17.1015C8.22218 17.084 8.2479 17.084 8.26504 17.0928C11.2137 18.4662 14.3938 18.4662 17.3082 17.0928C17.3253 17.084 17.351 17.084 17.3682 17.1015C17.4625 17.1802 17.5567 17.2502 17.651 17.329C17.6853 17.3552 17.6853 17.4077 17.6425 17.4252C17.1967 17.6964 16.7253 17.915 16.2367 18.1075C16.2024 18.1162 16.1939 18.16 16.2024 18.1862C16.4767 18.7198 16.7853 19.2272 17.1196 19.7083C17.1453 19.7171 17.171 19.7258 17.1967 19.7171C18.6711 19.2534 20.154 18.5536 21.6969 17.3989C21.714 17.3902 21.7226 17.3727 21.7226 17.3552C22.0997 13.3925 21.0968 9.95463 19.0654 6.90168C19.0568 6.89293 19.0482 6.88419 19.0311 6.88419ZM9.81651 15.2645C8.93363 15.2645 8.19647 14.4335 8.19647 13.41C8.19647 12.3865 8.91649 11.5555 9.81651 11.5555C10.7251 11.5555 11.4452 12.3952 11.4366 13.41C11.4366 14.4335 10.7165 15.2645 9.81651 15.2645ZM15.791 15.2645C14.9081 15.2645 14.1709 14.4335 14.1709 13.41C14.1709 12.3865 14.891 11.5555 15.791 11.5555C16.6996 11.5555 17.4196 12.3952 17.411 13.41C17.411 14.4335 16.6996 15.2645 15.791 15.2645Z" fill="#666666"/>
</g>
</g>
</g>
<defs>
<clipPath id="clip0_2440_8312">
<rect width="24" height="24" fill="white" transform="translate(0.800781 0.720703)"/>
</clipPath>
<clipPath id="clip1_2440_8312">
<rect width="24" height="24" fill="white" transform="translate(0.800781 0.720703)"/>
</clipPath>
</defs>
</svg>
