<svg width="22" height="23" viewBox="0 0 22 23" fill="none" xmlns="http://www.w3.org/2000/svg">
<g clip-path="url(#clip0_2440_8243)">
<path d="M11 3.48633C6.57486 3.48633 3 7.06119 3 11.4863C3 15.0109 5.30057 18.012 8.47429 19.0863C8.87429 19.1618 9.02514 18.9115 9.02514 18.7115V17.3618C6.8 17.836 6.32457 16.2863 6.32457 16.2863C5.94971 15.3606 5.42514 15.1115 5.42514 15.1115C4.70057 14.6109 5.47543 14.636 5.47543 14.636C6.27543 14.6863 6.69943 15.4612 6.69943 15.4612C7.42514 16.6863 8.57486 16.3366 9.02514 16.1355C9.10057 15.6109 9.29943 15.2612 9.52457 15.0612C7.74971 14.8612 5.87543 14.1618 5.87543 11.1115C5.87543 10.236 6.17486 9.53661 6.69943 8.96176C6.62514 8.76176 6.34971 7.93661 6.77486 6.83604C6.77486 6.83604 7.44914 6.6109 8.97486 7.66119C9.62664 7.4826 10.2991 7.39038 10.9749 7.3869C11.6491 7.3869 12.3497 7.48633 12.9749 7.66119C14.5006 6.63604 15.1749 6.83604 15.1749 6.83604C15.6 7.93661 15.3246 8.76176 15.2503 8.96176C15.776 9.51033 16.0754 10.236 16.0754 11.1103C16.0754 14.1858 14.2 14.8612 12.4251 15.0612C12.6994 15.3115 12.9749 15.7858 12.9749 16.5355V18.7366C12.9749 18.9618 13.1246 19.2109 13.5246 19.1115C16.7006 18.0109 19 15.0109 19 11.4863C19 7.06119 15.4251 3.48633 11 3.48633Z" fill="#666666"/>
</g>
<defs>
<clipPath id="clip0_2440_8243">
<rect width="16" height="16" fill="white" transform="translate(3 3.28711)"/>
</clipPath>
</defs>
</svg>
