<svg width="20" height="21" viewBox="0 0 20 21" fill="none" xmlns="http://www.w3.org/2000/svg">
<path d="M17.5 10.5C17.5 10.6658 17.4342 10.8247 17.3169 10.9419C17.1997 11.0592 17.0408 11.125 16.875 11.125H3.125C2.95924 11.125 2.80027 11.0592 2.68306 10.9419C2.56585 10.8247 2.5 10.6658 2.5 10.5C2.5 10.3342 2.56585 10.1753 2.68306 10.0581C2.80027 9.94085 2.95924 9.875 3.125 9.875H16.875C17.0408 9.875 17.1997 9.94085 17.3169 10.0581C17.4342 10.1753 17.5 10.3342 17.5 10.5ZM3.125 6.125H16.875C17.0408 6.125 17.1997 6.05915 17.3169 5.94194C17.4342 5.82473 17.5 5.66576 17.5 5.5C17.5 5.33424 17.4342 5.17527 17.3169 5.05806C17.1997 4.94085 17.0408 4.875 16.875 4.875H3.125C2.95924 4.875 2.80027 4.94085 2.68306 5.05806C2.56585 5.17527 2.5 5.33424 2.5 5.5C2.5 5.66576 2.56585 5.82473 2.68306 5.94194C2.80027 6.05915 2.95924 6.125 3.125 6.125ZM16.875 14.875H3.125C2.95924 14.875 2.80027 14.9408 2.68306 15.0581C2.56585 15.1753 2.5 15.3342 2.5 15.5C2.5 15.6658 2.56585 15.8247 2.68306 15.9419C2.80027 16.0592 2.95924 16.125 3.125 16.125H16.875C17.0408 16.125 17.1997 16.0592 17.3169 15.9419C17.4342 15.8247 17.5 15.6658 17.5 15.5C17.5 15.3342 17.4342 15.1753 17.3169 15.0581C17.1997 14.9408 17.0408 14.875 16.875 14.875Z" fill="#171717"/>
</svg>
