<svg width="25" height="25" viewBox="0 0 25 25" fill="none" xmlns="http://www.w3.org/2000/svg">
<path d="M12.8008 7.7207C11.8119 7.7207 10.8452 8.01394 10.0229 8.56335C9.20068 9.11276 8.55982 9.89365 8.18138 10.8073C7.80294 11.7209 7.70393 12.7262 7.89685 13.6962C8.08978 14.6661 8.56598 15.557 9.26525 16.2562C9.96451 16.9555 10.8554 17.4317 11.8253 17.6246C12.7953 17.8176 13.8006 17.7185 14.7142 17.3401C15.6278 16.9617 16.4087 16.3208 16.9581 15.4986C17.5076 14.6763 17.8008 13.7096 17.8008 12.7207C17.8008 11.3946 17.274 10.1229 16.3363 9.18517C15.3987 8.24748 14.1269 7.7207 12.8008 7.7207ZM12.8008 15.7207C12.2075 15.7207 11.6274 15.5448 11.1341 15.2151C10.6407 14.8855 10.2562 14.4169 10.0291 13.8688C9.80208 13.3206 9.74267 12.7174 9.85842 12.1354C9.97418 11.5535 10.2599 11.0189 10.6795 10.5994C11.099 10.1798 11.6336 9.8941 12.2155 9.77834C12.7975 9.66259 13.4007 9.722 13.9489 9.94906C14.497 10.1761 14.9656 10.5606 15.2952 11.054C15.6249 11.5473 15.8008 12.1274 15.8008 12.7207C15.8008 13.5163 15.4847 14.2794 14.9221 14.842C14.3595 15.4046 13.5964 15.7207 12.8008 15.7207ZM17.8008 6.7207C17.603 6.7207 17.4097 6.77935 17.2452 6.88923C17.0808 6.99911 16.9526 7.15529 16.8769 7.33802C16.8012 7.52074 16.7814 7.72181 16.82 7.91579C16.8586 8.10977 16.9538 8.28795 17.0937 8.42781C17.2335 8.56766 17.4117 8.6629 17.6057 8.70149C17.7997 8.74007 18.0008 8.72027 18.1835 8.64458C18.3662 8.56889 18.5224 8.44072 18.6323 8.27627C18.7422 8.11182 18.8008 7.91848 18.8008 7.7207C18.8008 7.45548 18.6954 7.20113 18.5079 7.01359C18.3204 6.82606 18.066 6.7207 17.8008 6.7207ZM22.7408 8.9607C22.7242 8.10612 22.5619 7.26065 22.2608 6.4607C21.9816 5.73277 21.5524 5.07169 21.0011 4.5204C20.4498 3.9691 19.7887 3.53992 19.0608 3.2607C18.2609 2.9596 17.4154 2.79727 16.5608 2.7807C15.5908 2.7207 15.2708 2.7207 12.8008 2.7207C10.3308 2.7207 10.0108 2.7207 9.04078 2.7807C8.1862 2.79727 7.34073 2.9596 6.54078 3.2607C5.81285 3.53992 5.15177 3.9691 4.60048 4.5204C4.04918 5.07169 3.62 5.73277 3.34078 6.4607C3.03968 7.26065 2.87735 8.10612 2.86078 8.9607C2.80078 9.9407 2.80078 10.2607 2.80078 12.7207C2.80078 15.1807 2.80078 15.5007 2.86078 16.4807C2.87735 17.3353 3.03968 18.1808 3.34078 18.9807C3.62 19.7086 4.04918 20.3697 4.60048 20.921C5.15177 21.4723 5.81285 21.9015 6.54078 22.1807C7.34073 22.4818 8.1862 22.6441 9.04078 22.6607C10.0408 22.6607 10.3308 22.7207 12.8008 22.7207C15.2708 22.7207 15.5908 22.7207 16.5608 22.6607C17.4154 22.6441 18.2609 22.4818 19.0608 22.1807C19.7887 21.9015 20.4498 21.4723 21.0011 20.921C21.5524 20.3697 21.9816 19.7086 22.2608 18.9807C22.5619 18.1808 22.7242 17.3353 22.7408 16.4807C22.7408 15.4807 22.8008 15.1807 22.8008 12.7207C22.8008 10.2607 22.8008 9.9407 22.7408 8.9607ZM20.7408 16.3907C20.7233 17.0253 20.6051 17.6531 20.3908 18.2507C20.2136 18.723 19.9335 19.15 19.5708 19.5007C19.2222 19.8635 18.7944 20.1408 18.3208 20.3107C17.7218 20.5338 17.0898 20.6555 16.4508 20.6707C15.5108 20.6707 15.2208 20.7207 12.7908 20.7207C10.3608 20.7207 10.0808 20.7207 9.14078 20.7207C8.5028 20.7042 7.87153 20.5861 7.27078 20.3707C6.79844 20.1935 6.37145 19.9134 6.02078 19.5507C5.65793 19.2021 5.3807 18.7743 5.21078 18.3007C4.98858 17.7049 4.86693 17.0764 4.85078 16.4407C4.85078 15.4407 4.85078 15.1907 4.85078 12.7707C4.85078 10.3507 4.85078 10.0607 4.85078 9.1007C4.86802 8.46191 4.98962 7.83024 5.21078 7.2307C5.38334 6.76133 5.66031 6.33732 6.02078 5.9907C6.36936 5.62785 6.79719 5.35062 7.27078 5.1807C7.86977 4.9576 8.50177 4.83593 9.14078 4.8207C10.0808 4.7207 10.3708 4.7207 12.8008 4.7207C15.2308 4.7207 15.5208 4.7207 16.4608 4.7207C17.1029 4.73703 17.7381 4.85864 18.3408 5.0807C18.8102 5.25326 19.2342 5.53023 19.5808 5.8907C19.9436 6.23928 20.2209 6.66711 20.3908 7.1407C20.6356 7.74926 20.7743 8.39528 20.8008 9.0507C20.8008 10.0507 20.8508 10.3007 20.8508 12.7207C20.8508 15.1407 20.8008 15.4307 20.8008 16.3907H20.7408Z" fill="#666666"/>
</svg>
