<svg width="12" height="13" viewBox="0 0 12 13" fill="none" xmlns="http://www.w3.org/2000/svg">
<path fill-rule="evenodd" clip-rule="evenodd" d="M5.25001 0.36084H5.81251H6.18751H7.31251H7.6875H8.25V1.46853H7.6875H7.31251V2.0517C8.34052 2.15952 9.2799 2.5595 10.0433 3.16569L10.4773 2.73844L10.875 2.34681L11.6705 3.13007L11.2727 3.5217L10.8389 3.94895C11.5652 4.83574 12 5.96367 12 7.19161C12 10.0465 9.6495 12.3608 6.75002 12.3608C5.54738 12.3608 4.43802 11.9621 3.55273 11.2919H1.50002V10.1842H3.75002C3.88166 10.1842 4.00913 10.2297 4.11024 10.3127C4.8258 10.9002 5.74531 11.2531 6.75002 11.2531C9.0282 11.2531 10.875 9.43476 10.875 7.19161C10.875 4.94848 9.0282 3.13007 6.75002 3.13007C5.44445 3.13007 4.28075 3.72664 3.52399 4.66019L2.64472 3.96921C3.49589 2.91917 4.75574 2.20198 6.18751 2.05172V1.46853H5.81251H5.25001V0.36084ZM8.73878 6.01672L8.34097 6.40835L7.14775 7.58324L6.75 7.9749L5.9545 7.19161L6.35225 6.79998L7.54553 5.6251L7.94325 5.23347L8.73878 6.01672ZM1.5 5.71469H2.0625H3.1875H3.75V6.82238H3.1875H2.0625H1.5V5.71469ZM0.5625 7.93007H0V9.03776H0.5625H3.1875H3.75V7.93007H3.1875H0.5625Z" fill="#FF4200"/>
</svg>
