<svg width="37" height="33" viewBox="0 0 37 33" fill="none" xmlns="http://www.w3.org/2000/svg">
<path d="M30.9531 26.4082C30.9531 26.8457 30.7031 27.0957 30.2656 27.0957C29.8281 27.0957 29.5781 26.7832 29.5781 26.4082C29.5781 25.9707 29.8281 25.6582 30.2656 25.6582C30.7031 25.6582 30.9531 25.9707 30.9531 26.4082ZM11.5781 25.6582C11.9531 25.6582 12.2031 25.9707 12.2656 26.4082C12.2656 26.8457 11.9531 27.0957 11.5781 27.0957C11.1406 27.0957 10.8281 26.7832 10.8281 26.4082C10.8281 25.9707 11.1406 25.6582 11.5781 25.6582ZM18.8906 25.6582C19.2031 25.6582 19.4531 25.8457 19.5156 26.1582H18.3281C18.3281 25.8457 18.5781 25.6582 18.8906 25.6582ZM25.6406 25.6582C26.0781 25.6582 26.3281 25.9707 26.3281 26.4082C26.3281 26.8457 26.0781 27.0957 25.6406 27.0957C25.2031 27.0957 24.9531 26.7832 24.9531 26.4082C24.9531 25.9707 25.2031 25.6582 25.6406 25.6582ZM32.2656 27.2832V27.3457C32.2656 27.4082 32.2656 27.4082 32.2656 27.4082C32.2656 27.4707 32.2656 27.4707 32.2031 27.4707C32.2031 27.4707 32.2031 27.5332 32.1406 27.5332C32.1406 27.5332 32.1406 27.5332 32.0781 27.5332C32.0781 27.5332 32.0781 27.5332 32.0156 27.5332C32.0156 27.5332 32.0156 27.4707 31.9531 27.4707C31.9531 27.4707 31.9531 27.4707 31.9531 27.4082C31.8906 27.4082 31.8906 27.4082 31.8906 27.3457C31.8906 27.3457 31.8906 27.2832 31.9531 27.2832V27.2207C32.0156 27.2207 32.0156 27.2207 32.0156 27.2207C32.0781 27.1582 32.0781 27.1582 32.0781 27.1582C32.1406 27.1582 32.1406 27.1582 32.1406 27.2207C32.2031 27.2207 32.2031 27.2207 32.2031 27.2207C32.2656 27.2207 32.2656 27.2832 32.2656 27.2832ZM32.1406 27.4082V27.3457C32.2031 27.3457 32.2031 27.3457 32.2031 27.2832C32.2031 27.2832 32.2031 27.2832 32.1406 27.2832C32.1406 27.2832 32.1406 27.2207 32.0781 27.2207H32.0156V27.4707H32.0781V27.3457L32.1406 27.4707H32.2031L32.1406 27.4082ZM36.8281 5.7832V27.7832C36.8281 29.4707 35.4531 30.7832 33.8281 30.7832H3.82812C2.14062 30.7832 0.828125 29.4707 0.828125 27.7832V5.7832C0.828125 4.1582 2.14062 2.7832 3.82812 2.7832H33.8281C35.4531 2.7832 36.8281 4.1582 36.8281 5.7832ZM4.82812 14.5332C4.82812 19.3457 8.70312 23.2207 13.4531 23.2207C15.1406 23.2207 16.8281 22.6582 18.2656 21.7207C13.7031 18.0332 13.7031 11.0332 18.2656 7.3457C16.8281 6.4082 15.1406 5.9082 13.4531 5.9082C8.70312 5.9082 4.82812 9.7832 4.82812 14.5332ZM18.8281 21.3457C23.2031 17.9082 23.2031 11.2207 18.8281 7.7207C14.3906 11.2207 14.3906 17.9082 18.8281 21.3457ZM9.89062 26.0957C9.89062 25.5332 9.57812 25.2207 9.01562 25.1582C8.70312 25.1582 8.39062 25.2832 8.20312 25.5957C8.01562 25.3457 7.76562 25.1582 7.45312 25.1582C7.20312 25.1582 6.95312 25.2832 6.76562 25.5332V25.2207H6.26562V27.5332H6.76562C6.76562 26.3457 6.57812 25.6582 7.32812 25.6582C7.95312 25.6582 7.82812 26.2832 7.82812 27.5332H8.32812C8.32812 26.4082 8.20312 25.6582 8.89062 25.6582C9.51562 25.6582 9.39062 26.2832 9.39062 27.5332H9.89062V26.0957ZM12.7031 25.2207H12.2031V25.5332C12.0781 25.3457 11.8281 25.1582 11.5156 25.1582C10.8281 25.1582 10.3281 25.7207 10.3281 26.4082C10.3281 27.0957 10.8281 27.5957 11.5156 27.5957C11.8281 27.5957 12.0781 27.4707 12.2031 27.2832V27.5332H12.7031V25.2207ZM15.2656 26.8457C15.2656 25.9082 13.8281 26.3457 13.8281 25.9082C13.8281 25.5332 14.5781 25.5957 14.9531 25.8457L15.2031 25.4082C14.5781 25.0332 13.2656 25.0332 13.2656 25.9082C13.2656 26.8457 14.7031 26.4707 14.7031 26.8457C14.7031 27.2832 13.8906 27.2207 13.4531 26.9082L13.2031 27.3457C13.8906 27.7832 15.2656 27.7207 15.2656 26.8457ZM17.4531 27.4082L17.3281 27.0332C17.0781 27.1582 16.5781 27.2832 16.5781 26.7207V25.7207H17.3906V25.2207H16.5781V24.5332H16.0156V25.2207H15.5781V25.7207H16.0156V26.7207C16.0156 27.8457 17.1406 27.6582 17.4531 27.4082ZM18.2656 26.5957H20.0156C20.0156 25.5957 19.5156 25.1582 18.8906 25.1582C18.2656 25.1582 17.7656 25.6582 17.7656 26.4082C17.7656 27.6582 19.2031 27.9082 19.8906 27.2832L19.6406 26.9082C19.1406 27.2832 18.4531 27.2832 18.2656 26.5957ZM21.9531 25.2207C21.7031 25.0957 21.2656 25.1582 21.0156 25.5332V25.2207H20.5156V27.5332H21.0156V26.2207C21.0156 25.5332 21.6406 25.5957 21.8281 25.7207L21.9531 25.2207ZM22.6406 26.4082C22.6406 25.6582 23.3906 25.4707 23.9531 25.8457L24.2031 25.4707C23.4531 24.9082 22.1406 25.2207 22.1406 26.4082C22.1406 27.6582 23.5156 27.9082 24.2031 27.3457L23.9531 26.9082C23.3906 27.3457 22.6406 27.0957 22.6406 26.4082ZM26.8281 25.2207H26.3281V25.5332C25.7656 24.8457 24.4531 25.2207 24.4531 26.4082C24.4531 27.5957 25.8281 27.9082 26.3281 27.2832V27.5332H26.8281V25.2207ZM28.8906 25.2207C28.7656 25.1582 28.2031 25.0957 27.9531 25.5332V25.2207H27.4531V27.5332H27.9531V26.2207C27.9531 25.5332 28.5156 25.5957 28.7656 25.7207L28.8906 25.2207ZM31.4531 24.3457H30.9531V25.5332C30.4531 24.8457 29.0781 25.2207 29.0781 26.4082C29.0781 27.5957 30.4531 27.9082 30.9531 27.2832V27.5332H31.4531V24.3457ZM31.8906 19.5957V19.9082H31.9531V19.5957H32.0781H31.7656H31.8906ZM32.3281 27.3457V27.2832C32.2656 27.2207 32.2656 27.2207 32.2656 27.2207C32.2656 27.1582 32.2031 27.1582 32.2031 27.1582C32.1406 27.1582 32.1406 27.0957 32.0781 27.0957L32.0156 27.1582C31.9531 27.1582 31.9531 27.1582 31.9531 27.2207C31.8906 27.2207 31.8906 27.2207 31.8906 27.2832V27.3457C31.8906 27.4082 31.8906 27.4082 31.8906 27.4707C31.8906 27.4707 31.8906 27.4707 31.9531 27.5332C31.9531 27.5332 31.9531 27.5332 32.0156 27.5957H32.0781C32.1406 27.5957 32.1406 27.5957 32.2031 27.5957C32.2031 27.5332 32.2656 27.5332 32.2656 27.5332C32.2656 27.4707 32.2656 27.4707 32.3281 27.4707C32.3281 27.4082 32.3281 27.4082 32.3281 27.3457ZM32.5156 19.5957H32.4531L32.3281 19.7832L32.2656 19.5957H32.1406V19.9082H32.2031V19.6582L32.3281 19.8457H32.3906L32.4531 19.6582V19.9082H32.5156V19.5957ZM32.8281 14.5332C32.8281 9.7832 28.8906 5.9082 24.1406 5.9082C22.4531 5.9082 20.7656 6.4082 19.3906 7.3457C23.8906 11.0332 23.9531 18.0332 19.3906 21.7207C20.7656 22.6582 22.4531 23.1582 24.1406 23.1582C28.8906 23.2207 32.8281 19.3457 32.8281 14.5332Z" fill="#808080"/>
</svg>
