<svg width="13" height="13" viewBox="0 0 13 13" fill="none" xmlns="http://www.w3.org/2000/svg">
<g clip-path="url(#clip0_2440_7838)">
<g clip-path="url(#clip1_2440_7838)">
<path d="M1.40625 6.47021C1.40625 3.72021 3.65625 1.47021 6.40625 1.47021C7.18248 1.47021 7.94804 1.65094 8.64232 1.99808C9.33659 2.34522 9.94051 2.84923 10.4062 3.47021" stroke="#FF4200" stroke-linecap="round" stroke-linejoin="round"/>
<path d="M2.90625 10.2202C3.15625 9.47021 3.40625 7.97021 3.40625 6.47021C3.40625 6.12021 3.46625 5.78521 3.57625 5.47021" stroke="#FF4200" stroke-linecap="round" stroke-linejoin="round"/>
<path d="M9.04688 10.9802C9.10687 10.6802 9.26187 9.83021 9.29688 9.47021" stroke="#FF4200" stroke-linecap="round" stroke-linejoin="round"/>
<path d="M6.40344 5.47021C6.13822 5.47021 5.88387 5.57557 5.69633 5.76311C5.50879 5.95064 5.40344 6.205 5.40344 6.47021C5.40344 6.98021 5.35344 7.72521 5.27344 8.47021" stroke="#FF4200" stroke-linecap="round" stroke-linejoin="round"/>
<path d="M4.73438 11.4702C4.83937 11.1402 4.95938 10.8102 5.01938 10.4702" stroke="#FF4200" stroke-linecap="round" stroke-linejoin="round"/>
<path d="M7.40625 7.03271C7.40625 8.22271 7.40625 10.2227 6.90625 11.4727" stroke="#FF4200" stroke-linecap="round" stroke-linejoin="round"/>
<path d="M1.40625 8.47021H1.41125" stroke="#FF4200" stroke-linecap="round" stroke-linejoin="round"/>
<path d="M11.3047 8.47021C11.4047 7.47021 11.3702 5.79321 11.3047 5.47021" stroke="#FF4200" stroke-linecap="round" stroke-linejoin="round"/>
<path d="M4.90625 3.87214C5.36245 3.60875 5.87996 3.47013 6.40673 3.47021C6.9335 3.4703 7.45097 3.60909 7.90708 3.87262C8.3632 4.13615 8.74188 4.51514 9.00505 4.97146C9.26821 5.42779 9.40659 5.94537 9.40625 6.47214C9.40625 6.70714 9.40625 7.05714 9.39625 7.47214" stroke="#FF4200" stroke-linecap="round" stroke-linejoin="round"/>
</g>
</g>
<defs>
<clipPath id="clip0_2440_7838">
<rect width="12.8" height="12.5" fill="white" transform="matrix(1 0 0 -1 0 12.6108)"/>
</clipPath>
<clipPath id="clip1_2440_7838">
<rect width="12" height="12" fill="white" transform="translate(0.40625 0.470215)"/>
</clipPath>
</defs>
</svg>
