<svg width="12" height="12" viewBox="0 0 12 12" fill="none" xmlns="http://www.w3.org/2000/svg">
<path fill-rule="evenodd" clip-rule="evenodd" d="M6.7433 2.08245C5.2612 1.84734 3.69439 2.31986 2.55286 3.49997C0.649047 5.46811 0.649047 8.65912 2.55286 10.6273L2.9506 11.0384L2.15511 11.8608L1.75736 11.4497C-0.585787 9.02734 -0.585787 5.09992 1.75736 2.67759C3.30729 1.07527 5.49423 0.532852 7.47545 1.05032L6.7433 2.08245ZM10.3728 4.83259C11.2721 6.716 10.9636 9.05959 9.44714 10.6273L9.04942 11.0384L9.84487 11.8608L10.2427 11.4497C12.2505 9.37392 12.5378 6.19302 11.1046 3.80102L10.3728 4.83259ZM5.99999 7.83896C6.4142 7.83896 6.74999 7.49182 6.74999 7.06361C6.74999 6.63541 6.4142 6.28827 5.99999 6.28827C5.58578 6.28827 5.25 6.63541 5.25 7.06361C5.25 7.49182 5.58578 7.83896 5.99999 7.83896ZM5.99999 9.00198C7.03553 9.00198 7.87499 8.13414 7.87499 7.06361C7.87499 6.61835 7.72979 6.20814 7.48561 5.88087L10.0856 2.521C9.81112 2.25698 9.51254 2.01925 9.19387 1.81166L6.56127 5.21359C6.38406 5.15619 6.19552 5.12525 5.99999 5.12525C4.96446 5.12525 4.125 5.99309 4.125 7.06361C4.125 8.13414 4.96446 9.00198 5.99999 9.00198Z" fill="#FF4200"/>
</svg>
