<svg width="18" height="19" viewBox="0 0 18 19" fill="none" xmlns="http://www.w3.org/2000/svg">
<path d="M9 18.9707C13.9706 18.9707 18 14.9413 18 9.9707C18 5.00014 13.9706 0.970703 9 0.970703C4.02944 0.970703 0 5.00014 0 9.9707C0 14.9413 4.02944 18.9707 9 18.9707Z" fill="#10B981" fill-opacity="0.2"/>
<path fill-rule="evenodd" clip-rule="evenodd" d="M9 15.9707C10.5913 15.9707 12.1174 15.3386 13.2426 14.2133C14.3679 13.0881 15 11.562 15 9.9707C15 8.3794 14.3679 6.85328 13.2426 5.72806C12.1174 4.60284 10.5913 3.9707 9 3.9707C7.4087 3.9707 5.88258 4.60284 4.75736 5.72806C3.63214 6.85328 3 8.3794 3 9.9707C3 11.562 3.63214 13.0881 4.75736 14.2133C5.88258 15.3386 7.4087 15.9707 9 15.9707ZM11.8245 8.47745C11.8779 8.42643 11.9208 8.36539 11.9506 8.29781C11.9805 8.23022 11.9967 8.15743 11.9984 8.08357C12.0001 8.00971 11.9873 7.93624 11.9606 7.86735C11.9339 7.79846 11.8939 7.73551 11.8429 7.68207C11.7919 7.62864 11.7308 7.58578 11.6632 7.55594C11.5956 7.5261 11.5229 7.50987 11.449 7.50816C11.3751 7.50645 11.3017 7.51931 11.2328 7.546C11.1639 7.57269 11.1009 7.61268 11.0475 7.6637C9.91968 8.74131 8.9301 9.95485 8.1015 11.2765L6.96 10.1357C6.9085 10.0804 6.8464 10.0361 6.7774 10.0054C6.7084 9.97462 6.63392 9.95809 6.55839 9.95676C6.48286 9.95542 6.40784 9.96932 6.3378 9.99761C6.26776 10.0259 6.20414 10.068 6.15072 10.1214C6.09731 10.1748 6.0552 10.2385 6.02691 10.3085C5.99862 10.3785 5.98472 10.4536 5.98606 10.5291C5.98739 10.6046 6.00392 10.6791 6.03466 10.7481C6.06541 10.8171 6.10973 10.8792 6.165 10.9307L7.815 12.5815C7.8761 12.6426 7.95045 12.6888 8.0323 12.7165C8.11415 12.7443 8.2013 12.7528 8.28696 12.7414C8.37263 12.73 8.45452 12.699 8.52629 12.6509C8.59805 12.6027 8.65775 12.5387 8.70075 12.4637C9.54556 10.9921 10.5976 9.64961 11.8245 8.47745Z" fill="#10B981"/>
</svg>
