<svg width="30" height="28" viewBox="0 0 30 28" fill="none" xmlns="http://www.w3.org/2000/svg">
<path d="M27.0578 11.2688C26.7304 11.0065 26.1854 10.5689 26.1172 10.3615C26.0478 10.1461 26.2271 9.4531 26.3347 9.04069C26.5927 8.0452 26.9144 6.80683 26.1936 5.83197C25.4762 4.86398 24.186 4.7792 23.1493 4.71043C22.72 4.68065 22.0003 4.63366 21.8187 4.50306C21.6347 4.37133 21.3581 3.69659 21.1927 3.29219C20.7843 2.28983 20.3191 1.1534 19.184 0.791393C18.0548 0.425977 17.0226 1.07321 16.1143 1.64254C15.714 1.89225 15.1111 2.27033 14.8589 2.27033C14.6171 2.27033 14.0212 1.88656 13.6255 1.63225C12.7519 1.06975 11.6597 0.373242 10.5084 0.760478C9.37553 1.14197 8.91506 2.27147 8.5066 3.26582C8.34232 3.66676 8.06921 4.33576 7.8818 4.47209C7.69898 4.6061 6.96655 4.65423 6.52916 4.68287C5.43574 4.75618 4.19652 4.8387 3.49996 5.8147C2.81615 6.77353 3.12273 7.95576 3.39348 8.99938C3.49996 9.41407 3.68043 10.1083 3.61563 10.3156C3.54623 10.5138 3.00701 10.9526 2.68534 11.2149C1.87181 11.8795 0.859375 12.7054 0.859375 13.9426C0.859375 15.1718 1.85217 15.9886 2.64935 16.6439C2.99531 16.9279 3.51713 17.3575 3.58773 17.5706C3.65713 17.7814 3.47666 18.4664 3.36789 18.8754C3.10408 19.8801 2.77431 21.1311 3.52293 22.1139C4.25306 23.0694 5.5374 23.1541 6.57066 23.2229C6.99996 23.2526 7.7185 23.2984 7.90132 23.4302C8.08414 23.562 8.35955 24.2356 8.52498 24.64C8.93459 25.6423 9.39856 26.7788 10.5348 27.1419C10.7628 27.2163 10.9884 27.2485 11.2083 27.2485C12.0784 27.2485 12.8814 26.7444 13.6057 26.293C14.0049 26.0433 14.6066 25.6652 14.8588 25.6652C15.1053 25.6652 15.6977 26.0387 16.0888 26.2862C16.9566 26.8326 18.0396 27.5177 19.1886 27.1281C20.3202 26.7467 20.7807 25.6183 21.1892 24.6217C21.3534 24.2219 21.6266 23.5517 21.814 23.4154C21.9979 23.2814 22.7257 23.2333 23.1608 23.2046C24.2461 23.1313 25.4773 23.05 26.1843 22.0888C26.8959 21.1231 26.5904 19.9283 26.3208 18.8755C26.2155 18.4642 26.0397 17.7781 26.1033 17.5718C26.1727 17.3737 26.7119 16.9349 27.0324 16.6725C27.847 16.0081 28.8594 15.181 28.8594 13.9438C28.8594 12.7169 27.8597 11.9138 27.0578 11.2688ZM25.5618 14.9061C24.8849 15.4571 24.1848 16.0287 23.9094 16.8478C23.6283 17.6818 23.8574 18.5753 24.0784 19.4391C24.186 19.8606 24.3665 20.5652 24.3422 20.7106C24.1663 20.8412 23.4408 20.8905 23.0069 20.918C22.1472 20.9753 21.173 21.0395 20.4475 21.5664C19.729 22.0876 19.3807 22.9388 19.0439 23.7613C18.8797 24.1669 18.602 24.8461 18.4874 24.9493C18.2768 24.9493 17.6879 24.5747 17.335 24.3525C16.6072 23.8942 15.7822 23.373 14.86 23.373C13.9366 23.373 13.1047 23.8954 12.3688 24.3559C12.0124 24.5782 11.4154 24.9539 11.2881 24.9814C11.1088 24.8542 10.8357 24.1829 10.6714 23.782C10.3312 22.9492 9.97945 22.0889 9.25396 21.5722C8.53313 21.0578 7.61438 20.9971 6.72461 20.9387C6.30691 20.9112 5.52821 20.8597 5.38701 20.7646C5.31526 20.5618 5.49693 19.8688 5.60685 19.4564C5.8209 18.6395 6.06508 17.7139 5.78967 16.8685C5.51312 16.0242 4.77839 15.4182 4.12925 14.8843C3.81223 14.6232 3.22095 14.1363 3.17118 13.9599C3.22324 13.7445 3.83071 13.2485 4.15698 12.9839C4.83384 12.4317 5.5339 11.8601 5.80931 11.041C6.09281 10.2013 5.85907 9.30085 5.63458 8.43022C5.52581 8.00979 5.34298 7.30641 5.35688 7.1724C5.5339 7.04641 6.25359 6.99828 6.68403 6.96964C7.58769 6.91008 8.52377 6.84706 9.24926 6.32126C9.9678 5.80002 10.3161 4.95002 10.6529 4.12752C10.8171 3.72085 11.096 3.04264 11.2025 2.94069C11.4165 2.9441 12.0112 3.32673 12.3665 3.55473C13.1001 4.02671 13.9332 4.5617 14.86 4.5617C15.7822 4.5617 16.6164 4.03932 17.35 3.57996C17.7064 3.35657 18.3034 2.982 18.4307 2.9545C18.6089 3.08168 18.8832 3.75295 19.0474 4.15389C19.3876 4.98559 19.7393 5.84588 20.4648 6.36252C21.1857 6.87803 22.1056 6.93872 22.9965 6.99714C23.4362 7.02692 24.1733 7.07619 24.3109 7.15865C24.3815 7.36028 24.2022 8.05679 24.0934 8.47148C23.8816 9.2917 23.641 10.2208 23.9175 11.0685C24.1964 11.922 24.9427 12.5211 25.6011 13.0492C25.9019 13.292 26.4562 13.7354 26.5418 13.9485C26.4597 14.1718 25.8776 14.6471 25.5618 14.9061Z" fill="#FF4200"/>
<path d="M20.0214 9.62703C19.5285 9.21922 18.8006 9.28565 18.3922 9.77024L13.2329 15.8773L11.0379 13.7053C10.5854 13.2574 9.8542 13.2574 9.40182 13.7053C8.94939 14.1533 8.94939 14.8773 9.40182 15.3251L12.4912 18.3838C12.7075 18.6004 13.0026 18.7195 13.3093 18.7195C13.3254 18.7195 13.3428 18.7195 13.359 18.7172C13.6853 18.7034 13.9873 18.5545 14.1956 18.3082L20.166 11.24C20.5756 10.7543 20.512 10.0326 20.0214 9.62703Z" fill="#FF4200"/>
</svg>
