<svg width="37" height="33" viewBox="0 0 37 33" fill="none" xmlns="http://www.w3.org/2000/svg">
<path d="M12.1445 16.9082C12.1445 17.6582 11.5195 18.2207 10.7695 18.2207C10.207 18.2207 9.76953 17.9082 9.76953 17.2832C9.76953 16.5332 10.332 15.9082 11.1445 15.9082C11.707 15.9082 12.1445 16.2832 12.1445 16.9082ZM5.51953 13.8457C6.20703 13.8457 6.76953 13.9707 6.64453 14.7832C6.51953 15.5957 5.95703 15.6582 5.26953 15.6582L4.76953 15.7207L5.01953 14.0332C5.01953 13.9082 5.14453 13.8457 5.20703 13.8457H5.51953ZM23.2695 13.8457C23.832 13.8457 24.3945 13.9082 24.3945 14.5332C24.3945 15.4707 23.832 15.6582 23.0195 15.6582L22.5195 15.7207L22.7695 14.0332C22.832 13.9082 22.8945 13.8457 23.0195 13.8457H23.2695ZM36.5195 5.7207V27.7207C36.5195 29.4082 35.1445 30.7207 33.5195 30.7207H3.51953C1.83203 30.7207 0.519531 29.4082 0.519531 27.7207V5.7207C0.519531 4.0957 1.83203 2.7207 3.51953 2.7207H33.5195C35.1445 2.7207 36.5195 4.0957 36.5195 5.7207ZM8.51953 14.2207C8.51953 12.9082 7.51953 12.4707 6.33203 12.4707H3.83203C3.70703 12.4707 3.51953 12.5957 3.51953 12.7832L2.51953 19.1582C2.45703 19.2832 2.58203 19.4082 2.70703 19.4082H3.89453C4.01953 19.4082 4.20703 19.2207 4.20703 19.0332L4.51953 17.3457C4.58203 16.9082 5.33203 17.0957 5.64453 17.0957C7.39453 17.0957 8.51953 16.0332 8.51953 14.2207ZM13.7695 14.7832H12.582C12.332 14.7832 12.332 15.0957 12.332 15.2832C11.957 14.7207 11.457 14.6582 10.832 14.6582C9.33203 14.6582 8.14453 15.9707 8.14453 17.4707C8.14453 18.7207 8.89453 19.4707 10.1445 19.4707C10.707 19.4707 11.3945 19.1582 11.7695 18.7207C11.7695 18.8457 11.707 19.0332 11.707 19.1582C11.707 19.2832 11.7695 19.4082 11.8945 19.4082H13.0195C13.1445 19.4082 13.332 19.2207 13.332 19.0332L13.957 15.0332C14.0195 14.9082 13.8945 14.7832 13.7695 14.7832ZM16.332 20.9082L20.2695 15.0957C20.332 15.0332 20.332 15.0332 20.332 14.9707C20.332 14.9082 20.207 14.7832 20.1445 14.7832H18.8945C18.832 14.7832 18.707 14.8457 18.6445 14.9082L16.957 17.3457L16.2695 15.0332C16.2695 14.9082 16.082 14.7832 15.957 14.7832H14.7695C14.6445 14.7832 14.582 14.9082 14.582 14.9707C14.582 15.0332 15.7695 18.5332 15.8945 18.8457C15.707 19.0957 14.6445 20.6582 14.6445 20.8457C14.6445 20.9707 14.707 21.0332 14.832 21.0332H16.0195C16.1445 21.0332 16.2695 20.9707 16.332 20.9082ZM26.2695 14.2207C26.2695 12.9082 25.2695 12.4707 24.082 12.4707H21.582C21.457 12.4707 21.2695 12.5957 21.2695 12.7832L20.2695 19.1582C20.2695 19.2832 20.332 19.4082 20.457 19.4082H21.707C21.832 19.4082 21.957 19.2832 21.957 19.1582L22.2695 17.3457C22.332 16.9082 23.082 17.0957 23.3945 17.0957C25.1445 17.0957 26.2695 16.0332 26.2695 14.2207ZM31.5195 14.7832H30.332C30.082 14.7832 30.082 15.0957 30.082 15.2832C29.707 14.7207 29.207 14.6582 28.582 14.6582C27.082 14.6582 25.8945 15.9707 25.8945 17.4707C25.8945 18.7207 26.6445 19.4707 27.8945 19.4707C28.457 19.4707 29.1445 19.1582 29.5195 18.7207C29.5195 18.8457 29.457 19.0332 29.457 19.1582C29.457 19.2832 29.5195 19.4082 29.6445 19.4082H30.7695C30.8945 19.4082 31.082 19.2207 31.082 19.0332L31.707 15.0332C31.7695 14.9082 31.6445 14.7832 31.5195 14.7832ZM34.5195 12.6582C34.5195 12.5332 34.3945 12.4707 34.2695 12.4707H33.1445C33.0195 12.4707 32.957 12.5332 32.957 12.6582L31.8945 19.1582C31.8945 19.2832 32.0195 19.4082 32.1445 19.4082H33.1445C33.332 19.4082 33.457 19.2207 33.457 19.0332L34.5195 12.7207V12.6582ZM28.8945 15.9082C29.457 15.9082 29.8945 16.2832 29.8945 16.9082C29.8945 17.6582 29.2695 18.2207 28.5195 18.2207C27.957 18.2207 27.5195 17.9082 27.5195 17.2832C27.5195 16.5332 28.082 15.9082 28.8945 15.9082Z" fill="#808080"/>
</svg>
