<svg width="14" height="14" viewBox="0 0 14 14" fill="none" xmlns="http://www.w3.org/2000/svg">
<mask id="mask0_2440_7506" style="mask-type:alpha" maskUnits="userSpaceOnUse" x="-1" y="0" width="15" height="14">
<g clip-path="url(#clip0_2440_7506)">
<g clip-path="url(#clip1_2440_7506)">
<path d="M14.0761 8.5808C14.4661 8.1908 14.4661 7.5558 14.0761 7.1648L9.07609 2.1648C8.88587 1.98888 8.6349 1.89349 8.37586 1.89864C8.11681 1.90379 7.86983 2.00908 7.68675 2.19242C7.50367 2.37576 7.39873 2.62288 7.39395 2.88194C7.38916 3.14099 7.48491 3.39182 7.66109 3.5818L10.9571 6.8748H1.37109C1.10588 6.8748 0.851523 6.98015 0.663987 7.16769C0.476451 7.35523 0.371094 7.60958 0.371094 7.8748C0.371094 8.14001 0.476451 8.39437 0.663987 8.5819C0.851523 8.76944 1.10588 8.8748 1.37109 8.8748H10.9551L7.66509 12.1688C7.48147 12.3573 7.37945 12.6105 7.38112 12.8737C7.3828 13.1368 7.48803 13.3887 7.67404 13.5749C7.86005 13.761 8.11188 13.8664 8.37503 13.8683C8.63817 13.8701 8.89147 13.7683 9.08009 13.5848L14.0801 8.5848L14.0771 8.5818L14.0761 8.5808Z" fill="black"/>
</g>
</g>
</mask>
<g mask="url(#mask0_2440_7506)">
<rect x="-0.00390625" width="14" height="14" fill="white"/>
</g>
<defs>
<clipPath id="clip0_2440_7506">
<rect width="14" height="14" fill="white" transform="translate(-0.00390625)"/>
</clipPath>
<clipPath id="clip1_2440_7506">
<rect width="14" height="16" fill="white" transform="translate(-0.00390625 -1)"/>
</clipPath>
</defs>
</svg>
