<svg width="37" height="33" viewBox="0 0 37 33" fill="none" xmlns="http://www.w3.org/2000/svg">
<path d="M31.7383 14.5332C32.3008 14.5332 32.8633 14.9707 32.8633 15.9707H30.5508C30.5508 14.9707 31.1758 14.5332 31.7383 14.5332ZM24.4258 14.7207C25.1758 14.7207 25.7383 15.5957 25.7383 16.7832C25.7383 17.9707 25.2383 18.8457 24.4258 18.8457C23.8633 18.8457 23.5508 18.6582 23.3633 18.4707V15.1582C23.5508 14.9082 23.8633 14.7207 24.4258 14.7207ZM33.9883 2.7207C35.6133 2.7207 36.9883 4.0957 36.9883 5.7207V27.7207C36.9883 29.4082 35.6133 30.7207 33.9883 30.7207H3.98828C2.30078 30.7207 0.988281 29.4082 0.988281 27.7207V5.7207C0.988281 4.0957 2.30078 2.7207 3.98828 2.7207H33.9883ZM8.61328 18.3457C8.61328 15.6582 5.17578 16.1582 5.17578 15.1582C5.17578 14.7832 5.48828 14.6582 5.98828 14.6582C6.61328 14.6582 7.48828 14.8457 8.17578 15.2207V13.1582C7.42578 12.8457 6.67578 12.7207 5.98828 12.7207C4.17578 12.7207 2.98828 13.6582 2.98828 15.2832C2.98828 17.7207 6.36328 17.2832 6.36328 18.3457C6.36328 18.7832 5.98828 18.9082 5.48828 18.9082C4.73828 18.9082 3.80078 18.5957 3.05078 18.2207V20.3457C3.86328 20.6582 4.73828 20.8457 5.48828 20.8457C7.30078 20.8457 8.61328 19.9082 8.61328 18.3457ZM12.9258 14.7832V12.9082H11.2383V10.9707L9.05078 11.4082V18.5332C9.05078 19.8457 10.0508 20.8457 11.3633 20.8457C12.0508 20.8457 12.6133 20.7207 12.9258 20.5332V18.7207C12.6133 18.8457 11.2383 19.2207 11.2383 17.9082V14.7832H12.9258ZM17.5508 14.9082V12.9082H17.4883C17.2383 12.7832 16.1758 12.5957 15.6758 13.5332L15.5508 12.9082H13.6133V20.6582H15.8008V15.4082C16.3633 14.7207 17.2383 14.8457 17.5508 14.9082ZM20.3008 20.6582V12.9082H18.0508V20.6582H20.3008ZM20.3008 11.7207V9.9082L18.0508 10.4082V12.2207L20.3008 11.7207ZM24.9258 20.8457C26.4883 20.8457 27.9258 19.5332 27.9258 16.7207C27.9258 14.1582 26.4883 12.7207 24.9258 12.7207C24.0508 12.7207 23.4883 13.1582 23.1758 13.4082L23.0508 12.9082H21.1133V23.2207L23.3633 22.7832V20.2832C23.6758 20.4707 24.1133 20.8457 24.9258 20.8457ZM34.9258 17.5957C34.9258 17.4707 34.9883 17.0332 34.9883 16.7832C34.9883 14.5332 33.8633 12.7207 31.7383 12.7207C29.6133 12.7207 28.3633 14.5332 28.3633 16.7832C28.3633 19.4707 29.8633 20.8457 32.0508 20.8457C33.1133 20.8457 33.8633 20.5957 34.4883 20.2207V18.4707C33.8633 18.7832 33.1758 18.9707 32.3008 18.9707C31.4258 18.9707 30.6758 18.6582 30.6133 17.5957H34.9258Z" fill="#808080"/>
</svg>
