<svg width="12" height="13" viewBox="0 0 12 13" fill="none" xmlns="http://www.w3.org/2000/svg">
<g clip-path="url(#clip0_2440_7819)">
<path d="M2 5.72021H3.5C3.76522 5.72021 4.01957 5.82557 4.20711 6.01311C4.39464 6.20064 4.5 6.455 4.5 6.72021V8.22021C4.5 8.48543 4.39464 8.73979 4.20711 8.92732C4.01957 9.11486 3.76522 9.22021 3.5 9.22021H3C2.73478 9.22021 2.48043 9.11486 2.29289 8.92732C2.10536 8.73979 2 8.48543 2 8.22021V5.72021ZM2 5.72021C2 5.12927 2.1164 4.5441 2.34254 3.99814C2.56869 3.45217 2.90016 2.9561 3.31802 2.53823C3.73588 2.12037 4.23196 1.7889 4.77792 1.56276C5.32389 1.33661 5.90905 1.22021 6.5 1.22021C7.09095 1.22021 7.67611 1.33661 8.22208 1.56276C8.76804 1.7889 9.26412 2.12037 9.68198 2.53823C10.0998 2.9561 10.4313 3.45217 10.6575 3.99814C10.8836 4.5441 11 5.12927 11 5.72021M11 5.72021V8.22021C11 8.48543 10.8946 8.73979 10.7071 8.92732C10.5196 9.11486 10.2652 9.22021 10 9.22021H9.5C9.23478 9.22021 8.98043 9.11486 8.79289 8.92732C8.60536 8.73979 8.5 8.48543 8.5 8.22021V6.72021C8.5 6.455 8.60536 6.20064 8.79289 6.01311C8.98043 5.82557 9.23478 5.72021 9.5 5.72021H11Z" stroke="#FF4200" stroke-linecap="round" stroke-linejoin="round"/>
<path d="M11 8.22021V9.22021C11 9.75065 10.7893 10.2594 10.4142 10.6344C10.0391 11.0095 9.53043 11.2202 9 11.2202H6.5" stroke="#FF4200" stroke-linecap="round" stroke-linejoin="round"/>
</g>
<defs>
<clipPath id="clip0_2440_7819">
<rect width="12" height="12" fill="white" transform="translate(0 0.36084)"/>
</clipPath>
</defs>
</svg>
