<svg width="25" height="25" viewBox="0 0 25 25" fill="none" xmlns="http://www.w3.org/2000/svg">
<g opacity="0.7">
<g clip-path="url(#clip0_2440_8307)">
<g clip-path="url(#clip1_2440_8307)">
<path d="M12.8008 4.7207C8.38478 4.7207 4.80078 8.3047 4.80078 12.7207C4.80078 17.1367 8.38478 20.7207 12.8008 20.7207C17.2168 20.7207 20.8008 17.1367 20.8008 12.7207C20.8008 8.3047 17.2168 4.7207 12.8008 4.7207ZM16.5128 10.1607C16.3928 11.4247 15.8728 14.4967 15.6088 15.9127C15.4968 16.5127 15.2728 16.7127 15.0648 16.7367C14.6008 16.7767 14.2488 16.4327 13.8008 16.1367C13.0968 15.6727 12.6968 15.3847 12.0168 14.9367C11.2248 14.4167 11.7368 14.1287 12.1928 13.6647C12.3128 13.5447 14.3608 11.6807 14.4008 11.5127C14.4064 11.4873 14.4056 11.4608 14.3986 11.4357C14.3917 11.4106 14.3787 11.3876 14.3608 11.3687C14.3128 11.3287 14.2488 11.3447 14.1928 11.3527C14.1208 11.3687 13.0008 12.1127 10.8168 13.5847C10.4968 13.8007 10.2088 13.9127 9.95278 13.9047C9.66478 13.8967 9.12078 13.7447 8.71278 13.6087C8.20878 13.4487 7.81678 13.3607 7.84878 13.0807C7.86478 12.9367 8.06478 12.7927 8.44078 12.6407C10.7768 11.6247 12.3288 10.9527 13.1048 10.6327C15.3288 9.7047 15.7848 9.5447 16.0888 9.5447C16.1528 9.5447 16.3048 9.5607 16.4008 9.6407C16.4808 9.7047 16.5048 9.7927 16.5128 9.8567C16.5048 9.9047 16.5208 10.0487 16.5128 10.1607Z" fill="#666666"/>
</g>
</g>
</g>
<defs>
<clipPath id="clip0_2440_8307">
<rect width="24" height="24" fill="white" transform="translate(0.800781 0.720703)"/>
</clipPath>
<clipPath id="clip1_2440_8307">
<rect width="24" height="24" fill="white" transform="translate(0.800781 0.720703)"/>
</clipPath>
</defs>
</svg>
