<svg width="37" height="33" viewBox="0 0 37 33" fill="none" xmlns="http://www.w3.org/2000/svg">
<path d="M30.0547 15.2207C30.0547 15.2207 30.4922 17.5332 30.6172 18.0332H28.5547C28.7422 17.4707 29.5547 15.2832 29.5547 15.2832C29.4922 15.3457 29.7422 14.7207 29.8672 14.3457L30.0547 15.2207ZM36.6797 5.7207V27.7207C36.6797 29.4082 35.3047 30.7207 33.6797 30.7207H3.67969C1.99219 30.7207 0.679688 29.4082 0.679688 27.7207V5.7207C0.679688 4.0957 1.99219 2.7207 3.67969 2.7207H33.6797C35.3047 2.7207 36.6797 4.0957 36.6797 5.7207ZM10.1797 21.4707L14.1172 11.7207H11.4922L8.99219 18.3457L8.74219 17.0332L7.86719 12.5957C7.74219 11.9707 7.30469 11.7832 6.74219 11.7207H2.67969V11.9707C3.61719 12.2207 4.49219 12.5332 5.30469 13.0332L7.55469 21.4707H10.1797ZM16.0547 21.4707L17.6797 11.7207H15.1172L13.5547 21.4707H16.0547ZM24.8047 18.2832C24.8672 17.1582 24.1797 16.3457 22.7422 15.6582C21.8672 15.2207 21.3047 14.9082 21.3047 14.4707C21.3047 14.0332 21.7422 13.5957 22.7422 13.5957C23.5547 13.5957 24.1797 13.7832 24.6172 13.9707L24.8672 14.0957L25.1797 11.9707C24.6797 11.7832 23.9297 11.5957 22.9297 11.5957C20.4297 11.5957 18.6797 12.9082 18.6797 14.7832C18.6797 16.1582 19.9297 16.9707 20.8672 17.4082C21.8672 17.9082 22.1797 18.2207 22.1797 18.5957C22.1797 19.2832 21.4297 19.5957 20.6797 19.5957C19.6797 19.5957 19.1797 19.4082 18.3047 19.0332L17.9922 18.9082L17.6797 21.0957C18.2422 21.3457 19.3047 21.5957 20.4297 21.5957C23.1172 21.5957 24.8047 20.2832 24.8047 18.2832ZM33.6797 21.4707L31.6172 11.7207H29.6797C29.0547 11.7207 28.6172 11.9082 28.3672 12.5332L24.6172 21.4707H27.3047C27.3047 21.4707 27.6797 20.2832 27.8047 20.0332H31.0547C31.1172 20.3457 31.3047 21.4707 31.3047 21.4707H33.6797Z" fill="#808080"/>
</svg>
