<svg width="25" height="25" viewBox="0 0 25 25" fill="none" xmlns="http://www.w3.org/2000/svg">
<path d="M23.8018 10.4302C23.8513 8.99885 23.5383 7.57822 22.8918 6.3002C22.4532 5.7758 21.8445 5.42191 21.1718 5.3002C18.3893 5.04772 15.5954 4.94424 12.8018 4.9902C10.0184 4.94216 7.2345 5.0423 4.46179 5.2902C3.91361 5.38992 3.4063 5.64704 3.00179 6.0302C2.10179 6.8602 2.00179 8.2802 1.90179 9.4802C1.7567 11.6378 1.7567 13.8026 1.90179 15.9602C1.93072 16.6356 2.03128 17.306 2.20179 17.9602C2.32236 18.4653 2.56631 18.9325 2.91179 19.3202C3.31905 19.7237 3.83817 19.9954 4.40179 20.1002C6.5577 20.3663 8.73 20.4766 10.9018 20.4302C14.4018 20.4802 17.4718 20.4302 21.1018 20.1502C21.6793 20.0518 22.213 19.7797 22.6318 19.3702C22.9118 19.0901 23.1209 18.7473 23.2418 18.3702C23.5995 17.2728 23.7751 16.1243 23.7618 14.9702C23.8018 14.4102 23.8018 11.0302 23.8018 10.4302ZM10.5418 15.5702V9.3802L16.4618 12.4902C14.8018 13.4102 12.6118 14.4502 10.5418 15.5702Z" fill="#666666"/>
</svg>
